<svg width="106" height="178" viewBox="0 0 106 178" fill="none" xmlns="http://www.w3.org/2000/svg">
<rect x="0.251465" y="4.81641" width="105.497" height="171.139" fill="#D9D9D9"/>
<rect x="0.251465" y="4.81641" width="105.497" height="17.5828" fill="#AEAEAE"/>
<path d="M29.3719 7.40163V16.1289H27.5268V9.15305H27.4756L25.4771 10.4059V8.76953L27.6376 7.40163H29.3719ZM36.9092 11.4499L35.2473 11.5522C35.2189 11.4102 35.1578 11.2823 35.0641 11.1687C34.9703 11.0522 34.8467 10.9599 34.6933 10.8917C34.5427 10.8207 34.3623 10.7852 34.1521 10.7852C33.8709 10.7852 33.6337 10.8448 33.4405 10.9641C33.2473 11.0806 33.1507 11.2369 33.1507 11.4329C33.1507 11.5891 33.2132 11.7212 33.3382 11.8292C33.4632 11.9371 33.6777 12.0238 33.9817 12.0891L35.1663 12.3278C35.8027 12.4585 36.2771 12.6687 36.5896 12.9585C36.9021 13.2482 37.0584 13.6289 37.0584 14.1005C37.0584 14.5295 36.932 14.9059 36.6791 15.2298C36.4291 15.5536 36.0854 15.8065 35.6479 15.9883C35.2132 16.1673 34.7118 16.2567 34.1436 16.2567C33.2771 16.2567 32.5868 16.0763 32.0726 15.7156C31.5612 15.3519 31.2615 14.8576 31.1734 14.2326L32.9589 14.1388C33.0129 14.4031 33.1436 14.6048 33.351 14.744C33.5584 14.8803 33.824 14.9485 34.1479 14.9485C34.466 14.9485 34.7217 14.8874 34.9149 14.7653C35.1109 14.6403 35.2104 14.4798 35.2132 14.2837C35.2104 14.119 35.1408 13.984 35.0044 13.8789C34.868 13.771 34.6578 13.6886 34.3737 13.6317L33.2402 13.4059C32.601 13.2781 32.1251 13.0565 31.8126 12.7411C31.503 12.4258 31.3481 12.0238 31.3481 11.5352C31.3481 11.1147 31.4618 10.7525 31.6891 10.4485C31.9192 10.1445 32.2416 9.91016 32.6564 9.74538C33.074 9.58061 33.5626 9.49822 34.1223 9.49822C34.949 9.49822 35.5996 9.67294 36.074 10.0224C36.5513 10.3718 36.8297 10.8477 36.9092 11.4499ZM41.683 9.58345V10.9471H37.7413V9.58345H41.683ZM38.6361 8.01527H40.4515V14.1175C40.4515 14.2852 40.4771 14.4158 40.5282 14.5096C40.5793 14.6005 40.6503 14.6644 40.7413 14.7013C40.835 14.7383 40.943 14.7567 41.0651 14.7567C41.1503 14.7567 41.2356 14.7496 41.3208 14.7354C41.406 14.7184 41.4714 14.7056 41.5168 14.6971L41.8023 16.0479C41.7114 16.0763 41.5836 16.109 41.4188 16.146C41.254 16.1857 41.0538 16.2099 40.818 16.2184C40.3805 16.2354 39.9969 16.1772 39.6674 16.0437C39.3407 15.9102 39.0864 15.7028 38.9046 15.4215C38.7228 15.1403 38.6333 14.7852 38.6361 14.3562V8.01527ZM47.4582 7.40163V16.1289H45.6429V7.40163H47.4582ZM51.8954 16.2567C51.2221 16.2567 50.6425 16.1204 50.1567 15.8477C49.6738 15.5721 49.3016 15.1829 49.0403 14.68C48.7789 14.1744 48.6482 13.5763 48.6482 12.886C48.6482 12.2127 48.7789 11.6218 49.0403 11.1133C49.3016 10.6048 49.6695 10.2085 50.144 9.92436C50.6212 9.64027 51.1809 9.49822 51.8229 9.49822C52.2547 9.49822 52.6567 9.56783 53.0289 9.70703C53.4039 9.84339 53.7306 10.0494 54.009 10.3249C54.2903 10.6005 54.509 10.9471 54.6653 11.3647C54.8215 11.7795 54.8996 12.2653 54.8996 12.8221V13.3207H49.3726V12.1957H53.1908C53.1908 11.9343 53.134 11.7028 53.0204 11.5011C52.9067 11.2994 52.7491 11.1417 52.5474 11.0281C52.3485 10.9116 52.117 10.8533 51.8528 10.8533C51.5772 10.8533 51.3329 10.9173 51.1198 11.0451C50.9096 11.1701 50.7448 11.3391 50.6255 11.5522C50.5062 11.7624 50.4451 11.9968 50.4422 12.2553V13.3249C50.4422 13.6488 50.5019 13.9286 50.6212 14.1644C50.7434 14.4002 50.9153 14.582 51.1369 14.7099C51.3584 14.8377 51.6212 14.9016 51.9252 14.9016C52.1269 14.9016 52.3116 14.8732 52.4792 14.8164C52.6468 14.7596 52.7903 14.6744 52.9096 14.5607C53.0289 14.4471 53.1198 14.3079 53.1823 14.1431L54.8613 14.2539C54.7761 14.6573 54.6013 15.0096 54.3371 15.3107C54.0758 15.609 53.7377 15.842 53.3229 16.0096C52.911 16.1744 52.4351 16.2567 51.8954 16.2567ZM62.0108 9.58345L59.7224 16.1289H57.677L55.3886 9.58345H57.3062L58.6656 14.2667H58.7338L60.0889 9.58345H62.0108ZM65.7118 16.2567C65.0385 16.2567 64.4589 16.1204 63.9731 15.8477C63.4902 15.5721 63.118 15.1829 62.8567 14.68C62.5953 14.1744 62.4646 13.5763 62.4646 12.886C62.4646 12.2127 62.5953 11.6218 62.8567 11.1133C63.118 10.6048 63.4859 10.2085 63.9604 9.92436C64.4376 9.64027 64.9973 9.49822 65.6393 9.49822C66.0712 9.49822 66.4731 9.56783 66.8453 9.70703C67.2203 9.84339 67.547 10.0494 67.8254 10.3249C68.1067 10.6005 68.3254 10.9471 68.4817 11.3647C68.6379 11.7795 68.716 12.2653 68.716 12.8221V13.3207H63.1891V12.1957H67.0072C67.0072 11.9343 66.9504 11.7028 66.8368 11.5011C66.7231 11.2994 66.5655 11.1417 66.3638 11.0281C66.1649 10.9116 65.9334 10.8533 65.6692 10.8533C65.3936 10.8533 65.1493 10.9173 64.9362 11.0451C64.726 11.1701 64.5612 11.3391 64.4419 11.5522C64.3226 11.7624 64.2615 11.9968 64.2587 12.2553V13.3249C64.2587 13.6488 64.3183 13.9286 64.4376 14.1644C64.5598 14.4002 64.7317 14.582 64.9533 14.7099C65.1748 14.8377 65.4376 14.9016 65.7416 14.9016C65.9433 14.9016 66.128 14.8732 66.2956 14.8164C66.4632 14.7596 66.6067 14.6744 66.726 14.5607C66.8453 14.4471 66.9362 14.3079 66.9987 14.1431L68.6777 14.2539C68.5925 14.6573 68.4177 15.0096 68.1535 15.3107C67.8922 15.609 67.5541 15.842 67.1393 16.0096C66.7274 16.1744 66.2516 16.2567 65.7118 16.2567ZM71.716 7.40163V16.1289H69.9007V7.40163H71.716Z" fill="black"/>
<rect x="0.751465" y="137.723" width="14" height="12" fill="#3E3E3E" stroke="white"/>
<rect x="15.7515" y="137.723" width="14" height="12" fill="#3E3E3E" stroke="white"/>
<rect x="30.7515" y="137.723" width="14" height="12" fill="#3E3E3E" stroke="white"/>
<rect x="45.7515" y="137.723" width="14" height="12" fill="#3E3E3E" stroke="white"/>
<rect x="60.7515" y="137.723" width="14" height="12" fill="#3E3E3E" stroke="white"/>
<rect x="75.7515" y="137.723" width="14" height="12" fill="#3E3E3E" stroke="white"/>
<rect x="0.251465" y="151.34" width="105.497" height="25.7881" fill="#B1B1B1"/>
<path d="M37.3928 158.779C37.3587 158.435 37.2124 158.168 36.9539 157.978C36.6954 157.787 36.3445 157.692 35.9013 157.692C35.6002 157.692 35.3459 157.735 35.1385 157.82C34.9312 157.902 34.7721 158.017 34.6613 158.165C34.5533 158.313 34.4993 158.48 34.4993 158.668C34.4937 158.824 34.5263 158.961 34.5973 159.077C34.6712 159.194 34.7721 159.294 34.8999 159.38C35.0277 159.462 35.1755 159.534 35.3431 159.597C35.5107 159.657 35.6897 159.708 35.88 159.75L36.6641 159.938C37.0448 160.023 37.3942 160.137 37.7124 160.279C38.0306 160.421 38.3062 160.596 38.5391 160.803C38.7721 161.01 38.9525 161.255 39.0803 161.536C39.211 161.817 39.2777 162.14 39.2806 162.503C39.2777 163.037 39.1414 163.5 38.8715 163.892C38.6044 164.282 38.2181 164.584 37.7124 164.8C37.2096 165.013 36.603 165.12 35.8928 165.12C35.1883 165.12 34.5746 165.012 34.0519 164.796C33.532 164.58 33.1258 164.26 32.8331 163.837C32.5434 163.411 32.3914 162.884 32.3772 162.256H34.1627C34.1826 162.549 34.2664 162.793 34.4141 162.989C34.5647 163.182 34.765 163.328 35.015 163.428C35.2678 163.525 35.5533 163.573 35.8715 163.573C36.184 163.573 36.4553 163.527 36.6854 163.436C36.9184 163.346 37.0988 163.219 37.2266 163.057C37.3544 162.895 37.4184 162.709 37.4184 162.499C37.4184 162.303 37.3601 162.138 37.2437 162.005C37.13 161.871 36.9624 161.757 36.7408 161.664C36.5221 161.57 36.2536 161.485 35.9354 161.408L34.9851 161.169C34.2493 160.99 33.6684 160.711 33.2422 160.33C32.8161 159.949 32.6044 159.436 32.6073 158.792C32.6044 158.263 32.7451 157.801 33.0292 157.407C33.3161 157.012 33.7096 156.703 34.2096 156.482C34.7096 156.26 35.2777 156.15 35.9141 156.15C36.5618 156.15 37.1272 156.26 37.6101 156.482C38.0959 156.703 38.4738 157.012 38.7437 157.407C39.0135 157.801 39.1527 158.259 39.1613 158.779H37.3928ZM42.3541 165.12C41.9365 165.12 41.5643 165.047 41.2376 164.902C40.9109 164.755 40.6524 164.537 40.462 164.25C40.2745 163.961 40.1808 163.6 40.1808 163.168C40.1808 162.804 40.2476 162.499 40.3811 162.252C40.5146 162.005 40.6964 161.806 40.9265 161.655C41.1566 161.505 41.418 161.391 41.7106 161.314C42.0061 161.238 42.3157 161.184 42.6396 161.152C43.0203 161.113 43.3271 161.076 43.5601 161.042C43.793 161.005 43.962 160.951 44.0672 160.88C44.1723 160.809 44.2248 160.703 44.2248 160.564V160.539C44.2248 160.269 44.1396 160.06 43.9691 159.912C43.8015 159.765 43.5629 159.691 43.2532 159.691C42.9265 159.691 42.6666 159.763 42.4734 159.908C42.2802 160.05 42.1524 160.229 42.0899 160.445L40.4109 160.309C40.4961 159.911 40.6638 159.567 40.9138 159.277C41.1638 158.985 41.4862 158.76 41.8811 158.604C42.2788 158.445 42.739 158.365 43.2618 158.365C43.6254 158.365 43.9734 158.408 44.3058 158.493C44.641 158.578 44.9379 158.711 45.1964 158.89C45.4578 159.069 45.6638 159.299 45.8143 159.58C45.9649 159.858 46.0402 160.192 46.0402 160.581V164.996H44.3186V164.088H44.2674C44.1623 164.293 44.0217 164.473 43.8456 164.63C43.6694 164.783 43.4578 164.904 43.2106 164.992C42.9635 165.077 42.678 165.12 42.3541 165.12ZM42.874 163.867C43.141 163.867 43.3768 163.814 43.5814 163.709C43.7859 163.601 43.9464 163.456 44.0629 163.275C44.1794 163.093 44.2376 162.887 44.2376 162.657V161.962C44.1808 161.999 44.1027 162.033 44.0032 162.064C43.9066 162.093 43.7973 162.12 43.6751 162.145C43.553 162.168 43.4308 162.189 43.3086 162.209C43.1865 162.226 43.0757 162.242 42.9763 162.256C42.7632 162.287 42.5771 162.337 42.418 162.405C42.2589 162.473 42.1353 162.566 42.0473 162.682C41.9592 162.796 41.9152 162.938 41.9152 163.108C41.9152 163.355 42.0047 163.544 42.1836 163.675C42.3655 163.803 42.5956 163.867 42.874 163.867ZM50.9684 158.451V159.814H46.9287V158.451H50.9684ZM47.8534 164.996V157.978C47.8534 157.503 47.9457 157.11 48.1304 156.797C48.3179 156.485 48.5736 156.25 48.8974 156.094C49.2213 155.938 49.5892 155.86 50.0011 155.86C50.2795 155.86 50.5338 155.881 50.7639 155.924C50.9968 155.966 51.1701 156.005 51.2838 156.039L50.9599 157.402C50.8889 157.38 50.8008 157.358 50.6957 157.338C50.5934 157.319 50.4883 157.309 50.3804 157.309C50.1133 157.309 49.9272 157.371 49.8221 157.496C49.717 157.618 49.6645 157.79 49.6645 158.012V164.996H47.8534ZM53.7096 165.12C53.2919 165.12 52.9198 165.047 52.5931 164.902C52.2664 164.755 52.0079 164.537 51.8175 164.25C51.63 163.961 51.5363 163.6 51.5363 163.168C51.5363 162.804 51.603 162.499 51.7366 162.252C51.8701 162.005 52.0519 161.806 52.282 161.655C52.5121 161.505 52.7735 161.391 53.0661 161.314C53.3616 161.238 53.6712 161.184 53.9951 161.152C54.3758 161.113 54.6826 161.076 54.9155 161.042C55.1485 161.005 55.3175 160.951 55.4226 160.88C55.5277 160.809 55.5803 160.703 55.5803 160.564V160.539C55.5803 160.269 55.4951 160.06 55.3246 159.912C55.157 159.765 54.9184 159.691 54.6087 159.691C54.282 159.691 54.0221 159.763 53.8289 159.908C53.6357 160.05 53.5079 160.229 53.4454 160.445L51.7664 160.309C51.8516 159.911 52.0192 159.567 52.2692 159.277C52.5192 158.985 52.8417 158.76 53.2366 158.604C53.6343 158.445 54.0945 158.365 54.6172 158.365C54.9809 158.365 55.3289 158.408 55.6613 158.493C55.9965 158.578 56.2934 158.711 56.5519 158.89C56.8133 159.069 57.0192 159.299 57.1698 159.58C57.3204 159.858 57.3956 160.192 57.3956 160.581V164.996H55.6741V164.088H55.6229C55.5178 164.293 55.3772 164.473 55.201 164.63C55.0249 164.783 54.8133 164.904 54.5661 164.992C54.3189 165.077 54.0334 165.12 53.7096 165.12ZM54.2294 163.867C54.4965 163.867 54.7323 163.814 54.9368 163.709C55.1414 163.601 55.3019 163.456 55.4184 163.275C55.5348 163.093 55.5931 162.887 55.5931 162.657V161.962C55.5363 161.999 55.4581 162.033 55.3587 162.064C55.2621 162.093 55.1527 162.12 55.0306 162.145C54.9084 162.168 54.7863 162.189 54.6641 162.209C54.5419 162.226 54.4312 162.242 54.3317 162.256C54.1187 162.287 53.9326 162.337 53.7735 162.405C53.6144 162.473 53.4908 162.566 53.4027 162.682C53.3147 162.796 53.2706 162.938 53.2706 163.108C53.2706 163.355 53.3601 163.544 53.5391 163.675C53.7209 163.803 53.951 163.867 54.2294 163.867ZM58.804 164.996V158.451H60.564V159.593H60.6321C60.7515 159.186 60.9517 158.88 61.233 158.672C61.5142 158.462 61.8381 158.357 62.2046 158.357C62.2955 158.357 62.3935 158.363 62.4986 158.374C62.6037 158.385 62.6961 158.401 62.7756 158.421V160.032C62.6904 160.006 62.5725 159.983 62.4219 159.963C62.2714 159.944 62.1336 159.934 62.0086 159.934C61.7415 159.934 61.5029 159.992 61.2927 160.108C61.0853 160.222 60.9205 160.381 60.7983 160.586C60.679 160.79 60.6194 161.026 60.6194 161.293V164.996H58.804ZM63.7142 164.996V158.451H65.5295V164.996H63.7142ZM64.6261 157.607C64.3562 157.607 64.1247 157.517 63.9315 157.338C63.7412 157.157 63.646 156.939 63.646 156.686C63.646 156.436 63.7412 156.222 63.9315 156.043C64.1247 155.861 64.3562 155.77 64.6261 155.77C64.896 155.77 65.1261 155.861 65.3165 156.043C65.5096 156.222 65.6062 156.436 65.6062 156.686C65.6062 156.939 65.5096 157.157 65.3165 157.338C65.1261 157.517 64.896 157.607 64.6261 157.607Z" fill="black"/>
</svg>
