<svg width="333" height="193" viewBox="0 0 333 193" fill="none" xmlns="http://www.w3.org/2000/svg">
<path d="M9.73828 15.8945H9.92578V17.7344H9.73828C8.58984 17.7344 7.62891 17.9219 6.85547 18.2969C6.08203 18.6641 5.46875 19.1602 5.01562 19.7852C4.5625 20.4023 4.23438 21.0977 4.03125 21.8711C3.83594 22.6445 3.73828 23.4297 3.73828 24.2266V26.7344C3.73828 27.4922 3.82812 28.1641 4.00781 28.75C4.1875 29.3281 4.43359 29.8164 4.74609 30.2148C5.05859 30.6133 5.41016 30.9141 5.80078 31.1172C6.19922 31.3203 6.61328 31.4219 7.04297 31.4219C7.54297 31.4219 7.98828 31.3281 8.37891 31.1406C8.76953 30.9453 9.09766 30.6758 9.36328 30.332C9.63672 29.9805 9.84375 29.5664 9.98438 29.0898C10.125 28.6133 10.1953 28.0898 10.1953 27.5195C10.1953 27.0117 10.1328 26.5234 10.0078 26.0547C9.88281 25.5781 9.69141 25.1562 9.43359 24.7891C9.17578 24.4141 8.85156 24.1211 8.46094 23.9102C8.07812 23.6914 7.62109 23.582 7.08984 23.582C6.48828 23.582 5.92578 23.7305 5.40234 24.0273C4.88672 24.3164 4.46094 24.6992 4.125 25.1758C3.79688 25.6445 3.60938 26.1562 3.5625 26.7109L2.41406 26.6992C2.52344 25.8242 2.72656 25.0781 3.02344 24.4609C3.32812 23.8359 3.70312 23.3281 4.14844 22.9375C4.60156 22.5391 5.10547 22.25 5.66016 22.0703C6.22266 21.8828 6.81641 21.7891 7.44141 21.7891C8.29297 21.7891 9.02734 21.9492 9.64453 22.2695C10.2617 22.5898 10.7695 23.0195 11.168 23.5586C11.5664 24.0898 11.8594 24.6914 12.0469 25.3633C12.2422 26.0273 12.3398 26.7109 12.3398 27.4141C12.3398 28.2188 12.2266 28.9727 12 29.6758C11.7734 30.3789 11.4336 30.9961 10.9805 31.5273C10.5352 32.0586 9.98438 32.4727 9.32812 32.7695C8.67188 33.0664 7.91016 33.2148 7.04297 33.2148C6.12109 33.2148 5.31641 33.0273 4.62891 32.6523C3.94141 32.2695 3.37109 31.7617 2.91797 31.1289C2.46484 30.4961 2.125 29.793 1.89844 29.0195C1.67188 28.2461 1.55859 27.4609 1.55859 26.6641V25.6445C1.55859 24.4414 1.67969 23.2617 1.92188 22.1055C2.16406 20.9492 2.58203 19.9023 3.17578 18.9648C3.77734 18.0273 4.60938 17.2812 5.67188 16.7266C6.73438 16.1719 8.08984 15.8945 9.73828 15.8945ZM25.6289 23.0898V25.6914C25.6289 27.0898 25.5039 28.2695 25.2539 29.2305C25.0039 30.1914 24.6445 30.9648 24.1758 31.5508C23.707 32.1367 23.1406 32.5625 22.4766 32.8281C21.8203 33.0859 21.0781 33.2148 20.25 33.2148C19.5938 33.2148 18.9883 33.1328 18.4336 32.9688C17.8789 32.8047 17.3789 32.543 16.9336 32.1836C16.4961 31.8164 16.1211 31.3398 15.8086 30.7539C15.4961 30.168 15.2578 29.457 15.0938 28.6211C14.9297 27.7852 14.8477 26.8086 14.8477 25.6914V23.0898C14.8477 21.6914 14.9727 20.5195 15.2227 19.5742C15.4805 18.6289 15.8438 17.8711 16.3125 17.3008C16.7812 16.7227 17.3438 16.3086 18 16.0586C18.6641 15.8086 19.4062 15.6836 20.2266 15.6836C20.8906 15.6836 21.5 15.7656 22.0547 15.9297C22.6172 16.0859 23.1172 16.3398 23.5547 16.6914C23.9922 17.0352 24.3633 17.4961 24.668 18.0742C24.9805 18.6445 25.2188 19.3438 25.3828 20.1719C25.5469 21 25.6289 21.9727 25.6289 23.0898ZM23.4492 26.043V22.7266C23.4492 21.9609 23.4023 21.2891 23.3086 20.7109C23.2227 20.125 23.0938 19.625 22.9219 19.2109C22.75 18.7969 22.5312 18.4609 22.2656 18.2031C22.0078 17.9453 21.707 17.7578 21.3633 17.6406C21.0273 17.5156 20.6484 17.4531 20.2266 17.4531C19.7109 17.4531 19.2539 17.5508 18.8555 17.7461C18.457 17.9336 18.1211 18.2344 17.8477 18.6484C17.582 19.0625 17.3789 19.6055 17.2383 20.2773C17.0977 20.9492 17.0273 21.7656 17.0273 22.7266V26.043C17.0273 26.8086 17.0703 27.4844 17.1562 28.0703C17.25 28.6562 17.3867 29.1641 17.5664 29.5938C17.7461 30.0156 17.9648 30.3633 18.2227 30.6367C18.4805 30.9102 18.7773 31.1133 19.1133 31.2461C19.457 31.3711 19.8359 31.4336 20.25 31.4336C20.7812 31.4336 21.2461 31.332 21.6445 31.1289C22.043 30.9258 22.375 30.6094 22.6406 30.1797C22.9141 29.7422 23.1172 29.1836 23.25 28.5039C23.3828 27.8164 23.4492 26.9961 23.4492 26.043ZM28.2305 20.1016V19.1992C28.2305 18.5508 28.3711 17.9609 28.6523 17.4297C28.9336 16.8984 29.3359 16.4727 29.8594 16.1523C30.3828 15.832 31.0039 15.6719 31.7227 15.6719C32.457 15.6719 33.082 15.832 33.5977 16.1523C34.1211 16.4727 34.5234 16.8984 34.8047 17.4297C35.0859 17.9609 35.2266 18.5508 35.2266 19.1992V20.1016C35.2266 20.7344 35.0859 21.3164 34.8047 21.8477C34.5312 22.3789 34.1328 22.8047 33.6094 23.125C33.0938 23.4453 32.4727 23.6055 31.7461 23.6055C31.0195 23.6055 30.3906 23.4453 29.8594 23.125C29.3359 22.8047 28.9336 22.3789 28.6523 21.8477C28.3711 21.3164 28.2305 20.7344 28.2305 20.1016ZM29.8594 19.1992V20.1016C29.8594 20.4609 29.9258 20.8008 30.0586 21.1211C30.1992 21.4414 30.4102 21.7031 30.6914 21.9062C30.9727 22.1016 31.3242 22.1992 31.7461 22.1992C32.168 22.1992 32.5156 22.1016 32.7891 21.9062C33.0625 21.7031 33.2656 21.4414 33.3984 21.1211C33.5312 20.8008 33.5977 20.4609 33.5977 20.1016V19.1992C33.5977 18.832 33.5273 18.4883 33.3867 18.168C33.2539 17.8398 33.0469 17.5781 32.7656 17.3828C32.4922 17.1797 32.1445 17.0781 31.7227 17.0781C31.3086 17.0781 30.9609 17.1797 30.6797 17.3828C30.4062 17.5781 30.1992 17.8398 30.0586 18.168C29.9258 18.4883 29.8594 18.832 29.8594 19.1992ZM36.5391 29.7109V28.7969C36.5391 28.1562 36.6797 27.5703 36.9609 27.0391C37.2422 26.5078 37.6445 26.082 38.168 25.7617C38.6914 25.4414 39.3125 25.2812 40.0312 25.2812C40.7656 25.2812 41.3906 25.4414 41.9062 25.7617C42.4297 26.082 42.832 26.5078 43.1133 27.0391C43.3945 27.5703 43.5352 28.1562 43.5352 28.7969V29.7109C43.5352 30.3516 43.3945 30.9375 43.1133 31.4688C42.8398 32 42.4414 32.4258 41.918 32.7461C41.4023 33.0664 40.7812 33.2266 40.0547 33.2266C39.3281 33.2266 38.7031 33.0664 38.1797 32.7461C37.6562 32.4258 37.25 32 36.9609 31.4688C36.6797 30.9375 36.5391 30.3516 36.5391 29.7109ZM38.168 28.7969V29.7109C38.168 30.0703 38.2344 30.4141 38.3672 30.7422C38.5078 31.0625 38.7188 31.3242 39 31.5273C39.2812 31.7227 39.6328 31.8203 40.0547 31.8203C40.4766 31.8203 40.8242 31.7227 41.0977 31.5273C41.3789 31.3242 41.5859 31.0625 41.7188 30.7422C41.8516 30.4219 41.918 30.0781 41.918 29.7109V28.7969C41.918 28.4297 41.8477 28.0859 41.707 27.7656C41.5742 27.4453 41.3672 27.1875 41.0859 26.9922C40.8125 26.7891 40.4609 26.6875 40.0312 26.6875C39.6172 26.6875 39.2695 26.7891 38.9883 26.9922C38.7148 27.1875 38.5078 27.4453 38.3672 27.7656C38.2344 28.0859 38.168 28.4297 38.168 28.7969ZM40.5703 18.3438L32.2383 31.6797L31.0195 30.9062L39.3516 17.5703L40.5703 18.3438Z" fill="#081704"/>
<circle cx="93" cy="24.9805" r="23.5" fill="white" stroke="black"/>
<circle cx="165" cy="24.9805" r="24" fill="#E2E2F0"/>
<path d="M4.58203 95.3828H6.12891C6.88672 95.3828 7.51172 95.2578 8.00391 95.0078C8.50391 94.75 8.875 94.4023 9.11719 93.9648C9.36719 93.5195 9.49219 93.0195 9.49219 92.4648C9.49219 91.8086 9.38281 91.2578 9.16406 90.8125C8.94531 90.3672 8.61719 90.0312 8.17969 89.8047C7.74219 89.5781 7.1875 89.4648 6.51562 89.4648C5.90625 89.4648 5.36719 89.5859 4.89844 89.8281C4.4375 90.0625 4.07422 90.3984 3.80859 90.8359C3.55078 91.2734 3.42188 91.7891 3.42188 92.3828H1.25391C1.25391 91.5156 1.47266 90.7266 1.91016 90.0156C2.34766 89.3047 2.96094 88.7383 3.75 88.3164C4.54688 87.8945 5.46875 87.6836 6.51562 87.6836C7.54688 87.6836 8.44922 87.8672 9.22266 88.2344C9.99609 88.5938 10.5977 89.1328 11.0273 89.8516C11.457 90.5625 11.6719 91.4492 11.6719 92.5117C11.6719 92.9414 11.5703 93.4023 11.3672 93.8945C11.1719 94.3789 10.8633 94.832 10.4414 95.2539C10.0273 95.6758 9.48828 96.0234 8.82422 96.2969C8.16016 96.5625 7.36328 96.6953 6.43359 96.6953H4.58203V95.3828ZM4.58203 97.1641V95.8633H6.43359C7.51953 95.8633 8.41797 95.9922 9.12891 96.25C9.83984 96.5078 10.3984 96.8516 10.8047 97.2812C11.2188 97.7109 11.5078 98.1836 11.6719 98.6992C11.8438 99.207 11.9297 99.7148 11.9297 100.223C11.9297 101.02 11.793 101.727 11.5195 102.344C11.2539 102.961 10.875 103.484 10.3828 103.914C9.89844 104.344 9.32812 104.668 8.67188 104.887C8.01562 105.105 7.30078 105.215 6.52734 105.215C5.78516 105.215 5.08594 105.109 4.42969 104.898C3.78125 104.688 3.20703 104.383 2.70703 103.984C2.20703 103.578 1.81641 103.082 1.53516 102.496C1.25391 101.902 1.11328 101.227 1.11328 100.469H3.28125C3.28125 101.062 3.41016 101.582 3.66797 102.027C3.93359 102.473 4.30859 102.82 4.79297 103.07C5.28516 103.312 5.86328 103.434 6.52734 103.434C7.19141 103.434 7.76172 103.32 8.23828 103.094C8.72266 102.859 9.09375 102.508 9.35156 102.039C9.61719 101.57 9.75 100.98 9.75 100.27C9.75 99.5586 9.60156 98.9766 9.30469 98.5234C9.00781 98.0625 8.58594 97.7227 8.03906 97.5039C7.5 97.2773 6.86328 97.1641 6.12891 97.1641H4.58203ZM25.6289 95.0898V97.6914C25.6289 99.0898 25.5039 100.27 25.2539 101.23C25.0039 102.191 24.6445 102.965 24.1758 103.551C23.707 104.137 23.1406 104.562 22.4766 104.828C21.8203 105.086 21.0781 105.215 20.25 105.215C19.5938 105.215 18.9883 105.133 18.4336 104.969C17.8789 104.805 17.3789 104.543 16.9336 104.184C16.4961 103.816 16.1211 103.34 15.8086 102.754C15.4961 102.168 15.2578 101.457 15.0938 100.621C14.9297 99.7852 14.8477 98.8086 14.8477 97.6914V95.0898C14.8477 93.6914 14.9727 92.5195 15.2227 91.5742C15.4805 90.6289 15.8438 89.8711 16.3125 89.3008C16.7812 88.7227 17.3438 88.3086 18 88.0586C18.6641 87.8086 19.4062 87.6836 20.2266 87.6836C20.8906 87.6836 21.5 87.7656 22.0547 87.9297C22.6172 88.0859 23.1172 88.3398 23.5547 88.6914C23.9922 89.0352 24.3633 89.4961 24.668 90.0742C24.9805 90.6445 25.2188 91.3438 25.3828 92.1719C25.5469 93 25.6289 93.9727 25.6289 95.0898ZM23.4492 98.043V94.7266C23.4492 93.9609 23.4023 93.2891 23.3086 92.7109C23.2227 92.125 23.0938 91.625 22.9219 91.2109C22.75 90.7969 22.5312 90.4609 22.2656 90.2031C22.0078 89.9453 21.707 89.7578 21.3633 89.6406C21.0273 89.5156 20.6484 89.4531 20.2266 89.4531C19.7109 89.4531 19.2539 89.5508 18.8555 89.7461C18.457 89.9336 18.1211 90.2344 17.8477 90.6484C17.582 91.0625 17.3789 91.6055 17.2383 92.2773C17.0977 92.9492 17.0273 93.7656 17.0273 94.7266V98.043C17.0273 98.8086 17.0703 99.4844 17.1562 100.07C17.25 100.656 17.3867 101.164 17.5664 101.594C17.7461 102.016 17.9648 102.363 18.2227 102.637C18.4805 102.91 18.7773 103.113 19.1133 103.246C19.457 103.371 19.8359 103.434 20.25 103.434C20.7812 103.434 21.2461 103.332 21.6445 103.129C22.043 102.926 22.375 102.609 22.6406 102.18C22.9141 101.742 23.1172 101.184 23.25 100.504C23.3828 99.8164 23.4492 98.9961 23.4492 98.043ZM28.2305 92.1016V91.1992C28.2305 90.5508 28.3711 89.9609 28.6523 89.4297C28.9336 88.8984 29.3359 88.4727 29.8594 88.1523C30.3828 87.832 31.0039 87.6719 31.7227 87.6719C32.457 87.6719 33.082 87.832 33.5977 88.1523C34.1211 88.4727 34.5234 88.8984 34.8047 89.4297C35.0859 89.9609 35.2266 90.5508 35.2266 91.1992V92.1016C35.2266 92.7344 35.0859 93.3164 34.8047 93.8477C34.5312 94.3789 34.1328 94.8047 33.6094 95.125C33.0938 95.4453 32.4727 95.6055 31.7461 95.6055C31.0195 95.6055 30.3906 95.4453 29.8594 95.125C29.3359 94.8047 28.9336 94.3789 28.6523 93.8477C28.3711 93.3164 28.2305 92.7344 28.2305 92.1016ZM29.8594 91.1992V92.1016C29.8594 92.4609 29.9258 92.8008 30.0586 93.1211C30.1992 93.4414 30.4102 93.7031 30.6914 93.9062C30.9727 94.1016 31.3242 94.1992 31.7461 94.1992C32.168 94.1992 32.5156 94.1016 32.7891 93.9062C33.0625 93.7031 33.2656 93.4414 33.3984 93.1211C33.5312 92.8008 33.5977 92.4609 33.5977 92.1016V91.1992C33.5977 90.832 33.5273 90.4883 33.3867 90.168C33.2539 89.8398 33.0469 89.5781 32.7656 89.3828C32.4922 89.1797 32.1445 89.0781 31.7227 89.0781C31.3086 89.0781 30.9609 89.1797 30.6797 89.3828C30.4062 89.5781 30.1992 89.8398 30.0586 90.168C29.9258 90.4883 29.8594 90.832 29.8594 91.1992ZM36.5391 101.711V100.797C36.5391 100.156 36.6797 99.5703 36.9609 99.0391C37.2422 98.5078 37.6445 98.082 38.168 97.7617C38.6914 97.4414 39.3125 97.2812 40.0312 97.2812C40.7656 97.2812 41.3906 97.4414 41.9062 97.7617C42.4297 98.082 42.832 98.5078 43.1133 99.0391C43.3945 99.5703 43.5352 100.156 43.5352 100.797V101.711C43.5352 102.352 43.3945 102.938 43.1133 103.469C42.8398 104 42.4414 104.426 41.918 104.746C41.4023 105.066 40.7812 105.227 40.0547 105.227C39.3281 105.227 38.7031 105.066 38.1797 104.746C37.6562 104.426 37.25 104 36.9609 103.469C36.6797 102.938 36.5391 102.352 36.5391 101.711ZM38.168 100.797V101.711C38.168 102.07 38.2344 102.414 38.3672 102.742C38.5078 103.062 38.7188 103.324 39 103.527C39.2812 103.723 39.6328 103.82 40.0547 103.82C40.4766 103.82 40.8242 103.723 41.0977 103.527C41.3789 103.324 41.5859 103.062 41.7188 102.742C41.8516 102.422 41.918 102.078 41.918 101.711V100.797C41.918 100.43 41.8477 100.086 41.707 99.7656C41.5742 99.4453 41.3672 99.1875 41.0859 98.9922C40.8125 98.7891 40.4609 98.6875 40.0312 98.6875C39.6172 98.6875 39.2695 98.7891 38.9883 98.9922C38.7148 99.1875 38.5078 99.4453 38.3672 99.7656C38.2344 100.086 38.168 100.43 38.168 100.797ZM40.5703 90.3438L32.2383 103.68L31.0195 102.906L39.3516 89.5703L40.5703 90.3438Z" fill="#081704"/>
<circle cx="93" cy="96.9805" r="24" fill="#282738"/>
<circle cx="165" cy="96.9805" r="24" fill="#43425D"/>
<circle cx="237" cy="96.9805" r="24" fill="#797CAE"/>
<circle cx="309" cy="96.9805" r="24" fill="#A2A5D6"/>
<path d="M8.54297 159.824V176.98H6.375V162.531L2.00391 164.125V162.168L8.20312 159.824H8.54297ZM25.6289 167.09V169.691C25.6289 171.09 25.5039 172.27 25.2539 173.23C25.0039 174.191 24.6445 174.965 24.1758 175.551C23.707 176.137 23.1406 176.562 22.4766 176.828C21.8203 177.086 21.0781 177.215 20.25 177.215C19.5938 177.215 18.9883 177.133 18.4336 176.969C17.8789 176.805 17.3789 176.543 16.9336 176.184C16.4961 175.816 16.1211 175.34 15.8086 174.754C15.4961 174.168 15.2578 173.457 15.0938 172.621C14.9297 171.785 14.8477 170.809 14.8477 169.691V167.09C14.8477 165.691 14.9727 164.52 15.2227 163.574C15.4805 162.629 15.8438 161.871 16.3125 161.301C16.7812 160.723 17.3438 160.309 18 160.059C18.6641 159.809 19.4062 159.684 20.2266 159.684C20.8906 159.684 21.5 159.766 22.0547 159.93C22.6172 160.086 23.1172 160.34 23.5547 160.691C23.9922 161.035 24.3633 161.496 24.668 162.074C24.9805 162.645 25.2188 163.344 25.3828 164.172C25.5469 165 25.6289 165.973 25.6289 167.09ZM23.4492 170.043V166.727C23.4492 165.961 23.4023 165.289 23.3086 164.711C23.2227 164.125 23.0938 163.625 22.9219 163.211C22.75 162.797 22.5312 162.461 22.2656 162.203C22.0078 161.945 21.707 161.758 21.3633 161.641C21.0273 161.516 20.6484 161.453 20.2266 161.453C19.7109 161.453 19.2539 161.551 18.8555 161.746C18.457 161.934 18.1211 162.234 17.8477 162.648C17.582 163.062 17.3789 163.605 17.2383 164.277C17.0977 164.949 17.0273 165.766 17.0273 166.727V170.043C17.0273 170.809 17.0703 171.484 17.1562 172.07C17.25 172.656 17.3867 173.164 17.5664 173.594C17.7461 174.016 17.9648 174.363 18.2227 174.637C18.4805 174.91 18.7773 175.113 19.1133 175.246C19.457 175.371 19.8359 175.434 20.25 175.434C20.7812 175.434 21.2461 175.332 21.6445 175.129C22.043 174.926 22.375 174.609 22.6406 174.18C22.9141 173.742 23.1172 173.184 23.25 172.504C23.3828 171.816 23.4492 170.996 23.4492 170.043ZM28.2305 164.102V163.199C28.2305 162.551 28.3711 161.961 28.6523 161.43C28.9336 160.898 29.3359 160.473 29.8594 160.152C30.3828 159.832 31.0039 159.672 31.7227 159.672C32.457 159.672 33.082 159.832 33.5977 160.152C34.1211 160.473 34.5234 160.898 34.8047 161.43C35.0859 161.961 35.2266 162.551 35.2266 163.199V164.102C35.2266 164.734 35.0859 165.316 34.8047 165.848C34.5312 166.379 34.1328 166.805 33.6094 167.125C33.0938 167.445 32.4727 167.605 31.7461 167.605C31.0195 167.605 30.3906 167.445 29.8594 167.125C29.3359 166.805 28.9336 166.379 28.6523 165.848C28.3711 165.316 28.2305 164.734 28.2305 164.102ZM29.8594 163.199V164.102C29.8594 164.461 29.9258 164.801 30.0586 165.121C30.1992 165.441 30.4102 165.703 30.6914 165.906C30.9727 166.102 31.3242 166.199 31.7461 166.199C32.168 166.199 32.5156 166.102 32.7891 165.906C33.0625 165.703 33.2656 165.441 33.3984 165.121C33.5312 164.801 33.5977 164.461 33.5977 164.102V163.199C33.5977 162.832 33.5273 162.488 33.3867 162.168C33.2539 161.84 33.0469 161.578 32.7656 161.383C32.4922 161.18 32.1445 161.078 31.7227 161.078C31.3086 161.078 30.9609 161.18 30.6797 161.383C30.4062 161.578 30.1992 161.84 30.0586 162.168C29.9258 162.488 29.8594 162.832 29.8594 163.199ZM36.5391 173.711V172.797C36.5391 172.156 36.6797 171.57 36.9609 171.039C37.2422 170.508 37.6445 170.082 38.168 169.762C38.6914 169.441 39.3125 169.281 40.0312 169.281C40.7656 169.281 41.3906 169.441 41.9062 169.762C42.4297 170.082 42.832 170.508 43.1133 171.039C43.3945 171.57 43.5352 172.156 43.5352 172.797V173.711C43.5352 174.352 43.3945 174.938 43.1133 175.469C42.8398 176 42.4414 176.426 41.918 176.746C41.4023 177.066 40.7812 177.227 40.0547 177.227C39.3281 177.227 38.7031 177.066 38.1797 176.746C37.6562 176.426 37.25 176 36.9609 175.469C36.6797 174.938 36.5391 174.352 36.5391 173.711ZM38.168 172.797V173.711C38.168 174.07 38.2344 174.414 38.3672 174.742C38.5078 175.062 38.7188 175.324 39 175.527C39.2812 175.723 39.6328 175.82 40.0547 175.82C40.4766 175.82 40.8242 175.723 41.0977 175.527C41.3789 175.324 41.5859 175.062 41.7188 174.742C41.8516 174.422 41.918 174.078 41.918 173.711V172.797C41.918 172.43 41.8477 172.086 41.707 171.766C41.5742 171.445 41.3672 171.188 41.0859 170.992C40.8125 170.789 40.4609 170.688 40.0312 170.688C39.6172 170.688 39.2695 170.789 38.9883 170.992C38.7148 171.188 38.5078 171.445 38.3672 171.766C38.2344 172.086 38.168 172.43 38.168 172.797ZM40.5703 162.344L32.2383 175.68L31.0195 174.906L39.3516 161.57L40.5703 162.344Z" fill="#081704"/>
<circle cx="93" cy="168.98" r="24" fill="#C92364"/>
<circle cx="165" cy="168.98" r="24" fill="#B40047"/>
<circle cx="237" cy="168.98" r="24" fill="#ECC387"/>
</svg>
