<svg width="231" height="178" viewBox="0 0 231 178" fill="none" xmlns="http://www.w3.org/2000/svg">
<rect y="4.82812" width="106" height="171.956" fill="#D9D9D9"/>
<rect y="0.472656" width="106" height="22" fill="#AEAEAE"/>
<path d="M31.5043 7.74538V16.4727H29.6591V9.4968H29.608L27.6094 10.7496V9.11328L29.7699 7.74538H31.5043ZM39.0415 11.7937L37.3796 11.896C37.3512 11.7539 37.2901 11.6261 37.1964 11.5124C37.1026 11.396 36.979 11.3036 36.8256 11.2354C36.6751 11.1644 36.4947 11.1289 36.2844 11.1289C36.0032 11.1289 35.766 11.1886 35.5728 11.3079C35.3796 11.4244 35.283 11.5806 35.283 11.7766C35.283 11.9329 35.3455 12.065 35.4705 12.1729C35.5955 12.2809 35.81 12.3675 36.114 12.4329L37.2987 12.6715C37.935 12.8022 38.4094 13.0124 38.7219 13.3022C39.0344 13.592 39.1907 13.9727 39.1907 14.4442C39.1907 14.8732 39.0643 15.2496 38.8114 15.5735C38.5614 15.8974 38.2177 16.1502 37.7802 16.332C37.3455 16.511 36.8441 16.6005 36.2759 16.6005C35.4094 16.6005 34.7191 16.4201 34.2049 16.0593C33.6935 15.6957 33.3938 15.2013 33.3058 14.5763L35.0913 14.4826C35.1452 14.7468 35.2759 14.9485 35.4833 15.0877C35.6907 15.2241 35.9563 15.2923 36.2802 15.2923C36.5984 15.2923 36.854 15.2312 37.0472 15.109C37.2433 14.984 37.3427 14.8235 37.3455 14.6275C37.3427 14.4627 37.2731 14.3278 37.1367 14.2227C37.0004 14.1147 36.7901 14.0323 36.506 13.9755L35.3725 13.7496C34.7333 13.6218 34.2575 13.4002 33.945 13.0849C33.6353 12.7695 33.4805 12.3675 33.4805 11.8789C33.4805 11.4585 33.5941 11.0962 33.8214 10.7923C34.0515 10.4883 34.3739 10.2539 34.7887 10.0891C35.2063 9.92436 35.695 9.84197 36.2546 9.84197C37.0813 9.84197 37.7319 10.0167 38.2063 10.3661C38.6836 10.7156 38.962 11.1914 39.0415 11.7937ZM43.8153 9.9272V11.2908H39.8736V9.9272H43.8153ZM40.7685 8.35902H42.5838V14.4613C42.5838 14.6289 42.6094 14.7596 42.6605 14.8533C42.7116 14.9442 42.7827 15.0082 42.8736 15.0451C42.9673 15.082 43.0753 15.1005 43.1974 15.1005C43.2827 15.1005 43.3679 15.0934 43.4531 15.0792C43.5384 15.0621 43.6037 15.0494 43.6491 15.0408L43.9347 16.3917C43.8438 16.4201 43.7159 16.4528 43.5511 16.4897C43.3864 16.5295 43.1861 16.5536 42.9503 16.5621C42.5128 16.5792 42.1293 16.521 41.7997 16.3874C41.473 16.2539 41.2188 16.0465 41.0369 15.7653C40.8551 15.484 40.7656 15.1289 40.7685 14.6999V8.35902ZM49.5906 7.74538V16.4727H47.7752V7.74538H49.5906ZM54.0277 16.6005C53.3544 16.6005 52.7749 16.4641 52.2891 16.1914C51.8061 15.9158 51.4339 15.5266 51.1726 15.0238C50.9112 14.5181 50.7805 13.9201 50.7805 13.2298C50.7805 12.5565 50.9112 11.9656 51.1726 11.457C51.4339 10.9485 51.8018 10.5522 52.2763 10.2681C52.7536 9.98402 53.3132 9.84197 53.9553 9.84197C54.3871 9.84197 54.7891 9.91158 55.1612 10.0508C55.5362 10.1871 55.8629 10.3931 56.1413 10.6687C56.4226 10.9442 56.6413 11.2908 56.7976 11.7085C56.9538 12.1232 57.032 12.609 57.032 13.1658V13.6644H51.505V12.5394H55.3232C55.3232 12.2781 55.2663 12.0465 55.1527 11.8448C55.0391 11.6431 54.8814 11.4854 54.6797 11.3718C54.4808 11.2553 54.2493 11.1971 53.9851 11.1971C53.7095 11.1971 53.4652 11.261 53.2521 11.3888C53.0419 11.5138 52.8771 11.6829 52.7578 11.896C52.6385 12.1062 52.5774 12.3406 52.5746 12.5991V13.6687C52.5746 13.9925 52.6342 14.2724 52.7536 14.5082C52.8757 14.744 53.0476 14.9258 53.2692 15.0536C53.4908 15.1815 53.7536 15.2454 54.0575 15.2454C54.2592 15.2454 54.4439 15.217 54.6115 15.1602C54.7791 15.1033 54.9226 15.0181 55.0419 14.9045C55.1612 14.7908 55.2521 14.6516 55.3146 14.4869L56.9936 14.5977C56.9084 15.0011 56.7337 15.3533 56.4695 15.6545C56.2081 15.9528 55.87 16.1857 55.4553 16.3533C55.0433 16.5181 54.5675 16.6005 54.0277 16.6005ZM64.1431 9.9272L61.8548 16.4727H59.8093L57.521 9.9272H59.4386L60.7979 14.6104H60.8661L62.2212 9.9272H64.1431ZM67.8441 16.6005C67.1708 16.6005 66.5913 16.4641 66.1055 16.1914C65.6225 15.9158 65.2504 15.5266 64.989 15.0238C64.7276 14.5181 64.5969 13.9201 64.5969 13.2298C64.5969 12.5565 64.7276 11.9656 64.989 11.457C65.2504 10.9485 65.6183 10.5522 66.0927 10.2681C66.57 9.98402 67.1296 9.84197 67.7717 9.84197C68.2035 9.84197 68.6055 9.91158 68.9776 10.0508C69.3526 10.1871 69.6793 10.3931 69.9577 10.6687C70.239 10.9442 70.4577 11.2908 70.614 11.7085C70.7702 12.1232 70.8484 12.609 70.8484 13.1658V13.6644H65.3214V12.5394H69.1396C69.1396 12.2781 69.0827 12.0465 68.9691 11.8448C68.8555 11.6431 68.6978 11.4854 68.4961 11.3718C68.2972 11.2553 68.0657 11.1971 67.8015 11.1971C67.5259 11.1971 67.2816 11.261 67.0685 11.3888C66.8583 11.5138 66.6935 11.6829 66.5742 11.896C66.4549 12.1062 66.3938 12.3406 66.391 12.5991V13.6687C66.391 13.9925 66.4506 14.2724 66.57 14.5082C66.6921 14.744 66.864 14.9258 67.0856 15.0536C67.3072 15.1815 67.57 15.2454 67.8739 15.2454C68.0756 15.2454 68.2603 15.217 68.4279 15.1602C68.5955 15.1033 68.739 15.0181 68.8583 14.9045C68.9776 14.7908 69.0685 14.6516 69.131 14.4869L70.81 14.5977C70.7248 15.0011 70.5501 15.3533 70.2859 15.6545C70.0245 15.9528 69.6864 16.1857 69.2717 16.3533C68.8597 16.5181 68.3839 16.6005 67.8441 16.6005ZM73.8484 7.74538V16.4727H72.033V7.74538H73.8484Z" fill="black"/>
<rect x="7.06665" y="28.3828" width="17.6667" height="17.6667" fill="#676767"/>
<line x1="11.7778" y1="32.5938" x2="20.0223" y2="32.5938" stroke="white"/>
<line x1="11.7778" y1="36.5938" x2="20.0223" y2="36.5938" stroke="white"/>
<line x1="11.7778" y1="40.5938" x2="20.0223" y2="40.5938" stroke="white"/>
<rect x="122" y="0.128906" width="109" height="177" fill="#D9D9D9"/>
<rect x="122" y="0.128906" width="109" height="22" fill="#AEAEAE"/>
<path d="M161.504 7.40163V16.1289H159.659V9.15305H159.608L157.609 10.4059V8.76953L159.77 7.40163H161.504ZM169.042 11.4499L167.38 11.5522C167.351 11.4102 167.29 11.2823 167.196 11.1687C167.103 11.0522 166.979 10.9599 166.826 10.8917C166.675 10.8207 166.495 10.7852 166.284 10.7852C166.003 10.7852 165.766 10.8448 165.573 10.9641C165.38 11.0806 165.283 11.2369 165.283 11.4329C165.283 11.5891 165.346 11.7212 165.471 11.8292C165.596 11.9371 165.81 12.0238 166.114 12.0891L167.299 12.3278C167.935 12.4585 168.409 12.6687 168.722 12.9585C169.034 13.2482 169.191 13.6289 169.191 14.1005C169.191 14.5295 169.064 14.9059 168.811 15.2298C168.561 15.5536 168.218 15.8065 167.78 15.9883C167.346 16.1673 166.844 16.2567 166.276 16.2567C165.409 16.2567 164.719 16.0763 164.205 15.7156C163.694 15.3519 163.394 14.8576 163.306 14.2326L165.091 14.1388C165.145 14.4031 165.276 14.6048 165.483 14.744C165.691 14.8803 165.956 14.9485 166.28 14.9485C166.598 14.9485 166.854 14.8874 167.047 14.7653C167.243 14.6403 167.343 14.4798 167.346 14.2837C167.343 14.119 167.273 13.984 167.137 13.8789C167 13.771 166.79 13.6886 166.506 13.6317L165.373 13.4059C164.733 13.2781 164.257 13.0565 163.945 12.7411C163.635 12.4258 163.48 12.0238 163.48 11.5352C163.48 11.1147 163.594 10.7525 163.821 10.4485C164.051 10.1445 164.374 9.91016 164.789 9.74538C165.206 9.58061 165.695 9.49822 166.255 9.49822C167.081 9.49822 167.732 9.67294 168.206 10.0224C168.684 10.3718 168.962 10.8477 169.042 11.4499ZM173.815 9.58345V10.9471H169.874V9.58345H173.815ZM170.768 8.01527H172.584V14.1175C172.584 14.2852 172.609 14.4158 172.661 14.5096C172.712 14.6005 172.783 14.6644 172.874 14.7013C172.967 14.7383 173.075 14.7567 173.197 14.7567C173.283 14.7567 173.368 14.7496 173.453 14.7354C173.538 14.7184 173.604 14.7056 173.649 14.6971L173.935 16.0479C173.844 16.0763 173.716 16.109 173.551 16.146C173.386 16.1857 173.186 16.2099 172.95 16.2184C172.513 16.2354 172.129 16.1772 171.8 16.0437C171.473 15.9102 171.219 15.7028 171.037 15.4215C170.855 15.1403 170.766 14.7852 170.768 14.3562V8.01527ZM179.591 7.40163V16.1289H177.775V7.40163H179.591ZM184.028 16.2567C183.354 16.2567 182.775 16.1204 182.289 15.8477C181.806 15.5721 181.434 15.1829 181.173 14.68C180.911 14.1744 180.781 13.5763 180.781 12.886C180.781 12.2127 180.911 11.6218 181.173 11.1133C181.434 10.6048 181.802 10.2085 182.276 9.92436C182.754 9.64027 183.313 9.49822 183.955 9.49822C184.387 9.49822 184.789 9.56783 185.161 9.70703C185.536 9.84339 185.863 10.0494 186.141 10.3249C186.423 10.6005 186.641 10.9471 186.798 11.3647C186.954 11.7795 187.032 12.2653 187.032 12.8221V13.3207H181.505V12.1957H185.323C185.323 11.9343 185.266 11.7028 185.153 11.5011C185.039 11.2994 184.881 11.1417 184.68 11.0281C184.481 10.9116 184.249 10.8533 183.985 10.8533C183.71 10.8533 183.465 10.9173 183.252 11.0451C183.042 11.1701 182.877 11.3391 182.758 11.5522C182.638 11.7624 182.577 11.9968 182.575 12.2553V13.3249C182.575 13.6488 182.634 13.9286 182.754 14.1644C182.876 14.4002 183.048 14.582 183.269 14.7099C183.491 14.8377 183.754 14.9016 184.058 14.9016C184.259 14.9016 184.444 14.8732 184.612 14.8164C184.779 14.7596 184.923 14.6744 185.042 14.5607C185.161 14.4471 185.252 14.3079 185.315 14.1431L186.994 14.2539C186.908 14.6573 186.734 15.0096 186.469 15.3107C186.208 15.609 185.87 15.842 185.455 16.0096C185.043 16.1744 184.567 16.2567 184.028 16.2567ZM194.143 9.58345L191.855 16.1289H189.809L187.521 9.58345H189.439L190.798 14.2667H190.866L192.221 9.58345H194.143ZM197.844 16.2567C197.171 16.2567 196.591 16.1204 196.105 15.8477C195.623 15.5721 195.25 15.1829 194.989 14.68C194.728 14.1744 194.597 13.5763 194.597 12.886C194.597 12.2127 194.728 11.6218 194.989 11.1133C195.25 10.6048 195.618 10.2085 196.093 9.92436C196.57 9.64027 197.13 9.49822 197.772 9.49822C198.203 9.49822 198.605 9.56783 198.978 9.70703C199.353 9.84339 199.679 10.0494 199.958 10.3249C200.239 10.6005 200.458 10.9471 200.614 11.3647C200.77 11.7795 200.848 12.2653 200.848 12.8221V13.3207H195.321V12.1957H199.14C199.14 11.9343 199.083 11.7028 198.969 11.5011C198.855 11.2994 198.698 11.1417 198.496 11.0281C198.297 10.9116 198.066 10.8533 197.801 10.8533C197.526 10.8533 197.282 10.9173 197.069 11.0451C196.858 11.1701 196.694 11.3391 196.574 11.5522C196.455 11.7624 196.394 11.9968 196.391 12.2553V13.3249C196.391 13.6488 196.451 13.9286 196.57 14.1644C196.692 14.4002 196.864 14.582 197.086 14.7099C197.307 14.8377 197.57 14.9016 197.874 14.9016C198.076 14.9016 198.26 14.8732 198.428 14.8164C198.596 14.7596 198.739 14.6744 198.858 14.5607C198.978 14.4471 199.069 14.3079 199.131 14.1431L200.81 14.2539C200.725 14.6573 200.55 15.0096 200.286 15.3107C200.025 15.609 199.686 15.842 199.272 16.0096C198.86 16.1744 198.384 16.2567 197.844 16.2567ZM203.848 7.40163V16.1289H202.033V7.40163H203.848Z" fill="black"/>
<rect x="122" y="22.4844" width="61" height="131" fill="#676767"/>
<path d="M130.707 62.4844V61.1548L133.814 58.2784C134.078 58.0227 134.3 57.7926 134.479 57.5881C134.661 57.3835 134.798 57.1832 134.892 56.9872C134.986 56.7884 135.033 56.5739 135.033 56.3438C135.033 56.0881 134.974 55.8679 134.858 55.6832C134.741 55.4957 134.582 55.3523 134.381 55.2528C134.179 55.1506 133.95 55.0994 133.695 55.0994C133.428 55.0994 133.195 55.1534 132.996 55.2614C132.797 55.3693 132.643 55.5241 132.536 55.7259C132.428 55.9276 132.374 56.1676 132.374 56.446H130.622C130.622 55.875 130.751 55.3793 131.01 54.9588C131.268 54.5384 131.631 54.2131 132.097 53.983C132.563 53.7528 133.099 53.6378 133.707 53.6378C134.332 53.6378 134.876 53.7486 135.339 53.9702C135.805 54.1889 136.168 54.4929 136.426 54.8821C136.685 55.2713 136.814 55.7173 136.814 56.2202C136.814 56.5497 136.749 56.875 136.618 57.196C136.49 57.517 136.261 57.8736 135.932 58.2656C135.602 58.6548 135.138 59.1222 134.538 59.6676L133.264 60.9162V60.9759H136.929V62.4844H130.707ZM140.098 58.7003V62.4844H138.283V55.9389H140.013V57.0938H140.09C140.235 56.7131 140.478 56.4119 140.819 56.1903C141.159 55.9659 141.573 55.8537 142.059 55.8537C142.513 55.8537 142.909 55.9531 143.248 56.152C143.586 56.3509 143.848 56.6349 144.036 57.0043C144.223 57.3707 144.317 57.8082 144.317 58.3168V62.4844H142.502V58.6406C142.505 58.2401 142.402 57.9276 142.195 57.7031C141.988 57.4759 141.702 57.3622 141.338 57.3622C141.094 57.3622 140.878 57.4148 140.691 57.5199C140.506 57.625 140.361 57.7784 140.256 57.9801C140.154 58.179 140.101 58.419 140.098 58.7003ZM148.16 62.5909C147.663 62.5909 147.212 62.4631 146.809 62.2074C146.408 61.9489 146.09 61.5696 145.854 61.0696C145.621 60.5668 145.505 59.9503 145.505 59.2202C145.505 58.4702 145.626 57.8466 145.867 57.3494C146.109 56.8494 146.43 56.4759 146.83 56.2287C147.234 55.9787 147.675 55.8537 148.156 55.8537C148.522 55.8537 148.827 55.9162 149.072 56.0412C149.319 56.1634 149.518 56.3168 149.668 56.5014C149.822 56.6832 149.938 56.8622 150.018 57.0384H150.073V53.7571H151.884V62.4844H150.094V61.4361H150.018C149.933 61.6179 149.812 61.7983 149.656 61.9773C149.502 62.1534 149.302 62.2997 149.055 62.4162C148.81 62.5327 148.512 62.5909 148.16 62.5909ZM148.735 61.1463C149.028 61.1463 149.275 61.0668 149.477 60.9077C149.681 60.7457 149.837 60.5199 149.945 60.2301C150.056 59.9403 150.112 59.6009 150.112 59.2116C150.112 58.8224 150.058 58.4844 149.95 58.1974C149.842 57.9105 149.685 57.6889 149.481 57.5327C149.276 57.3764 149.028 57.2983 148.735 57.2983C148.437 57.2983 148.185 57.3793 147.981 57.5412C147.776 57.7031 147.621 57.9276 147.516 58.2145C147.411 58.5014 147.359 58.8338 147.359 59.2116C147.359 59.5923 147.411 59.929 147.516 60.2216C147.624 60.5114 147.779 60.7386 147.981 60.9034C148.185 61.0653 148.437 61.1463 148.735 61.1463ZM132.54 77.7571V86.4844H130.724V77.7571H132.54ZM136.977 86.6122C136.304 86.6122 135.724 86.4759 135.238 86.2031C134.755 85.9276 134.383 85.5384 134.122 85.0355C133.86 84.5298 133.73 83.9318 133.73 83.2415C133.73 82.5682 133.86 81.9773 134.122 81.4688C134.383 80.9602 134.751 80.5639 135.225 80.2798C135.703 79.9957 136.262 79.8537 136.904 79.8537C137.336 79.8537 137.738 79.9233 138.11 80.0625C138.485 80.1989 138.812 80.4048 139.091 80.6804C139.372 80.956 139.591 81.3026 139.747 81.7202C139.903 82.1349 139.981 82.6207 139.981 83.1776V83.6761H134.454V82.5511H138.272C138.272 82.2898 138.216 82.0582 138.102 81.8565C137.988 81.6548 137.831 81.4972 137.629 81.3835C137.43 81.267 137.199 81.2088 136.934 81.2088C136.659 81.2088 136.414 81.2727 136.201 81.4006C135.991 81.5256 135.826 81.6946 135.707 81.9077C135.588 82.1179 135.527 82.3523 135.524 82.6108V83.6804C135.524 84.0043 135.583 84.2841 135.703 84.5199C135.825 84.7557 135.997 84.9375 136.218 85.0653C136.44 85.1932 136.703 85.2571 137.007 85.2571C137.208 85.2571 137.393 85.2287 137.561 85.1719C137.728 85.1151 137.872 85.0298 137.991 84.9162C138.11 84.8026 138.201 84.6634 138.264 84.4986L139.943 84.6094C139.858 85.0128 139.683 85.3651 139.419 85.6662C139.157 85.9645 138.819 86.1974 138.404 86.3651C137.993 86.5298 137.517 86.6122 136.977 86.6122ZM147.092 79.9389L144.804 86.4844H142.759L140.47 79.9389H142.388L143.747 84.6222H143.815L145.17 79.9389H147.092ZM150.793 86.6122C150.12 86.6122 149.54 86.4759 149.055 86.2031C148.572 85.9276 148.2 85.5384 147.938 85.0355C147.677 84.5298 147.546 83.9318 147.546 83.2415C147.546 82.5682 147.677 81.9773 147.938 81.4688C148.2 80.9602 148.567 80.5639 149.042 80.2798C149.519 79.9957 150.079 79.8537 150.721 79.8537C151.153 79.8537 151.555 79.9233 151.927 80.0625C152.302 80.1989 152.629 80.4048 152.907 80.6804C153.188 80.956 153.407 81.3026 153.563 81.7202C153.719 82.1349 153.798 82.6207 153.798 83.1776V83.6761H148.271V82.5511H152.089C152.089 82.2898 152.032 82.0582 151.918 81.8565C151.805 81.6548 151.647 81.4972 151.445 81.3835C151.246 81.267 151.015 81.2088 150.751 81.2088C150.475 81.2088 150.231 81.2727 150.018 81.4006C149.808 81.5256 149.643 81.6946 149.523 81.9077C149.404 82.1179 149.343 82.3523 149.34 82.6108V83.6804C149.34 84.0043 149.4 84.2841 149.519 84.5199C149.641 84.7557 149.813 84.9375 150.035 85.0653C150.256 85.1932 150.519 85.2571 150.823 85.2571C151.025 85.2571 151.21 85.2287 151.377 85.1719C151.545 85.1151 151.688 85.0298 151.808 84.9162C151.927 84.8026 152.018 84.6634 152.08 84.4986L153.759 84.6094C153.674 85.0128 153.499 85.3651 153.235 85.6662C152.974 85.9645 152.636 86.1974 152.221 86.3651C151.809 86.5298 151.333 86.6122 150.793 86.6122ZM156.798 77.7571V86.4844H154.982V77.7571H156.798Z" fill="white"/>
<line x1="130" y1="28.9844" x2="137" y2="28.9844" stroke="white"/>
<line x1="130" y1="32.9844" x2="137" y2="32.9844" stroke="white"/>
<line x1="130" y1="36.9844" x2="137" y2="36.9844" stroke="white"/>
</svg>
