<svg width="450" height="308" viewBox="0 0 450 308" fill="none" xmlns="http://www.w3.org/2000/svg">
<rect y="78.6289" width="166.099" height="229" fill="#D9D9D9"/>
<rect x="283.9" y="78.6289" width="166.099" height="229" fill="#D9D9D9"/>
<rect y="78.6289" width="166.099" height="27" fill="#A2A2A2"/>
<rect y="105.629" width="166.099" height="30" fill="#666666"/>
<path d="M57.5148 87.9016V96.6289H55.6696V89.6531H55.6185L53.6199 90.9059V89.2695L55.7804 87.9016H57.5148ZM65.052 91.9499L63.3901 92.0522C63.3617 91.9102 63.3006 91.7823 63.2069 91.6687C63.1131 91.5522 62.9895 91.4599 62.8361 91.3917C62.6856 91.3207 62.5052 91.2852 62.2949 91.2852C62.0137 91.2852 61.7765 91.3448 61.5833 91.4641C61.3901 91.5806 61.2935 91.7369 61.2935 91.9329C61.2935 92.0891 61.356 92.2212 61.481 92.3292C61.606 92.4371 61.8205 92.5238 62.1245 92.5891L63.3091 92.8278C63.9455 92.9585 64.4199 93.1687 64.7324 93.4585C65.0449 93.7482 65.2012 94.1289 65.2012 94.6005C65.2012 95.0295 65.0748 95.4059 64.8219 95.7298C64.5719 96.0536 64.2282 96.3065 63.7907 96.4883C63.356 96.6673 62.8546 96.7567 62.2864 96.7567C61.4199 96.7567 60.7296 96.5763 60.2154 96.2156C59.704 95.8519 59.4043 95.3576 59.3163 94.7326L61.1018 94.6388C61.1557 94.9031 61.2864 95.1048 61.4938 95.244C61.7012 95.3803 61.9668 95.4485 62.2907 95.4485C62.6089 95.4485 62.8645 95.3874 63.0577 95.2653C63.2538 95.1403 63.3532 94.9798 63.356 94.7837C63.3532 94.619 63.2836 94.484 63.1472 94.3789C63.0109 94.271 62.8006 94.1886 62.5165 94.1317L61.383 93.9059C60.7438 93.7781 60.268 93.5565 59.9555 93.2411C59.6458 92.9258 59.491 92.5238 59.491 92.0352C59.491 91.6147 59.6046 91.2525 59.8319 90.9485C60.062 90.6445 60.3844 90.4102 60.7992 90.2454C61.2168 90.0806 61.7055 89.9982 62.2651 89.9982C63.0918 89.9982 63.7424 90.1729 64.2168 90.5224C64.6941 90.8718 64.9725 91.3477 65.052 91.9499ZM69.8258 90.0835V91.4471H65.8841V90.0835H69.8258ZM66.779 88.5153H68.5943V94.6175C68.5943 94.7852 68.6199 94.9158 68.671 95.0096C68.7221 95.1005 68.7932 95.1644 68.8841 95.2013C68.9778 95.2383 69.0858 95.2567 69.2079 95.2567C69.2932 95.2567 69.3784 95.2496 69.4636 95.2354C69.5489 95.2184 69.6142 95.2056 69.6596 95.1971L69.9452 96.5479C69.8542 96.5763 69.7264 96.609 69.5616 96.646C69.3969 96.6857 69.1966 96.7099 68.9608 96.7184C68.5233 96.7354 68.1398 96.6772 67.8102 96.5437C67.4835 96.4102 67.2292 96.2028 67.0474 95.9215C66.8656 95.6403 66.7761 95.2852 66.779 94.8562V88.5153ZM73.8198 96.6289V87.9016H75.665V95.1076H79.4065V96.6289H73.8198ZM83.5773 96.7567C82.904 96.7567 82.3244 96.6204 81.8386 96.3477C81.3557 96.0721 80.9835 95.6829 80.7221 95.18C80.4608 94.6744 80.3301 94.0763 80.3301 93.386C80.3301 92.7127 80.4608 92.1218 80.7221 91.6133C80.9835 91.1048 81.3514 90.7085 81.8258 90.4244C82.3031 90.1403 82.8628 89.9982 83.5048 89.9982C83.9366 89.9982 84.3386 90.0678 84.7108 90.207C85.0858 90.3434 85.4125 90.5494 85.6909 90.8249C85.9721 91.1005 86.1909 91.4471 86.3471 91.8647C86.5034 92.2795 86.5815 92.7653 86.5815 93.3221V93.8207H81.0545V92.6957H84.8727C84.8727 92.4343 84.8159 92.2028 84.7023 92.0011C84.5886 91.7994 84.431 91.6417 84.2292 91.5281C84.0304 91.4116 83.7989 91.3533 83.5346 91.3533C83.2591 91.3533 83.0148 91.4173 82.8017 91.5451C82.5915 91.6701 82.4267 91.8391 82.3074 92.0522C82.1881 92.2624 82.127 92.4968 82.1241 92.7553V93.8249C82.1241 94.1488 82.1838 94.4286 82.3031 94.6644C82.4253 94.9002 82.5971 95.082 82.8187 95.2099C83.0403 95.3377 83.3031 95.4016 83.6071 95.4016C83.8088 95.4016 83.9935 95.3732 84.1611 95.3164C84.3287 95.2596 84.4721 95.1744 84.5915 95.0607C84.7108 94.9471 84.8017 94.8079 84.8642 94.6431L86.5432 94.7539C86.4579 95.1573 86.2832 95.5096 86.019 95.8107C85.7577 96.109 85.4196 96.342 85.0048 96.5096C84.5929 96.6744 84.117 96.7567 83.5773 96.7567ZM93.6927 90.0835L91.4043 96.6289H89.3589L87.0705 90.0835H88.9881L90.3475 94.7667H90.4157L91.7708 90.0835H93.6927ZM97.3937 96.7567C96.7204 96.7567 96.1408 96.6204 95.655 96.3477C95.1721 96.0721 94.7999 95.6829 94.5386 95.18C94.2772 94.6744 94.1465 94.0763 94.1465 93.386C94.1465 92.7127 94.2772 92.1218 94.5386 91.6133C94.7999 91.1048 95.1678 90.7085 95.6422 90.4244C96.1195 90.1403 96.6792 89.9982 97.3212 89.9982C97.753 89.9982 98.155 90.0678 98.5272 90.207C98.9022 90.3434 99.2289 90.5494 99.5073 90.8249C99.7886 91.1005 100.007 91.4471 100.164 91.8647C100.32 92.2795 100.398 92.7653 100.398 93.3221V93.8207H94.8709V92.6957H98.6891C98.6891 92.4343 98.6323 92.2028 98.5187 92.0011C98.405 91.7994 98.2474 91.6417 98.0457 91.5281C97.8468 91.4116 97.6153 91.3533 97.3511 91.3533C97.0755 91.3533 96.8312 91.4173 96.6181 91.5451C96.4079 91.6701 96.2431 91.8391 96.1238 92.0522C96.0045 92.2624 95.9434 92.4968 95.9405 92.7553V93.8249C95.9405 94.1488 96.0002 94.4286 96.1195 94.6644C96.2417 94.9002 96.4136 95.082 96.6351 95.2099C96.8567 95.3377 97.1195 95.4016 97.4235 95.4016C97.6252 95.4016 97.8099 95.3732 97.9775 95.3164C98.1451 95.2596 98.2886 95.1744 98.4079 95.0607C98.5272 94.9471 98.6181 94.8079 98.6806 94.6431L100.36 94.7539C100.274 95.1573 100.1 95.5096 99.8354 95.8107C99.5741 96.109 99.236 96.342 98.8212 96.5096C98.4093 96.6744 97.9334 96.7567 97.3937 96.7567ZM103.398 87.9016V96.6289H101.583V87.9016H103.398Z" fill="black"/>
<path d="M53.7179 124.629V123.299L56.8244 120.423C57.0886 120.167 57.3102 119.937 57.4892 119.733C57.671 119.528 57.8088 119.328 57.9025 119.132C57.9963 118.933 58.0432 118.718 58.0432 118.488C58.0432 118.233 57.9849 118.012 57.8685 117.828C57.752 117.64 57.5929 117.497 57.3912 117.397C57.1895 117.295 56.9608 117.244 56.7051 117.244C56.4381 117.244 56.2051 117.298 56.0062 117.406C55.8074 117.514 55.654 117.669 55.546 117.87C55.4381 118.072 55.3841 118.312 55.3841 118.591H53.6327C53.6327 118.02 53.7619 117.524 54.0204 117.103C54.279 116.683 54.6412 116.358 55.1071 116.127C55.573 115.897 56.1099 115.782 56.7179 115.782C57.3429 115.782 57.8869 115.893 58.35 116.115C58.8159 116.333 59.1781 116.637 59.4366 117.027C59.6952 117.416 59.8244 117.862 59.8244 118.365C59.8244 118.694 59.7591 119.02 59.6284 119.341C59.5006 119.662 59.2719 120.018 58.9423 120.41C58.6128 120.799 58.1483 121.267 57.5489 121.812L56.2747 123.061V123.12H59.9395V124.629H53.7179ZM63.1089 120.845V124.629H61.2935V118.083H63.0236V119.238H63.1003C63.2452 118.858 63.4881 118.556 63.829 118.335C64.1699 118.11 64.5833 117.998 65.0691 117.998C65.5236 117.998 65.9199 118.098 66.258 118.297C66.5961 118.495 66.8589 118.779 67.0464 119.149C67.2339 119.515 67.3276 119.953 67.3276 120.461V124.629H65.5123V120.785C65.5151 120.385 65.4128 120.072 65.2055 119.848C64.9981 119.62 64.7126 119.507 64.3489 119.507C64.1046 119.507 63.8887 119.559 63.7012 119.664C63.5165 119.77 63.3716 119.923 63.2665 120.125C63.1643 120.324 63.1117 120.564 63.1089 120.845ZM71.1703 124.735C70.6731 124.735 70.2229 124.608 69.8194 124.352C69.4189 124.093 69.1007 123.714 68.8649 123.214C68.6319 122.711 68.5155 122.095 68.5155 121.365C68.5155 120.615 68.6362 119.991 68.8777 119.494C69.1192 118.994 69.4402 118.62 69.8408 118.373C70.2442 118.123 70.6859 117.998 71.166 117.998C71.5325 117.998 71.8379 118.061 72.0822 118.186C72.3294 118.308 72.5283 118.461 72.6788 118.646C72.8322 118.828 72.9487 119.007 73.0283 119.183H73.0837V115.902H74.8947V124.629H73.105V123.581H73.0283C72.943 123.762 72.8223 123.943 72.666 124.122C72.5126 124.298 72.3123 124.444 72.0652 124.561C71.8209 124.677 71.5226 124.735 71.1703 124.735ZM71.7456 123.291C72.0382 123.291 72.2854 123.211 72.4871 123.052C72.6916 122.89 72.8479 122.664 72.9558 122.375C73.0666 122.085 73.122 121.745 73.122 121.356C73.122 120.967 73.068 120.629 72.9601 120.342C72.8521 120.055 72.6959 119.833 72.4913 119.677C72.2868 119.521 72.0382 119.443 71.7456 119.443C71.4473 119.443 71.1959 119.524 70.9913 119.686C70.7868 119.848 70.6319 120.072 70.5268 120.359C70.4217 120.646 70.3692 120.978 70.3692 121.356C70.3692 121.737 70.4217 122.074 70.5268 122.366C70.6348 122.656 70.7896 122.883 70.9913 123.048C71.1959 123.21 71.4473 123.291 71.7456 123.291ZM79.1987 124.629V115.902H81.0439V123.108H84.7854V124.629H79.1987ZM88.9562 124.757C88.2829 124.757 87.7033 124.62 87.2175 124.348C86.7346 124.072 86.3624 123.683 86.1011 123.18C85.8397 122.674 85.709 122.076 85.709 121.386C85.709 120.713 85.8397 120.122 86.1011 119.613C86.3624 119.105 86.7303 118.708 87.2047 118.424C87.682 118.14 88.2417 117.998 88.8837 117.998C89.3155 117.998 89.7175 118.068 90.0897 118.207C90.4647 118.343 90.7914 118.549 91.0698 118.825C91.3511 119.1 91.5698 119.447 91.7261 119.865C91.8823 120.279 91.9604 120.765 91.9604 121.322V121.821H86.4334V120.696H90.2516C90.2516 120.434 90.1948 120.203 90.0812 120.001C89.9675 119.799 89.8099 119.642 89.6082 119.528C89.4093 119.412 89.1778 119.353 88.9136 119.353C88.638 119.353 88.3937 119.417 88.1806 119.545C87.9704 119.67 87.8056 119.839 87.6863 120.052C87.567 120.262 87.5059 120.497 87.503 120.755V121.825C87.503 122.149 87.5627 122.429 87.682 122.664C87.8042 122.9 87.9761 123.082 88.1976 123.21C88.4192 123.338 88.682 123.402 88.986 123.402C89.1877 123.402 89.3724 123.373 89.54 123.316C89.7076 123.26 89.8511 123.174 89.9704 123.061C90.0897 122.947 90.1806 122.808 90.2431 122.643L91.9221 122.754C91.8368 123.157 91.6621 123.51 91.3979 123.811C91.1366 124.109 90.7985 124.342 90.3837 124.51C89.9718 124.674 89.4959 124.757 88.9562 124.757ZM99.0716 118.083L96.7832 124.629H94.7378L92.4494 118.083H94.367L95.7264 122.767H95.7946L97.1497 118.083H99.0716ZM102.773 124.757C102.099 124.757 101.52 124.62 101.034 124.348C100.551 124.072 100.179 123.683 99.9175 123.18C99.6561 122.674 99.5254 122.076 99.5254 121.386C99.5254 120.713 99.6561 120.122 99.9175 119.613C100.179 119.105 100.547 118.708 101.021 118.424C101.498 118.14 102.058 117.998 102.7 117.998C103.132 117.998 103.534 118.068 103.906 118.207C104.281 118.343 104.608 118.549 104.886 118.825C105.167 119.1 105.386 119.447 105.542 119.865C105.699 120.279 105.777 120.765 105.777 121.322V121.821H100.25V120.696H104.068C104.068 120.434 104.011 120.203 103.898 120.001C103.784 119.799 103.626 119.642 103.425 119.528C103.226 119.412 102.994 119.353 102.73 119.353C102.454 119.353 102.21 119.417 101.997 119.545C101.787 119.67 101.622 119.839 101.503 120.052C101.383 120.262 101.322 120.497 101.319 120.755V121.825C101.319 122.149 101.379 122.429 101.498 122.664C101.621 122.9 101.792 123.082 102.014 123.21C102.236 123.338 102.498 123.402 102.802 123.402C103.004 123.402 103.189 123.373 103.356 123.316C103.524 123.26 103.667 123.174 103.787 123.061C103.906 122.947 103.997 122.808 104.06 122.643L105.738 122.754C105.653 123.157 105.479 123.51 105.214 123.811C104.953 124.109 104.615 124.342 104.2 124.51C103.788 124.674 103.312 124.757 102.773 124.757ZM108.777 115.902V124.629H106.961V115.902H108.777Z" fill="white"/>
<rect x="283.9" y="0.628906" width="166.099" height="27" fill="#A2A2A2"/>
<rect x="283.9" y="27.6289" width="166.099" height="30" fill="#666666"/>
<path d="M341.415 9.90163V18.6289H339.57V11.6531H339.519L337.52 12.9059V11.2695L339.681 9.90163H341.415ZM348.952 13.9499L347.291 14.0522C347.262 13.9102 347.201 13.7823 347.107 13.6687C347.014 13.5522 346.89 13.4599 346.737 13.3917C346.586 13.3207 346.406 13.2852 346.195 13.2852C345.914 13.2852 345.677 13.3448 345.484 13.4641C345.291 13.5806 345.194 13.7369 345.194 13.9329C345.194 14.0891 345.256 14.2212 345.381 14.3292C345.506 14.4371 345.721 14.5238 346.025 14.5891L347.21 14.8278C347.846 14.9585 348.32 15.1687 348.633 15.4585C348.945 15.7482 349.102 16.1289 349.102 16.6005C349.102 17.0295 348.975 17.4059 348.722 17.7298C348.472 18.0536 348.129 18.3065 347.691 18.4883C347.256 18.6673 346.755 18.7567 346.187 18.7567C345.32 18.7567 344.63 18.5763 344.116 18.2156C343.604 17.8519 343.305 17.3576 343.217 16.7326L345.002 16.6388C345.056 16.9031 345.187 17.1048 345.394 17.244C345.602 17.3803 345.867 17.4485 346.191 17.4485C346.509 17.4485 346.765 17.3874 346.958 17.2653C347.154 17.1403 347.254 16.9798 347.256 16.7837C347.254 16.619 347.184 16.484 347.048 16.3789C346.911 16.271 346.701 16.1886 346.417 16.1317L345.283 15.9059C344.644 15.7781 344.168 15.5565 343.856 15.2411C343.546 14.9258 343.391 14.5238 343.391 14.0352C343.391 13.6147 343.505 13.2525 343.732 12.9485C343.962 12.6445 344.285 12.4102 344.7 12.2454C345.117 12.0806 345.606 11.9982 346.166 11.9982C346.992 11.9982 347.643 12.1729 348.117 12.5224C348.594 12.8718 348.873 13.3477 348.952 13.9499ZM353.726 12.0835V13.4471H349.784V12.0835H353.726ZM350.679 10.5153H352.495V16.6175C352.495 16.7852 352.52 16.9158 352.571 17.0096C352.623 17.1005 352.694 17.1644 352.784 17.2013C352.878 17.2383 352.986 17.2567 353.108 17.2567C353.194 17.2567 353.279 17.2496 353.364 17.2354C353.449 17.2184 353.515 17.2056 353.56 17.1971L353.846 18.5479C353.755 18.5763 353.627 18.609 353.462 18.646C353.297 18.6857 353.097 18.7099 352.861 18.7184C352.424 18.7354 352.04 18.6772 351.711 18.5437C351.384 18.4102 351.13 18.2028 350.948 17.9215C350.766 17.6403 350.677 17.2852 350.679 16.8562V10.5153ZM357.72 18.6289V9.90163H359.565V17.1076H363.307V18.6289H357.72ZM367.478 18.7567C366.804 18.7567 366.225 18.6204 365.739 18.3477C365.256 18.0721 364.884 17.6829 364.623 17.18C364.361 16.6744 364.23 16.0763 364.23 15.386C364.23 14.7127 364.361 14.1218 364.623 13.6133C364.884 13.1048 365.252 12.7085 365.726 12.4244C366.204 12.1403 366.763 11.9982 367.405 11.9982C367.837 11.9982 368.239 12.0678 368.611 12.207C368.986 12.3434 369.313 12.5494 369.591 12.8249C369.873 13.1005 370.091 13.4471 370.248 13.8647C370.404 14.2795 370.482 14.7653 370.482 15.3221V15.8207H364.955V14.6957H368.773C368.773 14.4343 368.716 14.2028 368.603 14.0011C368.489 13.7994 368.331 13.6417 368.13 13.5281C367.931 13.4116 367.699 13.3533 367.435 13.3533C367.159 13.3533 366.915 13.4173 366.702 13.5451C366.492 13.6701 366.327 13.8391 366.208 14.0522C366.088 14.2624 366.027 14.4968 366.025 14.7553V15.8249C366.025 16.1488 366.084 16.4286 366.204 16.6644C366.326 16.9002 366.498 17.082 366.719 17.2099C366.941 17.3377 367.204 17.4016 367.507 17.4016C367.709 17.4016 367.894 17.3732 368.061 17.3164C368.229 17.2596 368.373 17.1744 368.492 17.0607C368.611 16.9471 368.702 16.8079 368.765 16.6431L370.444 16.7539C370.358 17.1573 370.184 17.5096 369.919 17.8107C369.658 18.109 369.32 18.342 368.905 18.5096C368.493 18.6744 368.017 18.7567 367.478 18.7567ZM377.593 12.0835L375.305 18.6289H373.259L370.971 12.0835H372.889L374.248 16.7667H374.316L375.671 12.0835H377.593ZM381.294 18.7567C380.621 18.7567 380.041 18.6204 379.555 18.3477C379.072 18.0721 378.7 17.6829 378.439 17.18C378.178 16.6744 378.047 16.0763 378.047 15.386C378.047 14.7127 378.178 14.1218 378.439 13.6133C378.7 13.1048 379.068 12.7085 379.543 12.4244C380.02 12.1403 380.58 11.9982 381.222 11.9982C381.653 11.9982 382.055 12.0678 382.428 12.207C382.803 12.3434 383.129 12.5494 383.408 12.8249C383.689 13.1005 383.908 13.4471 384.064 13.8647C384.22 14.2795 384.298 14.7653 384.298 15.3221V15.8207H378.771V14.6957H382.59C382.59 14.4343 382.533 14.2028 382.419 14.0011C382.305 13.7994 382.148 13.6417 381.946 13.5281C381.747 13.4116 381.516 13.3533 381.251 13.3533C380.976 13.3533 380.732 13.4173 380.518 13.5451C380.308 13.6701 380.143 13.8391 380.024 14.0522C379.905 14.2624 379.844 14.4968 379.841 14.7553V15.8249C379.841 16.1488 379.901 16.4286 380.02 16.6644C380.142 16.9002 380.314 17.082 380.536 17.2099C380.757 17.3377 381.02 17.4016 381.324 17.4016C381.526 17.4016 381.71 17.3732 381.878 17.3164C382.045 17.2596 382.189 17.1744 382.308 17.0607C382.428 16.9471 382.518 16.8079 382.581 16.6431L384.26 16.7539C384.175 17.1573 384 17.5096 383.736 17.8107C383.474 18.109 383.136 18.342 382.722 18.5096C382.31 18.6744 381.834 18.7567 381.294 18.7567ZM387.298 9.90163V18.6289H385.483V9.90163H387.298Z" fill="black"/>
<path d="M337.618 46.6289V45.2994L340.725 42.4229C340.989 42.1673 341.211 41.9371 341.39 41.7326C341.571 41.5281 341.709 41.3278 341.803 41.1317C341.897 40.9329 341.944 40.7184 341.944 40.4883C341.944 40.2326 341.885 40.0124 341.769 39.8278C341.652 39.6403 341.493 39.4968 341.292 39.3974C341.09 39.2951 340.861 39.244 340.605 39.244C340.338 39.244 340.105 39.2979 339.907 39.4059C339.708 39.5138 339.554 39.6687 339.446 39.8704C339.338 40.0721 339.284 40.3121 339.284 40.5906H337.533C337.533 40.0195 337.662 39.5238 337.921 39.1033C338.179 38.6829 338.542 38.3576 339.007 38.1275C339.473 37.8974 340.01 37.7823 340.618 37.7823C341.243 37.7823 341.787 37.8931 342.25 38.1147C342.716 38.3335 343.079 38.6374 343.337 39.0266C343.596 39.4158 343.725 39.8619 343.725 40.3647C343.725 40.6942 343.659 41.0195 343.529 41.3406C343.401 41.6616 343.172 42.0181 342.843 42.4102C342.513 42.7994 342.049 43.2667 341.449 43.8121L340.175 45.0607V45.1204H343.84V46.6289H337.618ZM347.009 42.8448V46.6289H345.194V40.0835H346.924V41.2383H347.001C347.146 40.8576 347.389 40.5565 347.729 40.3349C348.07 40.1104 348.484 39.9982 348.969 39.9982C349.424 39.9982 349.82 40.0977 350.158 40.2965C350.496 40.4954 350.759 40.7795 350.947 41.1488C351.134 41.5153 351.228 41.9528 351.228 42.4613V46.6289H349.413V42.7852C349.416 42.3846 349.313 42.0721 349.106 41.8477C348.898 41.6204 348.613 41.5067 348.249 41.5067C348.005 41.5067 347.789 41.5593 347.602 41.6644C347.417 41.7695 347.272 41.9229 347.167 42.1246C347.065 42.3235 347.012 42.5636 347.009 42.8448ZM355.071 46.7354C354.574 46.7354 354.123 46.6076 353.72 46.3519C353.319 46.0934 353.001 45.7141 352.765 45.2141C352.532 44.7113 352.416 44.0948 352.416 43.3647C352.416 42.6147 352.537 41.9911 352.778 41.494C353.02 40.994 353.341 40.6204 353.741 40.3732C354.145 40.1232 354.586 39.9982 355.066 39.9982C355.433 39.9982 355.738 40.0607 355.983 40.1857C356.23 40.3079 356.429 40.4613 356.579 40.646C356.733 40.8278 356.849 41.0067 356.929 41.1829H356.984V37.9016H358.795V46.6289H357.005V45.5806H356.929C356.843 45.7624 356.723 45.9428 356.566 46.1218C356.413 46.2979 356.213 46.4442 355.966 46.5607C355.721 46.6772 355.423 46.7354 355.071 46.7354ZM355.646 45.2908C355.939 45.2908 356.186 45.2113 356.387 45.0522C356.592 44.8903 356.748 44.6644 356.856 44.3746C356.967 44.0849 357.022 43.7454 357.022 43.3562C357.022 42.967 356.968 42.6289 356.86 42.342C356.753 42.055 356.596 41.8335 356.392 41.6772C356.187 41.521 355.939 41.4428 355.646 41.4428C355.348 41.4428 355.096 41.5238 354.892 41.6857C354.687 41.8477 354.532 42.0721 354.427 42.359C354.322 42.646 354.27 42.9783 354.27 43.3562C354.27 43.7369 354.322 44.0735 354.427 44.3661C354.535 44.6559 354.69 44.8832 354.892 45.0479C355.096 45.2099 355.348 45.2908 355.646 45.2908ZM363.099 46.6289V37.9016H364.944V45.1076H368.686V46.6289H363.099ZM372.857 46.7567C372.183 46.7567 371.604 46.6204 371.118 46.3477C370.635 46.0721 370.263 45.6829 370.001 45.18C369.74 44.6744 369.609 44.0763 369.609 43.386C369.609 42.7127 369.74 42.1218 370.001 41.6133C370.263 41.1048 370.631 40.7085 371.105 40.4244C371.582 40.1403 372.142 39.9982 372.784 39.9982C373.216 39.9982 373.618 40.0678 373.99 40.207C374.365 40.3434 374.692 40.5494 374.97 40.8249C375.251 41.1005 375.47 41.4471 375.626 41.8647C375.783 42.2795 375.861 42.7653 375.861 43.3221V43.8207H370.334V42.6957H374.152C374.152 42.4343 374.095 42.2028 373.982 42.0011C373.868 41.7994 373.71 41.6417 373.509 41.5281C373.31 41.4116 373.078 41.3533 372.814 41.3533C372.538 41.3533 372.294 41.4173 372.081 41.5451C371.871 41.6701 371.706 41.8391 371.587 42.0522C371.467 42.2624 371.406 42.4968 371.403 42.7553V43.8249C371.403 44.1488 371.463 44.4286 371.582 44.6644C371.705 44.9002 371.876 45.082 372.098 45.2099C372.32 45.3377 372.582 45.4016 372.886 45.4016C373.088 45.4016 373.273 45.3732 373.44 45.3164C373.608 45.2596 373.751 45.1744 373.871 45.0607C373.99 44.9471 374.081 44.8079 374.143 44.6431L375.822 44.7539C375.737 45.1573 375.563 45.5096 375.298 45.8107C375.037 46.109 374.699 46.342 374.284 46.5096C373.872 46.6744 373.396 46.7567 372.857 46.7567ZM382.972 40.0835L380.684 46.6289H378.638L376.35 40.0835H378.267L379.627 44.7667H379.695L381.05 40.0835H382.972ZM386.673 46.7567C386 46.7567 385.42 46.6204 384.934 46.3477C384.451 46.0721 384.079 45.6829 383.818 45.18C383.556 44.6744 383.426 44.0763 383.426 43.386C383.426 42.7127 383.556 42.1218 383.818 41.6133C384.079 41.1048 384.447 40.7085 384.922 40.4244C385.399 40.1403 385.958 39.9982 386.601 39.9982C387.032 39.9982 387.434 40.0678 387.806 40.207C388.181 40.3434 388.508 40.5494 388.787 40.8249C389.068 41.1005 389.287 41.4471 389.443 41.8647C389.599 42.2795 389.677 42.7653 389.677 43.3221V43.8207H384.15V42.6957H387.968C387.968 42.4343 387.912 42.2028 387.798 42.0011C387.684 41.7994 387.527 41.6417 387.325 41.5281C387.126 41.4116 386.895 41.3533 386.63 41.3533C386.355 41.3533 386.11 41.4173 385.897 41.5451C385.687 41.6701 385.522 41.8391 385.403 42.0522C385.284 42.2624 385.223 42.4968 385.22 42.7553V43.8249C385.22 44.1488 385.279 44.4286 385.399 44.6644C385.521 44.9002 385.693 45.082 385.914 45.2099C386.136 45.3377 386.399 45.4016 386.703 45.4016C386.904 45.4016 387.089 45.3732 387.257 45.3164C387.424 45.2596 387.568 45.1744 387.687 45.0607C387.806 44.9471 387.897 44.8079 387.96 44.6431L389.639 44.7539C389.554 45.1573 389.379 45.5096 389.115 45.8107C388.853 46.109 388.515 46.342 388.101 46.5096C387.689 46.6744 387.213 46.7567 386.673 46.7567ZM392.677 37.9016V46.6289H390.862V37.9016H392.677Z" fill="white"/>
<path d="M186.385 115.902H188.23V121.569C188.23 122.206 188.078 122.762 187.774 123.24C187.473 123.717 187.051 124.089 186.508 124.356C185.966 124.62 185.334 124.752 184.612 124.752C183.888 124.752 183.254 124.62 182.711 124.356C182.169 124.089 181.747 123.717 181.446 123.24C181.145 122.762 180.994 122.206 180.994 121.569V115.902H182.839V121.412C182.839 121.744 182.912 122.039 183.057 122.298C183.204 122.556 183.412 122.76 183.679 122.907C183.946 123.055 184.257 123.129 184.612 123.129C184.97 123.129 185.281 123.055 185.545 122.907C185.812 122.76 186.018 122.556 186.163 122.298C186.311 122.039 186.385 121.744 186.385 121.412V115.902ZM195.16 119.95L193.498 120.052C193.47 119.91 193.409 119.782 193.315 119.669C193.221 119.552 193.097 119.46 192.944 119.392C192.793 119.321 192.613 119.285 192.403 119.285C192.122 119.285 191.884 119.345 191.691 119.464C191.498 119.581 191.401 119.737 191.401 119.933C191.401 120.089 191.464 120.221 191.589 120.329C191.714 120.437 191.928 120.524 192.232 120.589L193.417 120.828C194.053 120.958 194.528 121.169 194.84 121.458C195.153 121.748 195.309 122.129 195.309 122.6C195.309 123.029 195.183 123.406 194.93 123.73C194.68 124.054 194.336 124.306 193.899 124.488C193.464 124.667 192.963 124.757 192.394 124.757C191.528 124.757 190.838 124.576 190.323 124.216C189.812 123.852 189.512 123.358 189.424 122.733L191.21 122.639C191.264 122.903 191.394 123.105 191.602 123.244C191.809 123.38 192.075 123.449 192.399 123.449C192.717 123.449 192.972 123.387 193.166 123.265C193.362 123.14 193.461 122.98 193.464 122.784C193.461 122.619 193.391 122.484 193.255 122.379C193.119 122.271 192.909 122.189 192.624 122.132L191.491 121.906C190.852 121.778 190.376 121.556 190.063 121.241C189.754 120.926 189.599 120.524 189.599 120.035C189.599 119.615 189.713 119.252 189.94 118.949C190.17 118.645 190.492 118.41 190.907 118.245C191.325 118.081 191.813 117.998 192.373 117.998C193.2 117.998 193.85 118.173 194.325 118.522C194.802 118.872 195.08 119.348 195.16 119.95ZM199.435 124.757C198.762 124.757 198.182 124.62 197.697 124.348C197.214 124.072 196.841 123.683 196.58 123.18C196.319 122.674 196.188 122.076 196.188 121.386C196.188 120.713 196.319 120.122 196.58 119.613C196.841 119.105 197.209 118.708 197.684 118.424C198.161 118.14 198.721 117.998 199.363 117.998C199.795 117.998 200.197 118.068 200.569 118.207C200.944 118.343 201.27 118.549 201.549 118.825C201.83 119.1 202.049 119.447 202.205 119.865C202.361 120.279 202.439 120.765 202.439 121.322V121.821H196.912V120.696H200.731C200.731 120.434 200.674 120.203 200.56 120.001C200.447 119.799 200.289 119.642 200.087 119.528C199.888 119.412 199.657 119.353 199.393 119.353C199.117 119.353 198.873 119.417 198.66 119.545C198.449 119.67 198.285 119.839 198.165 120.052C198.046 120.262 197.985 120.497 197.982 120.755V121.825C197.982 122.149 198.042 122.429 198.161 122.664C198.283 122.9 198.455 123.082 198.677 123.21C198.898 123.338 199.161 123.402 199.465 123.402C199.667 123.402 199.851 123.373 200.019 123.316C200.187 123.26 200.33 123.174 200.449 123.061C200.569 122.947 200.66 122.808 200.722 122.643L202.401 122.754C202.316 123.157 202.141 123.51 201.877 123.811C201.616 124.109 201.277 124.342 200.863 124.51C200.451 124.674 199.975 124.757 199.435 124.757ZM203.624 124.629V118.083H205.384V119.225H205.452C205.572 118.819 205.772 118.512 206.053 118.305C206.334 118.095 206.658 117.99 207.025 117.99C207.116 117.99 207.214 117.995 207.319 118.007C207.424 118.018 207.516 118.034 207.596 118.054V119.664C207.51 119.639 207.393 119.616 207.242 119.596C207.091 119.576 206.954 119.566 206.829 119.566C206.562 119.566 206.323 119.625 206.113 119.741C205.905 119.855 205.741 120.014 205.618 120.218C205.499 120.423 205.439 120.659 205.439 120.926V124.629H203.624ZM216.758 119.95L215.096 120.052C215.067 119.91 215.006 119.782 214.912 119.669C214.819 119.552 214.695 119.46 214.542 119.392C214.391 119.321 214.211 119.285 214.001 119.285C213.719 119.285 213.482 119.345 213.289 119.464C213.096 119.581 212.999 119.737 212.999 119.933C212.999 120.089 213.062 120.221 213.187 120.329C213.312 120.437 213.526 120.524 213.83 120.589L215.015 120.828C215.651 120.958 216.126 121.169 216.438 121.458C216.751 121.748 216.907 122.129 216.907 122.6C216.907 123.029 216.78 123.406 216.527 123.73C216.277 124.054 215.934 124.306 215.496 124.488C215.062 124.667 214.56 124.757 213.992 124.757C213.126 124.757 212.435 124.576 211.921 124.216C211.41 123.852 211.11 123.358 211.022 122.733L212.807 122.639C212.861 122.903 212.992 123.105 213.199 123.244C213.407 123.38 213.672 123.449 213.996 123.449C214.314 123.449 214.57 123.387 214.763 123.265C214.959 123.14 215.059 122.98 215.062 122.784C215.059 122.619 214.989 122.484 214.853 122.379C214.716 122.271 214.506 122.189 214.222 122.132L213.089 121.906C212.449 121.778 211.974 121.556 211.661 121.241C211.351 120.926 211.197 120.524 211.197 120.035C211.197 119.615 211.31 119.252 211.537 118.949C211.768 118.645 212.09 118.41 212.505 118.245C212.922 118.081 213.411 117.998 213.971 117.998C214.797 117.998 215.448 118.173 215.922 118.522C216.4 118.872 216.678 119.348 216.758 119.95ZM221.007 124.757C220.337 124.757 219.76 124.615 219.277 124.331C218.797 124.044 218.428 123.646 218.169 123.137C217.914 122.629 217.786 122.044 217.786 121.382C217.786 120.711 217.915 120.123 218.173 119.618C218.435 119.109 218.806 118.713 219.286 118.429C219.766 118.142 220.337 117.998 220.999 117.998C221.57 117.998 222.07 118.102 222.499 118.309C222.928 118.517 223.267 118.808 223.517 119.183C223.767 119.558 223.905 119.998 223.931 120.504H222.217C222.169 120.177 222.041 119.914 221.834 119.716C221.629 119.514 221.361 119.413 221.029 119.413C220.747 119.413 220.502 119.49 220.291 119.643C220.084 119.794 219.922 120.014 219.806 120.304C219.689 120.593 219.631 120.944 219.631 121.356C219.631 121.774 219.688 122.129 219.801 122.422C219.918 122.714 220.081 122.937 220.291 123.091C220.502 123.244 220.747 123.321 221.029 123.321C221.236 123.321 221.422 123.278 221.587 123.193C221.754 123.108 221.892 122.984 222 122.822C222.111 122.657 222.183 122.46 222.217 122.23H223.931C223.902 122.73 223.766 123.17 223.521 123.551C223.28 123.929 222.946 124.224 222.52 124.437C222.094 124.65 221.59 124.757 221.007 124.757ZM225.093 124.629V118.083H226.853V119.225H226.921C227.04 118.819 227.241 118.512 227.522 118.305C227.803 118.095 228.127 117.99 228.493 117.99C228.584 117.99 228.682 117.995 228.787 118.007C228.893 118.018 228.985 118.034 229.064 118.054V119.664C228.979 119.639 228.861 119.616 228.711 119.596C228.56 119.576 228.422 119.566 228.297 119.566C228.03 119.566 227.792 119.625 227.581 119.741C227.374 119.855 227.209 120.014 227.087 120.218C226.968 120.423 226.908 120.659 226.908 120.926V124.629H225.093ZM232.656 124.757C231.994 124.757 231.421 124.616 230.938 124.335C230.458 124.051 230.088 123.656 229.826 123.15C229.565 122.642 229.434 122.052 229.434 121.382C229.434 120.706 229.565 120.115 229.826 119.609C230.088 119.1 230.458 118.706 230.938 118.424C231.421 118.14 231.994 117.998 232.656 117.998C233.318 117.998 233.889 118.14 234.369 118.424C234.852 118.706 235.224 119.1 235.485 119.609C235.747 120.115 235.877 120.706 235.877 121.382C235.877 122.052 235.747 122.642 235.485 123.15C235.224 123.656 234.852 124.051 234.369 124.335C233.889 124.616 233.318 124.757 232.656 124.757ZM232.664 123.35C232.965 123.35 233.217 123.265 233.418 123.095C233.62 122.922 233.772 122.686 233.874 122.387C233.98 122.089 234.032 121.75 234.032 121.369C234.032 120.988 233.98 120.649 233.874 120.35C233.772 120.052 233.62 119.816 233.418 119.643C233.217 119.47 232.965 119.383 232.664 119.383C232.36 119.383 232.105 119.47 231.897 119.643C231.693 119.816 231.538 120.052 231.433 120.35C231.33 120.649 231.279 120.988 231.279 121.369C231.279 121.75 231.33 122.089 231.433 122.387C231.538 122.686 231.693 122.922 231.897 123.095C232.105 123.265 232.36 123.35 232.664 123.35ZM238.873 115.902V124.629H237.058V115.902H238.873ZM242.143 115.902V124.629H240.327V115.902H242.143ZM249.043 119.95L247.381 120.052C247.352 119.91 247.291 119.782 247.198 119.669C247.104 119.552 246.98 119.46 246.827 119.392C246.676 119.321 246.496 119.285 246.286 119.285C246.004 119.285 245.767 119.345 245.574 119.464C245.381 119.581 245.284 119.737 245.284 119.933C245.284 120.089 245.347 120.221 245.472 120.329C245.597 120.437 245.811 120.524 246.115 120.589L247.3 120.828C247.936 120.958 248.411 121.169 248.723 121.458C249.036 121.748 249.192 122.129 249.192 122.6C249.192 123.029 249.065 123.406 248.813 123.73C248.563 124.054 248.219 124.306 247.781 124.488C247.347 124.667 246.845 124.757 246.277 124.757C245.411 124.757 244.72 124.576 244.206 124.216C243.695 123.852 243.395 123.358 243.307 122.733L245.092 122.639C245.146 122.903 245.277 123.105 245.485 123.244C245.692 123.38 245.958 123.449 246.281 123.449C246.6 123.449 246.855 123.387 247.048 123.265C247.244 123.14 247.344 122.98 247.347 122.784C247.344 122.619 247.274 122.484 247.138 122.379C247.002 122.271 246.791 122.189 246.507 122.132L245.374 121.906C244.735 121.778 244.259 121.556 243.946 121.241C243.637 120.926 243.482 120.524 243.482 120.035C243.482 119.615 243.595 119.252 243.823 118.949C244.053 118.645 244.375 118.41 244.79 118.245C245.208 118.081 245.696 117.998 246.256 117.998C247.083 117.998 247.733 118.173 248.208 118.522C248.685 118.872 248.963 119.348 249.043 119.95ZM183.372 142.735C182.875 142.735 182.425 142.608 182.021 142.352C181.621 142.093 181.302 141.714 181.067 141.214C180.834 140.711 180.717 140.095 180.717 139.365C180.717 138.615 180.838 137.991 181.079 137.494C181.321 136.994 181.642 136.62 182.042 136.373C182.446 136.123 182.888 135.998 183.368 135.998C183.734 135.998 184.04 136.061 184.284 136.186C184.531 136.308 184.73 136.461 184.88 136.646C185.034 136.828 185.15 137.007 185.23 137.183H185.285V133.902H187.096V142.629H185.307V141.581H185.23C185.145 141.762 185.024 141.943 184.868 142.122C184.714 142.298 184.514 142.444 184.267 142.561C184.023 142.677 183.724 142.735 183.372 142.735ZM183.947 141.291C184.24 141.291 184.487 141.211 184.689 141.052C184.893 140.89 185.05 140.664 185.157 140.375C185.268 140.085 185.324 139.745 185.324 139.356C185.324 138.967 185.27 138.629 185.162 138.342C185.054 138.055 184.898 137.833 184.693 137.677C184.488 137.521 184.24 137.443 183.947 137.443C183.649 137.443 183.398 137.524 183.193 137.686C182.988 137.848 182.834 138.072 182.728 138.359C182.623 138.646 182.571 138.978 182.571 139.356C182.571 139.737 182.623 140.074 182.728 140.366C182.836 140.656 182.991 140.883 183.193 141.048C183.398 141.21 183.649 141.291 183.947 141.291ZM191.546 142.757C190.884 142.757 190.312 142.616 189.829 142.335C189.349 142.051 188.978 141.656 188.717 141.15C188.455 140.642 188.325 140.052 188.325 139.382C188.325 138.706 188.455 138.115 188.717 137.609C188.978 137.1 189.349 136.706 189.829 136.424C190.312 136.14 190.884 135.998 191.546 135.998C192.208 135.998 192.779 136.14 193.259 136.424C193.742 136.706 194.115 137.1 194.376 137.609C194.637 138.115 194.768 138.706 194.768 139.382C194.768 140.052 194.637 140.642 194.376 141.15C194.115 141.656 193.742 142.051 193.259 142.335C192.779 142.616 192.208 142.757 191.546 142.757ZM191.555 141.35C191.856 141.35 192.107 141.265 192.309 141.095C192.511 140.922 192.663 140.686 192.765 140.387C192.87 140.089 192.923 139.75 192.923 139.369C192.923 138.988 192.87 138.649 192.765 138.35C192.663 138.052 192.511 137.816 192.309 137.643C192.107 137.47 191.856 137.383 191.555 137.383C191.251 137.383 190.995 137.47 190.788 137.643C190.583 137.816 190.428 138.052 190.323 138.35C190.221 138.649 190.17 138.988 190.17 139.369C190.17 139.75 190.221 140.089 190.323 140.387C190.428 140.686 190.583 140.922 190.788 141.095C190.995 141.265 191.251 141.35 191.555 141.35ZM197.075 142.629L195.294 136.083H197.131L198.145 140.481H198.205L199.262 136.083H201.064L202.138 140.456H202.193L203.19 136.083H205.023L203.246 142.629H201.324L200.199 138.512H200.118L198.993 142.629H197.075ZM207.807 138.845V142.629H205.991V136.083H207.721V137.238H207.798C207.943 136.858 208.186 136.556 208.527 136.335C208.868 136.11 209.281 135.998 209.767 135.998C210.221 135.998 210.618 136.098 210.956 136.297C211.294 136.495 211.557 136.779 211.744 137.149C211.932 137.515 212.025 137.953 212.025 138.461V142.629H210.21V138.785C210.213 138.385 210.111 138.072 209.903 137.848C209.696 137.62 209.41 137.507 209.047 137.507C208.802 137.507 208.586 137.559 208.399 137.664C208.214 137.77 208.069 137.923 207.964 138.125C207.862 138.324 207.809 138.564 207.807 138.845ZM219.715 136.083V137.447H215.773V136.083H219.715ZM216.668 134.515H218.483V140.618C218.483 140.785 218.509 140.916 218.56 141.01C218.611 141.1 218.682 141.164 218.773 141.201C218.867 141.238 218.975 141.257 219.097 141.257C219.182 141.257 219.268 141.25 219.353 141.235C219.438 141.218 219.503 141.206 219.549 141.197L219.834 142.548C219.743 142.576 219.616 142.609 219.451 142.646C219.286 142.686 219.086 142.71 218.85 142.718C218.412 142.735 218.029 142.677 217.699 142.544C217.373 142.41 217.118 142.203 216.937 141.922C216.755 141.64 216.665 141.285 216.668 140.856V134.515ZM223.785 142.757C223.123 142.757 222.55 142.616 222.067 142.335C221.587 142.051 221.216 141.656 220.955 141.15C220.694 140.642 220.563 140.052 220.563 139.382C220.563 138.706 220.694 138.115 220.955 137.609C221.216 137.1 221.587 136.706 222.067 136.424C222.55 136.14 223.123 135.998 223.785 135.998C224.447 135.998 225.018 136.14 225.498 136.424C225.981 136.706 226.353 137.1 226.614 137.609C226.876 138.115 227.006 138.706 227.006 139.382C227.006 140.052 226.876 140.642 226.614 141.15C226.353 141.656 225.981 142.051 225.498 142.335C225.018 142.616 224.447 142.757 223.785 142.757ZM223.793 141.35C224.094 141.35 224.346 141.265 224.547 141.095C224.749 140.922 224.901 140.686 225.003 140.387C225.108 140.089 225.161 139.75 225.161 139.369C225.161 138.988 225.108 138.649 225.003 138.35C224.901 138.052 224.749 137.816 224.547 137.643C224.346 137.47 224.094 137.383 223.793 137.383C223.489 137.383 223.233 137.47 223.026 137.643C222.822 137.816 222.667 138.052 222.562 138.35C222.459 138.649 222.408 138.988 222.408 139.369C222.408 139.75 222.459 140.089 222.562 140.387C222.667 140.686 222.822 140.922 223.026 141.095C223.233 141.265 223.489 141.35 223.793 141.35ZM236.41 137.95L234.748 138.052C234.72 137.91 234.659 137.782 234.565 137.669C234.471 137.552 234.347 137.46 234.194 137.392C234.043 137.321 233.863 137.285 233.653 137.285C233.372 137.285 233.134 137.345 232.941 137.464C232.748 137.581 232.651 137.737 232.651 137.933C232.651 138.089 232.714 138.221 232.839 138.329C232.964 138.437 233.178 138.524 233.482 138.589L234.667 138.828C235.303 138.958 235.778 139.169 236.09 139.458C236.403 139.748 236.559 140.129 236.559 140.6C236.559 141.029 236.433 141.406 236.18 141.73C235.93 142.054 235.586 142.306 235.149 142.488C234.714 142.667 234.213 142.757 233.644 142.757C232.778 142.757 232.088 142.576 231.573 142.216C231.062 141.852 230.762 141.358 230.674 140.733L232.46 140.639C232.514 140.903 232.644 141.105 232.852 141.244C233.059 141.38 233.325 141.449 233.649 141.449C233.967 141.449 234.222 141.387 234.416 141.265C234.612 141.14 234.711 140.98 234.714 140.784C234.711 140.619 234.641 140.484 234.505 140.379C234.369 140.271 234.159 140.189 233.874 140.132L232.741 139.906C232.102 139.778 231.626 139.556 231.313 139.241C231.004 138.926 230.849 138.524 230.849 138.035C230.849 137.615 230.963 137.252 231.19 136.949C231.42 136.645 231.742 136.41 232.157 136.245C232.575 136.081 233.063 135.998 233.623 135.998C234.45 135.998 235.1 136.173 235.575 136.522C236.052 136.872 236.33 137.348 236.41 137.95ZM241.184 136.083V137.447H237.242V136.083H241.184ZM238.137 134.515H239.952V140.618C239.952 140.785 239.978 140.916 240.029 141.01C240.08 141.1 240.151 141.164 240.242 141.201C240.336 141.238 240.444 141.257 240.566 141.257C240.651 141.257 240.736 141.25 240.822 141.235C240.907 141.218 240.972 141.206 241.018 141.197L241.303 142.548C241.212 142.576 241.084 142.609 240.92 142.646C240.755 142.686 240.554 142.71 240.319 142.718C239.881 142.735 239.498 142.677 239.168 142.544C238.841 142.41 238.587 142.203 238.405 141.922C238.224 141.64 238.134 141.285 238.137 140.856V134.515ZM244.233 142.752C243.815 142.752 243.443 142.68 243.116 142.535C242.79 142.387 242.531 142.17 242.341 141.883C242.153 141.593 242.059 141.233 242.059 140.801C242.059 140.437 242.126 140.132 242.26 139.885C242.393 139.637 242.575 139.439 242.805 139.288C243.035 139.137 243.297 139.024 243.589 138.947C243.885 138.87 244.194 138.816 244.518 138.785C244.899 138.745 245.206 138.708 245.439 138.674C245.672 138.637 245.841 138.583 245.946 138.512C246.051 138.441 246.103 138.336 246.103 138.197V138.172C246.103 137.902 246.018 137.693 245.848 137.545C245.68 137.397 245.442 137.324 245.132 137.324C244.805 137.324 244.545 137.396 244.352 137.541C244.159 137.683 244.031 137.862 243.969 138.078L242.29 137.941C242.375 137.544 242.542 137.2 242.792 136.91C243.042 136.618 243.365 136.393 243.76 136.237C244.157 136.078 244.618 135.998 245.14 135.998C245.504 135.998 245.852 136.041 246.184 136.126C246.52 136.211 246.817 136.343 247.075 136.522C247.336 136.701 247.542 136.931 247.693 137.213C247.844 137.491 247.919 137.825 247.919 138.214V142.629H246.197V141.721H246.146C246.041 141.926 245.9 142.106 245.724 142.262C245.548 142.416 245.336 142.537 245.089 142.625C244.842 142.71 244.557 142.752 244.233 142.752ZM244.753 141.5C245.02 141.5 245.255 141.447 245.46 141.342C245.665 141.234 245.825 141.089 245.942 140.907C246.058 140.725 246.116 140.52 246.116 140.289V139.595C246.059 139.632 245.981 139.666 245.882 139.697C245.785 139.725 245.676 139.752 245.554 139.778C245.432 139.801 245.309 139.822 245.187 139.842C245.065 139.859 244.954 139.875 244.855 139.889C244.642 139.92 244.456 139.97 244.297 140.038C244.138 140.106 244.014 140.199 243.926 140.315C243.838 140.429 243.794 140.571 243.794 140.741C243.794 140.988 243.883 141.177 244.062 141.308C244.244 141.436 244.474 141.5 244.753 141.5ZM249.327 142.629V136.083H251.087V137.225H251.155C251.275 136.819 251.475 136.512 251.756 136.305C252.037 136.095 252.361 135.99 252.728 135.99C252.819 135.99 252.917 135.995 253.022 136.007C253.127 136.018 253.219 136.034 253.299 136.054V137.664C253.214 137.639 253.096 137.616 252.945 137.596C252.795 137.576 252.657 137.566 252.532 137.566C252.265 137.566 252.026 137.625 251.816 137.741C251.608 137.855 251.444 138.014 251.322 138.218C251.202 138.423 251.143 138.659 251.143 138.926V142.629H249.327ZM258.047 136.083V137.447H254.105V136.083H258.047ZM255 134.515H256.815V140.618C256.815 140.785 256.841 140.916 256.892 141.01C256.943 141.1 257.014 141.164 257.105 141.201C257.199 141.238 257.307 141.257 257.429 141.257C257.514 141.257 257.6 141.25 257.685 141.235C257.77 141.218 257.835 141.206 257.881 141.197L258.166 142.548C258.075 142.576 257.948 142.609 257.783 142.646C257.618 142.686 257.418 142.71 257.182 142.718C256.744 142.735 256.361 142.677 256.031 142.544C255.705 142.41 255.45 142.203 255.269 141.922C255.087 141.64 254.997 141.285 255 140.856V134.515ZM180.96 160.629V154.083H182.72V155.225H182.788C182.907 154.819 183.108 154.512 183.389 154.305C183.67 154.095 183.994 153.99 184.361 153.99C184.452 153.99 184.55 153.995 184.655 154.007C184.76 154.018 184.852 154.034 184.932 154.054V155.664C184.846 155.639 184.728 155.616 184.578 155.596C184.427 155.576 184.29 155.566 184.165 155.566C183.898 155.566 183.659 155.625 183.449 155.741C183.241 155.855 183.077 156.014 182.954 156.218C182.835 156.423 182.775 156.659 182.775 156.926V160.629H180.96ZM188.548 160.757C187.875 160.757 187.296 160.62 186.81 160.348C186.327 160.072 185.955 159.683 185.693 159.18C185.432 158.674 185.301 158.076 185.301 157.386C185.301 156.713 185.432 156.122 185.693 155.613C185.955 155.105 186.323 154.708 186.797 154.424C187.274 154.14 187.834 153.998 188.476 153.998C188.908 153.998 189.31 154.068 189.682 154.207C190.057 154.343 190.384 154.549 190.662 154.825C190.943 155.1 191.162 155.447 191.318 155.865C191.475 156.279 191.553 156.765 191.553 157.322V157.821H186.026V156.696H189.844C189.844 156.434 189.787 156.203 189.673 156.001C189.56 155.799 189.402 155.642 189.2 155.528C189.002 155.412 188.77 155.353 188.506 155.353C188.23 155.353 187.986 155.417 187.773 155.545C187.563 155.67 187.398 155.839 187.279 156.052C187.159 156.262 187.098 156.497 187.095 156.755V157.825C187.095 158.149 187.155 158.429 187.274 158.664C187.396 158.9 187.568 159.082 187.79 159.21C188.012 159.338 188.274 159.402 188.578 159.402C188.78 159.402 188.965 159.373 189.132 159.316C189.3 159.26 189.443 159.174 189.563 159.061C189.682 158.947 189.773 158.808 189.835 158.643L191.514 158.754C191.429 159.157 191.254 159.51 190.99 159.811C190.729 160.109 190.391 160.342 189.976 160.51C189.564 160.674 189.088 160.757 188.548 160.757ZM194.604 160.752C194.186 160.752 193.814 160.68 193.487 160.535C193.161 160.387 192.902 160.17 192.712 159.883C192.524 159.593 192.431 159.233 192.431 158.801C192.431 158.437 192.497 158.132 192.631 157.885C192.764 157.637 192.946 157.439 193.176 157.288C193.406 157.137 193.668 157.024 193.96 156.947C194.256 156.87 194.565 156.816 194.889 156.785C195.27 156.745 195.577 156.708 195.81 156.674C196.043 156.637 196.212 156.583 196.317 156.512C196.422 156.441 196.475 156.336 196.475 156.197V156.172C196.475 155.902 196.389 155.693 196.219 155.545C196.051 155.397 195.813 155.324 195.503 155.324C195.176 155.324 194.916 155.396 194.723 155.541C194.53 155.683 194.402 155.862 194.34 156.078L192.661 155.941C192.746 155.544 192.914 155.2 193.164 154.91C193.414 154.618 193.736 154.393 194.131 154.237C194.529 154.078 194.989 153.998 195.512 153.998C195.875 153.998 196.223 154.041 196.556 154.126C196.891 154.211 197.188 154.343 197.446 154.522C197.708 154.701 197.914 154.931 198.064 155.213C198.215 155.491 198.29 155.825 198.29 156.214V160.629H196.568V159.721H196.517C196.412 159.926 196.271 160.106 196.095 160.262C195.919 160.416 195.708 160.537 195.46 160.625C195.213 160.71 194.928 160.752 194.604 160.752ZM195.124 159.5C195.391 159.5 195.627 159.447 195.831 159.342C196.036 159.234 196.196 159.089 196.313 158.907C196.429 158.725 196.487 158.52 196.487 158.289V157.595C196.431 157.632 196.352 157.666 196.253 157.697C196.156 157.725 196.047 157.752 195.925 157.778C195.803 157.801 195.681 157.822 195.558 157.842C195.436 157.859 195.325 157.875 195.226 157.889C195.013 157.92 194.827 157.97 194.668 158.038C194.509 158.106 194.385 158.199 194.297 158.315C194.209 158.429 194.165 158.571 194.165 158.741C194.165 158.988 194.254 159.177 194.433 159.308C194.615 159.436 194.845 159.5 195.124 159.5ZM202.11 160.735C201.613 160.735 201.163 160.608 200.759 160.352C200.359 160.093 200.041 159.714 199.805 159.214C199.572 158.711 199.455 158.095 199.455 157.365C199.455 156.615 199.576 155.991 199.818 155.494C200.059 154.994 200.38 154.62 200.781 154.373C201.184 154.123 201.626 153.998 202.106 153.998C202.472 153.998 202.778 154.061 203.022 154.186C203.269 154.308 203.468 154.461 203.619 154.646C203.772 154.828 203.889 155.007 203.968 155.183H204.024V151.902H205.835V160.629H204.045V159.581H203.968C203.883 159.762 203.762 159.943 203.606 160.122C203.453 160.298 203.252 160.444 203.005 160.561C202.761 160.677 202.463 160.735 202.11 160.735ZM202.686 159.291C202.978 159.291 203.225 159.211 203.427 159.052C203.632 158.89 203.788 158.664 203.896 158.375C204.007 158.085 204.062 157.745 204.062 157.356C204.062 156.967 204.008 156.629 203.9 156.342C203.792 156.055 203.636 155.833 203.431 155.677C203.227 155.521 202.978 155.443 202.686 155.443C202.387 155.443 202.136 155.524 201.931 155.686C201.727 155.848 201.572 156.072 201.467 156.359C201.362 156.646 201.309 156.978 201.309 157.356C201.309 157.737 201.362 158.074 201.467 158.366C201.575 158.656 201.73 158.883 201.931 159.048C202.136 159.21 202.387 159.291 202.686 159.291ZM207.327 160.629V154.083H209.143V160.629H207.327ZM208.239 153.24C207.969 153.24 207.738 153.15 207.545 152.971C207.354 152.789 207.259 152.572 207.259 152.319C207.259 152.069 207.354 151.855 207.545 151.676C207.738 151.494 207.969 151.403 208.239 151.403C208.509 151.403 208.739 151.494 208.929 151.676C209.123 151.855 209.219 152.069 209.219 152.319C209.219 152.572 209.123 152.789 208.929 152.971C208.739 153.15 208.509 153.24 208.239 153.24ZM212.412 156.845V160.629H210.597V154.083H212.327V155.238H212.404C212.548 154.858 212.791 154.556 213.132 154.335C213.473 154.11 213.887 153.998 214.372 153.998C214.827 153.998 215.223 154.098 215.561 154.297C215.899 154.495 216.162 154.779 216.35 155.149C216.537 155.515 216.631 155.953 216.631 156.461V160.629H214.815V156.785C214.818 156.385 214.716 156.072 214.509 155.848C214.301 155.62 214.016 155.507 213.652 155.507C213.408 155.507 213.192 155.559 213.004 155.664C212.82 155.77 212.675 155.923 212.57 156.125C212.467 156.324 212.415 156.564 212.412 156.845ZM221.01 163.22C220.422 163.22 219.918 163.139 219.498 162.977C219.08 162.818 218.748 162.6 218.501 162.325C218.253 162.049 218.093 161.74 218.019 161.396L219.698 161.17C219.749 161.301 219.83 161.423 219.941 161.537C220.052 161.65 220.198 161.741 220.38 161.809C220.564 161.88 220.789 161.916 221.053 161.916C221.448 161.916 221.773 161.819 222.029 161.626C222.287 161.436 222.417 161.116 222.417 160.667V159.47H222.34C222.26 159.652 222.141 159.824 221.982 159.985C221.823 160.147 221.618 160.279 221.368 160.382C221.118 160.484 220.82 160.535 220.474 160.535C219.982 160.535 219.535 160.422 219.131 160.194C218.731 159.964 218.411 159.613 218.172 159.142C217.937 158.667 217.819 158.068 217.819 157.343C217.819 156.602 217.939 155.983 218.181 155.485C218.422 154.988 218.743 154.616 219.144 154.369C219.547 154.122 219.989 153.998 220.469 153.998C220.836 153.998 221.143 154.061 221.39 154.186C221.637 154.308 221.836 154.461 221.986 154.646C222.14 154.828 222.258 155.007 222.34 155.183H222.408V154.083H224.211V160.693C224.211 161.25 224.074 161.716 223.802 162.091C223.529 162.466 223.151 162.747 222.668 162.934C222.188 163.125 221.635 163.22 221.01 163.22ZM221.049 159.172C221.341 159.172 221.589 159.099 221.79 158.954C221.995 158.806 222.151 158.596 222.259 158.324C222.37 158.048 222.425 157.718 222.425 157.335C222.425 156.951 222.371 156.619 222.263 156.338C222.155 156.054 221.999 155.833 221.795 155.677C221.59 155.521 221.341 155.443 221.049 155.443C220.751 155.443 220.499 155.524 220.295 155.686C220.09 155.845 219.935 156.066 219.83 156.35C219.725 156.635 219.672 156.963 219.672 157.335C219.672 157.713 219.725 158.039 219.83 158.315C219.938 158.588 220.093 158.799 220.295 158.95C220.499 159.098 220.751 159.172 221.049 159.172ZM233.683 161.106L232.694 160.126L235.289 157.531H229.208V156.091H235.289L232.694 153.5L233.683 152.515L237.978 156.811L233.683 161.106Z" fill="black"/>
<path d="M185.716 202.561L181.42 198.265L185.716 193.97L186.704 194.95L184.109 197.545H190.19V198.985H184.109L186.704 201.576L185.716 202.561ZM200.611 193.902H202.456V199.569C202.456 200.206 202.304 200.762 202.001 201.24C201.699 201.717 201.277 202.089 200.735 202.356C200.192 202.62 199.56 202.752 198.839 202.752C198.114 202.752 197.481 202.62 196.938 202.356C196.395 202.089 195.974 201.717 195.672 201.24C195.371 200.762 195.221 200.206 195.221 199.569V193.902H197.066V199.412C197.066 199.744 197.138 200.039 197.283 200.298C197.431 200.556 197.638 200.76 197.905 200.907C198.172 201.055 198.483 201.129 198.839 201.129C199.197 201.129 199.508 201.055 199.772 200.907C200.039 200.76 200.245 200.556 200.39 200.298C200.537 200.039 200.611 199.744 200.611 199.412V193.902ZM209.387 197.95L207.725 198.052C207.696 197.91 207.635 197.782 207.541 197.669C207.448 197.552 207.324 197.46 207.171 197.392C207.02 197.321 206.84 197.285 206.629 197.285C206.348 197.285 206.111 197.345 205.918 197.464C205.725 197.581 205.628 197.737 205.628 197.933C205.628 198.089 205.69 198.221 205.815 198.329C205.94 198.437 206.155 198.524 206.459 198.589L207.644 198.828C208.28 198.958 208.754 199.169 209.067 199.458C209.379 199.748 209.536 200.129 209.536 200.6C209.536 201.029 209.409 201.406 209.156 201.73C208.906 202.054 208.563 202.306 208.125 202.488C207.69 202.667 207.189 202.757 206.621 202.757C205.754 202.757 205.064 202.576 204.55 202.216C204.039 201.852 203.739 201.358 203.651 200.733L205.436 200.639C205.49 200.903 205.621 201.105 205.828 201.244C206.036 201.38 206.301 201.449 206.625 201.449C206.943 201.449 207.199 201.387 207.392 201.265C207.588 201.14 207.688 200.98 207.69 200.784C207.688 200.619 207.618 200.484 207.482 200.379C207.345 200.271 207.135 200.189 206.851 200.132L205.717 199.906C205.078 199.778 204.602 199.556 204.29 199.241C203.98 198.926 203.825 198.524 203.825 198.035C203.825 197.615 203.939 197.252 204.166 196.949C204.396 196.645 204.719 196.41 205.134 196.245C205.551 196.081 206.04 195.998 206.6 195.998C207.426 195.998 208.077 196.173 208.551 196.522C209.029 196.872 209.307 197.348 209.387 197.95ZM213.662 202.757C212.988 202.757 212.409 202.62 211.923 202.348C211.44 202.072 211.068 201.683 210.807 201.18C210.545 200.674 210.415 200.076 210.415 199.386C210.415 198.713 210.545 198.122 210.807 197.613C211.068 197.105 211.436 196.708 211.91 196.424C212.388 196.14 212.947 195.998 213.589 195.998C214.021 195.998 214.423 196.068 214.795 196.207C215.17 196.343 215.497 196.549 215.775 196.825C216.057 197.1 216.275 197.447 216.432 197.865C216.588 198.279 216.666 198.765 216.666 199.322V199.821H211.139V198.696H214.957C214.957 198.434 214.9 198.203 214.787 198.001C214.673 197.799 214.515 197.642 214.314 197.528C214.115 197.412 213.883 197.353 213.619 197.353C213.344 197.353 213.099 197.417 212.886 197.545C212.676 197.67 212.511 197.839 212.392 198.052C212.273 198.262 212.211 198.497 212.209 198.755V199.825C212.209 200.149 212.268 200.429 212.388 200.664C212.51 200.9 212.682 201.082 212.903 201.21C213.125 201.338 213.388 201.402 213.692 201.402C213.893 201.402 214.078 201.373 214.246 201.316C214.413 201.26 214.557 201.174 214.676 201.061C214.795 200.947 214.886 200.808 214.949 200.643L216.628 200.754C216.542 201.157 216.368 201.51 216.103 201.811C215.842 202.109 215.504 202.342 215.089 202.51C214.677 202.674 214.202 202.757 213.662 202.757ZM217.851 202.629V196.083H219.611V197.225H219.679C219.798 196.819 219.998 196.512 220.28 196.305C220.561 196.095 220.885 195.99 221.251 195.99C221.342 195.99 221.44 195.995 221.545 196.007C221.65 196.018 221.743 196.034 221.822 196.054V197.664C221.737 197.639 221.619 197.616 221.469 197.596C221.318 197.576 221.18 197.566 221.055 197.566C220.788 197.566 220.55 197.625 220.339 197.741C220.132 197.855 219.967 198.014 219.845 198.218C219.726 198.423 219.666 198.659 219.666 198.926V202.629H217.851ZM230.984 197.95L229.322 198.052C229.294 197.91 229.233 197.782 229.139 197.669C229.045 197.552 228.922 197.46 228.768 197.392C228.618 197.321 228.437 197.285 228.227 197.285C227.946 197.285 227.709 197.345 227.515 197.464C227.322 197.581 227.226 197.737 227.226 197.933C227.226 198.089 227.288 198.221 227.413 198.329C227.538 198.437 227.753 198.524 228.057 198.589L229.241 198.828C229.878 198.958 230.352 199.169 230.665 199.458C230.977 199.748 231.133 200.129 231.133 200.6C231.133 201.029 231.007 201.406 230.754 201.73C230.504 202.054 230.16 202.306 229.723 202.488C229.288 202.667 228.787 202.757 228.219 202.757C227.352 202.757 226.662 202.576 226.148 202.216C225.636 201.852 225.336 201.358 225.248 200.733L227.034 200.639C227.088 200.903 227.219 201.105 227.426 201.244C227.633 201.38 227.899 201.449 228.223 201.449C228.541 201.449 228.797 201.387 228.99 201.265C229.186 201.14 229.285 200.98 229.288 200.784C229.285 200.619 229.216 200.484 229.079 200.379C228.943 200.271 228.733 200.189 228.449 200.132L227.315 199.906C226.676 199.778 226.2 199.556 225.888 199.241C225.578 198.926 225.423 198.524 225.423 198.035C225.423 197.615 225.537 197.252 225.764 196.949C225.994 196.645 226.317 196.41 226.731 196.245C227.149 196.081 227.638 195.998 228.197 195.998C229.024 195.998 229.675 196.173 230.149 196.522C230.626 196.872 230.905 197.348 230.984 197.95ZM235.234 202.757C234.563 202.757 233.987 202.615 233.504 202.331C233.024 202.044 232.654 201.646 232.396 201.137C232.14 200.629 232.012 200.044 232.012 199.382C232.012 198.711 232.141 198.123 232.4 197.618C232.661 197.109 233.032 196.713 233.512 196.429C233.992 196.142 234.563 195.998 235.225 195.998C235.796 195.998 236.296 196.102 236.725 196.309C237.154 196.517 237.494 196.808 237.744 197.183C237.994 197.558 238.132 197.998 238.157 198.504H236.444C236.396 198.177 236.268 197.914 236.061 197.716C235.856 197.514 235.588 197.413 235.255 197.413C234.974 197.413 234.728 197.49 234.518 197.643C234.311 197.794 234.149 198.014 234.032 198.304C233.916 198.593 233.857 198.944 233.857 199.356C233.857 199.774 233.914 200.129 234.028 200.422C234.144 200.714 234.308 200.937 234.518 201.091C234.728 201.244 234.974 201.321 235.255 201.321C235.463 201.321 235.649 201.278 235.813 201.193C235.981 201.108 236.119 200.984 236.227 200.822C236.338 200.657 236.41 200.46 236.444 200.23H238.157C238.129 200.73 237.992 201.17 237.748 201.551C237.507 201.929 237.173 202.224 236.747 202.437C236.32 202.65 235.816 202.757 235.234 202.757ZM239.319 202.629V196.083H241.079V197.225H241.148C241.267 196.819 241.467 196.512 241.748 196.305C242.03 196.095 242.353 195.99 242.72 195.99C242.811 195.99 242.909 195.995 243.014 196.007C243.119 196.018 243.211 196.034 243.291 196.054V197.664C243.206 197.639 243.088 197.616 242.937 197.596C242.787 197.576 242.649 197.566 242.524 197.566C242.257 197.566 242.018 197.625 241.808 197.741C241.601 197.855 241.436 198.014 241.314 198.218C241.194 198.423 241.135 198.659 241.135 198.926V202.629H239.319ZM246.882 202.757C246.22 202.757 245.648 202.616 245.165 202.335C244.685 202.051 244.314 201.656 244.053 201.15C243.791 200.642 243.661 200.052 243.661 199.382C243.661 198.706 243.791 198.115 244.053 197.609C244.314 197.1 244.685 196.706 245.165 196.424C245.648 196.14 246.22 195.998 246.882 195.998C247.544 195.998 248.115 196.14 248.595 196.424C249.078 196.706 249.45 197.1 249.712 197.609C249.973 198.115 250.104 198.706 250.104 199.382C250.104 200.052 249.973 200.642 249.712 201.15C249.45 201.656 249.078 202.051 248.595 202.335C248.115 202.616 247.544 202.757 246.882 202.757ZM246.891 201.35C247.192 201.35 247.443 201.265 247.645 201.095C247.847 200.922 247.999 200.686 248.101 200.387C248.206 200.089 248.259 199.75 248.259 199.369C248.259 198.988 248.206 198.649 248.101 198.35C247.999 198.052 247.847 197.816 247.645 197.643C247.443 197.47 247.192 197.383 246.891 197.383C246.587 197.383 246.331 197.47 246.124 197.643C245.919 197.816 245.764 198.052 245.659 198.35C245.557 198.649 245.506 198.988 245.506 199.369C245.506 199.75 245.557 200.089 245.659 200.387C245.764 200.686 245.919 200.922 246.124 201.095C246.331 201.265 246.587 201.35 246.891 201.35ZM253.1 193.902V202.629H251.284V193.902H253.1ZM256.369 193.902V202.629H254.554V193.902H256.369ZM263.269 197.95L261.607 198.052C261.579 197.91 261.518 197.782 261.424 197.669C261.33 197.552 261.207 197.46 261.053 197.392C260.903 197.321 260.722 197.285 260.512 197.285C260.231 197.285 259.994 197.345 259.801 197.464C259.607 197.581 259.511 197.737 259.511 197.933C259.511 198.089 259.573 198.221 259.698 198.329C259.823 198.437 260.038 198.524 260.342 198.589L261.526 198.828C262.163 198.958 262.637 199.169 262.95 199.458C263.262 199.748 263.418 200.129 263.418 200.6C263.418 201.029 263.292 201.406 263.039 201.73C262.789 202.054 262.445 202.306 262.008 202.488C261.573 202.667 261.072 202.757 260.504 202.757C259.637 202.757 258.947 202.576 258.433 202.216C257.921 201.852 257.622 201.358 257.534 200.733L259.319 200.639C259.373 200.903 259.504 201.105 259.711 201.244C259.918 201.38 260.184 201.449 260.508 201.449C260.826 201.449 261.082 201.387 261.275 201.265C261.471 201.14 261.57 200.98 261.573 200.784C261.57 200.619 261.501 200.484 261.365 200.379C261.228 200.271 261.018 200.189 260.734 200.132L259.6 199.906C258.961 199.778 258.485 199.556 258.173 199.241C257.863 198.926 257.708 198.524 257.708 198.035C257.708 197.615 257.822 197.252 258.049 196.949C258.279 196.645 258.602 196.41 259.016 196.245C259.434 196.081 259.923 195.998 260.482 195.998C261.309 195.998 261.96 196.173 262.434 196.522C262.911 196.872 263.19 197.348 263.269 197.95ZM185.157 217.842V214.083H186.973V220.629H185.23V219.44H185.162C185.014 219.824 184.768 220.132 184.425 220.365C184.084 220.598 183.667 220.714 183.176 220.714C182.738 220.714 182.353 220.615 182.021 220.416C181.689 220.217 181.429 219.934 181.241 219.568C181.057 219.201 180.963 218.762 180.96 218.251V214.083H182.775V217.927C182.778 218.314 182.882 218.619 183.086 218.843C183.291 219.068 183.565 219.18 183.909 219.18C184.128 219.18 184.332 219.13 184.523 219.031C184.713 218.929 184.866 218.778 184.983 218.579C185.102 218.38 185.16 218.135 185.157 217.842ZM188.425 223.083V214.083H190.215V215.183H190.296C190.375 215.007 190.49 214.828 190.641 214.646C190.794 214.461 190.993 214.308 191.237 214.186C191.485 214.061 191.791 213.998 192.158 213.998C192.635 213.998 193.075 214.123 193.479 214.373C193.882 214.62 194.205 214.994 194.446 215.494C194.688 215.991 194.808 216.615 194.808 217.365C194.808 218.095 194.69 218.711 194.455 219.214C194.222 219.714 193.904 220.093 193.5 220.352C193.1 220.608 192.651 220.735 192.154 220.735C191.801 220.735 191.502 220.677 191.254 220.561C191.01 220.444 190.81 220.298 190.654 220.122C190.497 219.943 190.378 219.762 190.296 219.581H190.24V223.083H188.425ZM190.202 217.356C190.202 217.745 190.256 218.085 190.364 218.375C190.472 218.664 190.628 218.89 190.833 219.052C191.037 219.211 191.286 219.291 191.578 219.291C191.874 219.291 192.124 219.21 192.328 219.048C192.533 218.883 192.688 218.656 192.793 218.366C192.901 218.074 192.955 217.737 192.955 217.356C192.955 216.978 192.902 216.646 192.797 216.359C192.692 216.072 192.537 215.848 192.333 215.686C192.128 215.524 191.877 215.443 191.578 215.443C191.283 215.443 191.033 215.521 190.828 215.677C190.627 215.833 190.472 216.055 190.364 216.342C190.256 216.629 190.202 216.967 190.202 217.356ZM202.277 214.083V215.447H198.336V214.083H202.277ZM199.231 212.515H201.046V218.618C201.046 218.785 201.072 218.916 201.123 219.01C201.174 219.1 201.245 219.164 201.336 219.201C201.429 219.238 201.537 219.257 201.66 219.257C201.745 219.257 201.83 219.25 201.915 219.235C202.001 219.218 202.066 219.206 202.111 219.197L202.397 220.548C202.306 220.576 202.178 220.609 202.013 220.646C201.849 220.686 201.648 220.71 201.412 220.718C200.975 220.735 200.591 220.677 200.262 220.544C199.935 220.41 199.681 220.203 199.499 219.922C199.317 219.64 199.228 219.285 199.231 218.856V212.515ZM206.347 220.757C205.685 220.757 205.113 220.616 204.63 220.335C204.15 220.051 203.779 219.656 203.518 219.15C203.256 218.642 203.126 218.052 203.126 217.382C203.126 216.706 203.256 216.115 203.518 215.609C203.779 215.1 204.15 214.706 204.63 214.424C205.113 214.14 205.685 213.998 206.347 213.998C207.009 213.998 207.58 214.14 208.06 214.424C208.543 214.706 208.915 215.1 209.177 215.609C209.438 216.115 209.569 216.706 209.569 217.382C209.569 218.052 209.438 218.642 209.177 219.15C208.915 219.656 208.543 220.051 208.06 220.335C207.58 220.616 207.009 220.757 206.347 220.757ZM206.356 219.35C206.657 219.35 206.908 219.265 207.11 219.095C207.312 218.922 207.464 218.686 207.566 218.387C207.671 218.089 207.724 217.75 207.724 217.369C207.724 216.988 207.671 216.649 207.566 216.35C207.464 216.052 207.312 215.816 207.11 215.643C206.908 215.47 206.657 215.383 206.356 215.383C206.052 215.383 205.796 215.47 205.589 215.643C205.384 215.816 205.229 216.052 205.124 216.35C205.022 216.649 204.971 216.988 204.971 217.369C204.971 217.75 205.022 218.089 205.124 218.387C205.229 218.686 205.384 218.922 205.589 219.095C205.796 219.265 206.052 219.35 206.356 219.35ZM215.342 216.845V220.629H213.526V214.083H215.257V215.238H215.333C215.478 214.858 215.721 214.556 216.062 214.335C216.403 214.11 216.816 213.998 217.302 213.998C217.757 213.998 218.153 214.098 218.491 214.297C218.829 214.495 219.092 214.779 219.279 215.149C219.467 215.515 219.561 215.953 219.561 216.461V220.629H217.745V216.785C217.748 216.385 217.646 216.072 217.438 215.848C217.231 215.62 216.945 215.507 216.582 215.507C216.338 215.507 216.122 215.559 215.934 215.664C215.749 215.77 215.605 215.923 215.499 216.125C215.397 216.324 215.345 216.564 215.342 216.845ZM222.858 220.752C222.44 220.752 222.068 220.68 221.741 220.535C221.415 220.387 221.156 220.17 220.966 219.883C220.778 219.593 220.684 219.233 220.684 218.801C220.684 218.437 220.751 218.132 220.885 217.885C221.018 217.637 221.2 217.439 221.43 217.288C221.66 217.137 221.922 217.024 222.214 216.947C222.51 216.87 222.819 216.816 223.143 216.785C223.524 216.745 223.831 216.708 224.064 216.674C224.297 216.637 224.466 216.583 224.571 216.512C224.676 216.441 224.728 216.336 224.728 216.197V216.172C224.728 215.902 224.643 215.693 224.473 215.545C224.305 215.397 224.067 215.324 223.757 215.324C223.43 215.324 223.17 215.396 222.977 215.541C222.784 215.683 222.656 215.862 222.594 216.078L220.915 215.941C221 215.544 221.167 215.2 221.417 214.91C221.667 214.618 221.99 214.393 222.385 214.237C222.782 214.078 223.243 213.998 223.765 213.998C224.129 213.998 224.477 214.041 224.809 214.126C225.145 214.211 225.442 214.343 225.7 214.522C225.961 214.701 226.167 214.931 226.318 215.213C226.469 215.491 226.544 215.825 226.544 216.214V220.629H224.822V219.721H224.771C224.666 219.926 224.525 220.106 224.349 220.262C224.173 220.416 223.961 220.537 223.714 220.625C223.467 220.71 223.182 220.752 222.858 220.752ZM223.378 219.5C223.645 219.5 223.88 219.447 224.085 219.342C224.29 219.234 224.45 219.089 224.567 218.907C224.683 218.725 224.741 218.52 224.741 218.289V217.595C224.684 217.632 224.606 217.666 224.507 217.697C224.41 217.725 224.301 217.752 224.179 217.778C224.057 217.801 223.934 217.822 223.812 217.842C223.69 217.859 223.579 217.875 223.48 217.889C223.267 217.92 223.081 217.97 222.922 218.038C222.763 218.106 222.639 218.199 222.551 218.315C222.463 218.429 222.419 218.571 222.419 218.741C222.419 218.988 222.508 219.177 222.687 219.308C222.869 219.436 223.099 219.5 223.378 219.5ZM233.82 214.083L231.532 220.629H229.486L227.198 214.083H229.116L230.475 218.767H230.543L231.898 214.083H233.82ZM234.749 220.629V214.083H236.564V220.629H234.749ZM235.661 213.24C235.391 213.24 235.16 213.15 234.966 212.971C234.776 212.789 234.681 212.572 234.681 212.319C234.681 212.069 234.776 211.855 234.966 211.676C235.16 211.494 235.391 211.403 235.661 211.403C235.931 211.403 236.161 211.494 236.351 211.676C236.545 211.855 236.641 212.069 236.641 212.319C236.641 212.572 236.545 212.789 236.351 212.971C236.161 213.15 235.931 213.24 235.661 213.24ZM240.967 223.22C240.379 223.22 239.875 223.139 239.455 222.977C239.037 222.818 238.705 222.6 238.458 222.325C238.21 222.049 238.05 221.74 237.976 221.396L239.655 221.17C239.706 221.301 239.787 221.423 239.898 221.537C240.009 221.65 240.155 221.741 240.337 221.809C240.521 221.88 240.746 221.916 241.01 221.916C241.405 221.916 241.73 221.819 241.986 221.626C242.244 221.436 242.374 221.116 242.374 220.667V219.47H242.297C242.217 219.652 242.098 219.824 241.939 219.985C241.78 220.147 241.575 220.279 241.325 220.382C241.075 220.484 240.777 220.535 240.431 220.535C239.939 220.535 239.492 220.422 239.088 220.194C238.688 219.964 238.368 219.613 238.129 219.142C237.894 218.667 237.776 218.068 237.776 217.343C237.776 216.602 237.896 215.983 238.138 215.485C238.379 214.988 238.7 214.616 239.101 214.369C239.504 214.122 239.946 213.998 240.426 213.998C240.793 213.998 241.1 214.061 241.347 214.186C241.594 214.308 241.793 214.461 241.943 214.646C242.097 214.828 242.215 215.007 242.297 215.183H242.365V214.083H244.168V220.693C244.168 221.25 244.031 221.716 243.759 222.091C243.486 222.466 243.108 222.747 242.625 222.934C242.145 223.125 241.592 223.22 240.967 223.22ZM241.006 219.172C241.298 219.172 241.546 219.099 241.747 218.954C241.952 218.806 242.108 218.596 242.216 218.324C242.327 218.048 242.382 217.718 242.382 217.335C242.382 216.951 242.328 216.619 242.22 216.338C242.112 216.054 241.956 215.833 241.752 215.677C241.547 215.521 241.298 215.443 241.006 215.443C240.708 215.443 240.456 215.524 240.252 215.686C240.047 215.845 239.892 216.066 239.787 216.35C239.682 216.635 239.629 216.963 239.629 217.335C239.629 217.713 239.682 218.039 239.787 218.315C239.895 218.588 240.05 218.799 240.252 218.95C240.456 219.098 240.708 219.172 241.006 219.172ZM247.479 220.752C247.061 220.752 246.689 220.68 246.362 220.535C246.036 220.387 245.777 220.17 245.587 219.883C245.399 219.593 245.306 219.233 245.306 218.801C245.306 218.437 245.372 218.132 245.506 217.885C245.639 217.637 245.821 217.439 246.051 217.288C246.281 217.137 246.543 217.024 246.835 216.947C247.131 216.87 247.44 216.816 247.764 216.785C248.145 216.745 248.452 216.708 248.685 216.674C248.918 216.637 249.087 216.583 249.192 216.512C249.297 216.441 249.35 216.336 249.35 216.197V216.172C249.35 215.902 249.264 215.693 249.094 215.545C248.926 215.397 248.688 215.324 248.378 215.324C248.051 215.324 247.791 215.396 247.598 215.541C247.405 215.683 247.277 215.862 247.215 216.078L245.536 215.941C245.621 215.544 245.789 215.2 246.039 214.91C246.289 214.618 246.611 214.393 247.006 214.237C247.404 214.078 247.864 213.998 248.387 213.998C248.75 213.998 249.098 214.041 249.431 214.126C249.766 214.211 250.063 214.343 250.321 214.522C250.583 214.701 250.789 214.931 250.939 215.213C251.09 215.491 251.165 215.825 251.165 216.214V220.629H249.443V219.721H249.392C249.287 219.926 249.146 220.106 248.97 220.262C248.794 220.416 248.583 220.537 248.335 220.625C248.088 220.71 247.803 220.752 247.479 220.752ZM247.999 219.5C248.266 219.5 248.502 219.447 248.706 219.342C248.911 219.234 249.071 219.089 249.188 218.907C249.304 218.725 249.362 218.52 249.362 218.289V217.595C249.306 217.632 249.227 217.666 249.128 217.697C249.031 217.725 248.922 217.752 248.8 217.778C248.678 217.801 248.556 217.822 248.433 217.842C248.311 217.859 248.2 217.875 248.101 217.889C247.888 217.92 247.702 217.97 247.543 218.038C247.384 218.106 247.26 218.199 247.172 218.315C247.084 218.429 247.04 218.571 247.04 218.741C247.04 218.988 247.129 219.177 247.308 219.308C247.49 219.436 247.72 219.5 247.999 219.5ZM256.055 214.083V215.447H252.113V214.083H256.055ZM253.008 212.515H254.823V218.618C254.823 218.785 254.849 218.916 254.9 219.01C254.951 219.1 255.022 219.164 255.113 219.201C255.207 219.238 255.315 219.257 255.437 219.257C255.522 219.257 255.607 219.25 255.693 219.235C255.778 219.218 255.843 219.206 255.889 219.197L256.174 220.548C256.083 220.576 255.955 220.609 255.791 220.646C255.626 220.686 255.426 220.71 255.19 220.718C254.752 220.735 254.369 220.677 254.039 220.544C253.713 220.41 253.458 220.203 253.276 219.922C253.095 219.64 253.005 219.285 253.008 218.856V212.515ZM260.15 220.757C259.477 220.757 258.897 220.62 258.411 220.348C257.928 220.072 257.556 219.683 257.295 219.18C257.034 218.674 256.903 218.076 256.903 217.386C256.903 216.713 257.034 216.122 257.295 215.613C257.556 215.105 257.924 214.708 258.399 214.424C258.876 214.14 259.436 213.998 260.078 213.998C260.509 213.998 260.911 214.068 261.284 214.207C261.659 214.343 261.985 214.549 262.264 214.825C262.545 215.1 262.764 215.447 262.92 215.865C263.076 216.279 263.154 216.765 263.154 217.322V217.821H257.627V216.696H261.445C261.445 216.434 261.389 216.203 261.275 216.001C261.161 215.799 261.004 215.642 260.802 215.528C260.603 215.412 260.372 215.353 260.107 215.353C259.832 215.353 259.588 215.417 259.374 215.545C259.164 215.67 258.999 215.839 258.88 216.052C258.761 216.262 258.7 216.497 258.697 216.755V217.825C258.697 218.149 258.757 218.429 258.876 218.664C258.998 218.9 259.17 219.082 259.391 219.21C259.613 219.338 259.876 219.402 260.18 219.402C260.382 219.402 260.566 219.373 260.734 219.316C260.901 219.26 261.045 219.174 261.164 219.061C261.284 218.947 261.374 218.808 261.437 218.643L263.116 218.754C263.031 219.157 262.856 219.51 262.592 219.811C262.33 220.109 261.992 220.342 261.578 220.51C261.166 220.674 260.69 220.757 260.15 220.757Z" fill="black"/>
</svg>
