<svg width="450" height="210" viewBox="0 0 450 210" fill="none" xmlns="http://www.w3.org/2000/svg">
<rect x="119.87" y="1.28906" width="329.63" height="207.683" fill="white" stroke="#6D6D6D"/>
<rect x="119.37" y="0.789062" width="330.63" height="22.3282" fill="#D9D9D9"/>
<rect x="193.225" y="23.1172" width="186.355" height="73.855" transform="rotate(90 193.225 23.1172)" fill="#707070"/>
<rect x="73.855" y="23.1172" width="186.355" height="73.855" transform="rotate(90 73.855 23.1172)" fill="#707070"/>
<path d="M97.4787 114.75L91.7514 109.022L97.4787 103.295L98.7969 104.602L95.3366 108.062H103.445V109.983H95.3366L98.7969 113.437L97.4787 114.75ZM98.1378 138.75L96.8196 137.443L100.28 133.983H92.1719V132.062H100.28L96.8196 128.608L98.1378 127.295L103.865 133.022L98.1378 138.75Z" fill="black"/>
<path d="M261.063 8.01207V19.6484H258.603V10.3473H258.534L255.87 12.0178V9.83594L258.75 8.01207H261.063ZM271.113 13.4098L268.897 13.5462C268.859 13.3568 268.777 13.1863 268.652 13.0348C268.527 12.8795 268.363 12.7564 268.158 12.6655C267.957 12.5708 267.717 12.5234 267.436 12.5234C267.061 12.5234 266.745 12.603 266.488 12.7621C266.23 12.9174 266.101 13.1257 266.101 13.3871C266.101 13.5954 266.184 13.7715 266.351 13.9155C266.518 14.0594 266.804 14.175 267.209 14.2621L268.789 14.5803C269.637 14.7545 270.27 15.0348 270.686 15.4212C271.103 15.8075 271.311 16.3151 271.311 16.9439C271.311 17.5159 271.143 18.0178 270.806 18.4496C270.472 18.8814 270.014 19.2185 269.431 19.4609C268.851 19.6996 268.183 19.8189 267.425 19.8189C266.27 19.8189 265.349 19.5784 264.664 19.0973C263.982 18.6125 263.582 17.9534 263.465 17.12L265.845 16.995C265.917 17.3473 266.092 17.6162 266.368 17.8018C266.645 17.9837 266.999 18.0746 267.431 18.0746C267.855 18.0746 268.196 17.9931 268.453 17.8303C268.715 17.6636 268.847 17.4496 268.851 17.1882C268.847 16.9685 268.755 16.7886 268.573 16.6484C268.391 16.5045 268.111 16.3946 267.732 16.3189L266.22 16.0178C265.368 15.8473 264.734 15.5518 264.317 15.1314C263.904 14.7109 263.698 14.175 263.698 13.5234C263.698 12.9628 263.849 12.4799 264.152 12.0746C264.459 11.6693 264.889 11.3568 265.442 11.1371C265.999 10.9174 266.65 10.8075 267.397 10.8075C268.499 10.8075 269.366 11.0405 269.999 11.5064C270.635 11.9723 271.006 12.6068 271.113 13.4098ZM277.478 10.9212V12.7393H272.222V10.9212H277.478ZM273.415 8.83026H275.836V16.9666C275.836 17.1901 275.87 17.3643 275.938 17.4893C276.006 17.6106 276.101 17.6958 276.222 17.745C276.347 17.7943 276.491 17.8189 276.654 17.8189C276.767 17.8189 276.881 17.8094 276.995 17.7905C277.108 17.7678 277.195 17.7507 277.256 17.7393L277.637 19.5405C277.515 19.5784 277.345 19.6219 277.125 19.6712C276.906 19.7242 276.639 19.7564 276.324 19.7678C275.741 19.7905 275.229 19.7128 274.79 19.5348C274.354 19.3568 274.015 19.0803 273.773 18.7053C273.531 18.3303 273.411 17.8568 273.415 17.2848V8.83026ZM282.803 19.6484V8.01207H285.263V17.62H290.252V19.6484H282.803ZM295.813 19.8189C294.915 19.8189 294.142 19.6371 293.495 19.2734C292.851 18.906 292.354 18.3871 292.006 17.7166C291.658 17.0424 291.483 16.245 291.483 15.3246C291.483 14.4268 291.658 13.639 292.006 12.9609C292.354 12.2829 292.845 11.7545 293.478 11.3757C294.114 10.9969 294.86 10.8075 295.716 10.8075C296.292 10.8075 296.828 10.9003 297.324 11.0859C297.824 11.2678 298.26 11.5424 298.631 11.9098C299.006 12.2772 299.298 12.7393 299.506 13.2962C299.714 13.8492 299.818 14.4969 299.818 15.2393V15.9041H292.449V14.4041H297.54C297.54 14.0556 297.464 13.7469 297.313 13.478C297.161 13.209 296.951 12.9988 296.682 12.8473C296.417 12.692 296.108 12.6143 295.756 12.6143C295.389 12.6143 295.063 12.6996 294.779 12.87C294.498 13.0367 294.279 13.2621 294.12 13.5462C293.961 13.8265 293.879 14.139 293.875 14.4837V15.9098C293.875 16.3416 293.955 16.7147 294.114 17.0291C294.277 17.3435 294.506 17.5859 294.801 17.7564C295.097 17.9268 295.447 18.0121 295.853 18.0121C296.122 18.0121 296.368 17.9742 296.591 17.8984C296.815 17.8227 297.006 17.709 297.165 17.5575C297.324 17.406 297.445 17.2204 297.529 17.0007L299.767 17.1484C299.654 17.6863 299.421 18.156 299.068 18.5575C298.72 18.9553 298.269 19.2659 297.716 19.4893C297.167 19.709 296.533 19.8189 295.813 19.8189ZM309.3 10.9212L306.249 19.6484H303.522L300.47 10.9212H303.027L304.84 17.1655H304.931L306.738 10.9212H309.3ZM314.235 19.8189C313.337 19.8189 312.564 19.6371 311.917 19.2734C311.273 18.906 310.776 18.3871 310.428 17.7166C310.079 17.0424 309.905 16.245 309.905 15.3246C309.905 14.4268 310.079 13.639 310.428 12.9609C310.776 12.2829 311.267 11.7545 311.899 11.3757C312.536 10.9969 313.282 10.8075 314.138 10.8075C314.714 10.8075 315.25 10.9003 315.746 11.0859C316.246 11.2678 316.682 11.5424 317.053 11.9098C317.428 12.2772 317.72 12.7393 317.928 13.2962C318.136 13.8492 318.24 14.4969 318.24 15.2393V15.9041H310.871V14.4041H315.962C315.962 14.0556 315.886 13.7469 315.735 13.478C315.583 13.209 315.373 12.9988 315.104 12.8473C314.839 12.692 314.53 12.6143 314.178 12.6143C313.81 12.6143 313.485 12.6996 313.201 12.87C312.92 13.0367 312.701 13.2621 312.542 13.5462C312.382 13.8265 312.301 14.139 312.297 14.4837V15.9098C312.297 16.3416 312.377 16.7147 312.536 17.0291C312.699 17.3435 312.928 17.5859 313.223 17.7564C313.519 17.9268 313.869 18.0121 314.274 18.0121C314.543 18.0121 314.79 17.9742 315.013 17.8984C315.237 17.8227 315.428 17.709 315.587 17.5575C315.746 17.406 315.867 17.2204 315.951 17.0007L318.189 17.1484C318.076 17.6863 317.843 18.156 317.49 18.5575C317.142 18.9553 316.691 19.2659 316.138 19.4893C315.589 19.709 314.954 19.8189 314.235 19.8189ZM322.24 8.01207V19.6484H319.82V8.01207H322.24Z" fill="black"/>
<path d="M138.943 82.1445V80.3718L143.085 76.5366C143.438 76.1957 143.733 75.8888 143.972 75.6161C144.214 75.3434 144.398 75.0763 144.523 74.815C144.648 74.5498 144.71 74.2638 144.71 73.957C144.71 73.6161 144.633 73.3226 144.477 73.0763C144.322 72.8263 144.11 72.6351 143.841 72.5025C143.572 72.3661 143.267 72.2979 142.926 72.2979C142.57 72.2979 142.259 72.3699 141.994 72.5138C141.729 72.6578 141.525 72.8642 141.381 73.1332C141.237 73.4021 141.165 73.7222 141.165 74.0934H138.83C138.83 73.332 139.002 72.671 139.347 72.1104C139.691 71.5498 140.174 71.1161 140.795 70.8093C141.417 70.5025 142.133 70.3491 142.943 70.3491C143.777 70.3491 144.502 70.4968 145.119 70.7923C145.741 71.0839 146.223 71.4892 146.568 72.0082C146.913 72.5271 147.085 73.1218 147.085 73.7923C147.085 74.2317 146.998 74.6654 146.824 75.0934C146.653 75.5214 146.348 75.9968 145.909 76.5195C145.47 77.0385 144.85 77.6616 144.051 78.3888L142.352 80.0536V80.1332H147.239V82.1445H138.943ZM151.464 77.0991V82.1445H149.044V73.4173H151.351V74.957H151.453C151.646 74.4495 151.97 74.0479 152.425 73.7525C152.879 73.4532 153.43 73.3036 154.078 73.3036C154.684 73.3036 155.213 73.4362 155.663 73.7013C156.114 73.9665 156.464 74.3453 156.714 74.8377C156.964 75.3263 157.089 75.9097 157.089 76.5877V82.1445H154.669V77.0195C154.673 76.4854 154.536 76.0688 154.26 75.7695C153.983 75.4665 153.603 75.315 153.118 75.315C152.792 75.315 152.504 75.3851 152.254 75.5252C152.008 75.6654 151.815 75.8699 151.675 76.1388C151.538 76.404 151.468 76.7241 151.464 77.0991ZM162.213 82.2866C161.55 82.2866 160.95 82.1161 160.412 81.7752C159.878 81.4305 159.454 80.9248 159.139 80.2582C158.829 79.5877 158.673 78.7657 158.673 77.7923C158.673 76.7923 158.834 75.9608 159.156 75.2979C159.478 74.6313 159.906 74.1332 160.44 73.8036C160.978 73.4703 161.567 73.3036 162.207 73.3036C162.696 73.3036 163.103 73.387 163.429 73.5536C163.759 73.7165 164.024 73.921 164.224 74.1673C164.429 74.4097 164.584 74.6483 164.69 74.8832H164.764V70.5082H167.179V82.1445H164.793V80.7468H164.69C164.577 80.9892 164.416 81.2298 164.207 81.4684C164.003 81.7032 163.736 81.8983 163.406 82.0536C163.08 82.2089 162.683 82.2866 162.213 82.2866ZM162.98 80.3604C163.37 80.3604 163.7 80.2544 163.969 80.0423C164.241 79.8263 164.45 79.5252 164.594 79.1388C164.741 78.7525 164.815 78.2998 164.815 77.7809C164.815 77.262 164.743 76.8112 164.599 76.4286C164.455 76.046 164.247 75.7506 163.974 75.5423C163.702 75.3339 163.37 75.2298 162.98 75.2298C162.582 75.2298 162.247 75.3377 161.974 75.5536C161.702 75.7695 161.495 76.0688 161.355 76.4513C161.215 76.8339 161.145 77.2771 161.145 77.7809C161.145 78.2885 161.215 78.7373 161.355 79.1275C161.499 79.5138 161.705 79.8169 161.974 80.0366C162.247 80.2525 162.582 80.3604 162.98 80.3604ZM139.011 106.145V94.5082H141.472V104.116H146.46V106.145H139.011ZM152.021 106.315C151.124 106.315 150.351 106.133 149.703 105.77C149.059 105.402 148.563 104.883 148.214 104.213C147.866 103.538 147.692 102.741 147.692 101.821C147.692 100.923 147.866 100.135 148.214 99.457C148.563 98.779 149.054 98.2506 149.686 97.8718C150.322 97.493 151.069 97.3036 151.925 97.3036C152.5 97.3036 153.036 97.3964 153.533 97.582C154.033 97.7638 154.468 98.0385 154.839 98.4059C155.214 98.7733 155.506 99.2354 155.714 99.7923C155.923 100.345 156.027 100.993 156.027 101.735V102.4H148.658V100.9H153.749C153.749 100.552 153.673 100.243 153.521 99.9741C153.37 99.7051 153.16 99.4949 152.891 99.3434C152.625 99.1881 152.317 99.1104 151.964 99.1104C151.597 99.1104 151.271 99.1957 150.987 99.3661C150.707 99.5328 150.487 99.7582 150.328 100.042C150.169 100.323 150.088 100.635 150.084 100.98V102.406C150.084 102.838 150.163 103.211 150.322 103.525C150.485 103.84 150.714 104.082 151.01 104.252C151.305 104.423 151.656 104.508 152.061 104.508C152.33 104.508 152.576 104.47 152.8 104.395C153.023 104.319 153.214 104.205 153.374 104.054C153.533 103.902 153.654 103.717 153.737 103.497L155.976 103.645C155.862 104.182 155.629 104.652 155.277 105.054C154.929 105.451 154.478 105.762 153.925 105.985C153.375 106.205 152.741 106.315 152.021 106.315ZM165.509 97.4173L162.457 106.145H159.73L156.679 97.4173H159.236L161.048 103.662H161.139L162.946 97.4173H165.509ZM170.443 106.315C169.545 106.315 168.773 106.133 168.125 105.77C167.481 105.402 166.985 104.883 166.636 104.213C166.288 103.538 166.114 102.741 166.114 101.821C166.114 100.923 166.288 100.135 166.636 99.457C166.985 98.779 167.475 98.2506 168.108 97.8718C168.744 97.493 169.491 97.3036 170.347 97.3036C170.922 97.3036 171.458 97.3964 171.955 97.582C172.455 97.7638 172.89 98.0385 173.261 98.4059C173.636 98.7733 173.928 99.2354 174.136 99.7923C174.345 100.345 174.449 100.993 174.449 101.735V102.4H167.08V100.9H172.17C172.17 100.552 172.095 100.243 171.943 99.9741C171.792 99.7051 171.581 99.4949 171.312 99.3434C171.047 99.1881 170.739 99.1104 170.386 99.1104C170.019 99.1104 169.693 99.1957 169.409 99.3661C169.129 99.5328 168.909 99.7582 168.75 100.042C168.591 100.323 168.509 100.635 168.506 100.98V102.406C168.506 102.838 168.585 103.211 168.744 103.525C168.907 103.84 169.136 104.082 169.432 104.252C169.727 104.423 170.078 104.508 170.483 104.508C170.752 104.508 170.998 104.47 171.222 104.395C171.445 104.319 171.636 104.205 171.795 104.054C171.955 103.902 172.076 103.717 172.159 103.497L174.398 103.645C174.284 104.182 174.051 104.652 173.699 105.054C173.35 105.451 172.9 105.762 172.347 105.985C171.797 106.205 171.163 106.315 170.443 106.315ZM178.449 94.5082V106.145H176.028V94.5082H178.449Z" fill="white"/>
<rect x="230.153" y="26.5508" width="117.653" height="54.1031" fill="#D9D9D9"/>
<path d="M271.056 52.4748C271.056 53.7437 270.815 54.8233 270.334 55.7134C269.857 56.6036 269.205 57.2835 268.379 57.7532C267.558 58.2191 266.633 58.4521 265.607 58.4521C264.573 58.4521 263.645 58.2172 262.823 57.7475C262.001 57.2778 261.351 56.5979 260.874 55.7077C260.397 54.8176 260.158 53.7399 260.158 52.4748C260.158 51.2058 260.397 50.1263 260.874 49.2362C261.351 48.346 262.001 47.668 262.823 47.2021C263.645 46.7324 264.573 46.4975 265.607 46.4975C266.633 46.4975 267.558 46.7324 268.379 47.2021C269.205 47.668 269.857 48.346 270.334 49.2362C270.815 50.1263 271.056 51.2058 271.056 52.4748ZM268.561 52.4748C268.561 51.6528 268.438 50.9596 268.192 50.3952C267.95 49.8308 267.607 49.4028 267.164 49.1112C266.72 48.8195 266.201 48.6737 265.607 48.6737C265.012 48.6737 264.493 48.8195 264.05 49.1112C263.607 49.4028 263.262 49.8308 263.016 50.3952C262.773 50.9596 262.652 51.6528 262.652 52.4748C262.652 53.2968 262.773 53.9899 263.016 54.5543C263.262 55.1187 263.607 55.5468 264.05 55.8384C264.493 56.1301 265.012 56.2759 265.607 56.2759C266.201 56.2759 266.72 56.1301 267.164 55.8384C267.607 55.5468 267.95 55.1187 268.192 54.5543C268.438 53.9899 268.561 53.2968 268.561 52.4748ZM280.969 49.5657L277.918 58.293H275.191L272.139 49.5657H274.696L276.509 55.81H276.6L278.406 49.5657H280.969ZM285.904 58.4634C285.006 58.4634 284.233 58.2816 283.585 57.918C282.942 57.5505 282.445 57.0316 282.097 56.3612C281.748 55.6869 281.574 54.8896 281.574 53.9691C281.574 53.0714 281.748 52.2835 282.097 51.6055C282.445 50.9274 282.936 50.399 283.568 50.0202C284.205 49.6415 284.951 49.4521 285.807 49.4521C286.383 49.4521 286.919 49.5449 287.415 49.7305C287.915 49.9123 288.351 50.1869 288.722 50.5543C289.097 50.9218 289.388 51.3839 289.597 51.9407C289.805 52.4937 289.909 53.1415 289.909 53.8839V54.5487H282.54V53.0487H287.631C287.631 52.7002 287.555 52.3915 287.404 52.1225C287.252 51.8536 287.042 51.6433 286.773 51.4918C286.508 51.3365 286.199 51.2589 285.847 51.2589C285.479 51.2589 285.154 51.3441 284.87 51.5146C284.589 51.6812 284.37 51.9066 284.21 52.1907C284.051 52.471 283.97 52.7835 283.966 53.1282V54.5543C283.966 54.9862 284.046 55.3593 284.205 55.6737C284.368 55.988 284.597 56.2305 284.892 56.4009C285.188 56.5714 285.538 56.6566 285.943 56.6566C286.212 56.6566 286.459 56.6187 286.682 56.543C286.906 56.4672 287.097 56.3536 287.256 56.2021C287.415 56.0505 287.536 55.8649 287.62 55.6452L289.858 55.793C289.745 56.3308 289.512 56.8005 289.159 57.2021C288.811 57.5998 288.36 57.9104 287.807 58.1339C287.258 58.3536 286.623 58.4634 285.904 58.4634ZM291.489 58.293V49.5657H293.835V51.0884H293.926C294.085 50.5468 294.352 50.1377 294.727 49.8612C295.102 49.5808 295.534 49.4407 296.023 49.4407C296.144 49.4407 296.275 49.4483 296.415 49.4634C296.555 49.4786 296.678 49.4994 296.784 49.5259V51.6737C296.671 51.6396 296.513 51.6093 296.313 51.5827C296.112 51.5562 295.928 51.543 295.762 51.543C295.406 51.543 295.087 51.6206 294.807 51.7759C294.531 51.9274 294.311 52.1396 294.148 52.4123C293.989 52.685 293.909 52.9994 293.909 53.3555V58.293H291.489ZM300.456 46.6566V58.293H298.036V46.6566H300.456ZM304.884 58.4577C304.327 58.4577 303.831 58.3612 303.395 58.168C302.96 57.971 302.615 57.6812 302.361 57.2987C302.111 56.9123 301.986 56.4312 301.986 55.8555C301.986 55.3706 302.075 54.9634 302.253 54.6339C302.431 54.3043 302.674 54.0392 302.98 53.8384C303.287 53.6377 303.636 53.4862 304.026 53.3839C304.42 53.2816 304.833 53.2096 305.264 53.168C305.772 53.1149 306.181 53.0657 306.492 53.0202C306.802 52.971 307.028 52.899 307.168 52.8043C307.308 52.7096 307.378 52.5695 307.378 52.3839V52.3498C307.378 51.9899 307.264 51.7115 307.037 51.5146C306.814 51.3176 306.495 51.2191 306.083 51.2191C305.647 51.2191 305.3 51.3157 305.043 51.5089C304.785 51.6983 304.615 51.9369 304.531 52.2248L302.293 52.043C302.406 51.5127 302.63 51.0543 302.963 50.668C303.297 50.2778 303.727 49.9786 304.253 49.7702C304.783 49.5581 305.397 49.4521 306.094 49.4521C306.579 49.4521 307.043 49.5089 307.486 49.6225C307.933 49.7362 308.329 49.9123 308.674 50.1509C309.022 50.3896 309.297 50.6964 309.497 51.0714C309.698 51.4426 309.799 51.8877 309.799 52.4066V58.293H307.503V57.0827H307.435C307.295 57.3555 307.107 57.596 306.872 57.8043C306.638 58.0089 306.355 58.1699 306.026 58.2873C305.696 58.4009 305.316 58.4577 304.884 58.4577ZM305.577 56.7873C305.933 56.7873 306.247 56.7172 306.52 56.5771C306.793 56.4331 307.007 56.2399 307.162 55.9975C307.317 55.7551 307.395 55.4805 307.395 55.1737V54.2475C307.319 54.2968 307.215 54.3422 307.083 54.3839C306.954 54.4218 306.808 54.4577 306.645 54.4918C306.482 54.5221 306.319 54.5505 306.156 54.5771C305.994 54.5998 305.846 54.6206 305.713 54.6396C305.429 54.6812 305.181 54.7475 304.969 54.8384C304.757 54.9293 304.592 55.0524 304.475 55.2077C304.357 55.3593 304.299 55.5487 304.299 55.7759C304.299 56.1055 304.418 56.3574 304.656 56.5316C304.899 56.7021 305.206 56.7873 305.577 56.7873ZM312.858 61.5657C312.551 61.5657 312.263 61.5411 311.995 61.4918C311.729 61.4464 311.51 61.3877 311.335 61.3157L311.881 59.5089C312.165 59.596 312.421 59.6433 312.648 59.6509C312.879 59.6585 313.078 59.6055 313.245 59.4918C313.415 59.3782 313.553 59.185 313.659 58.9123L313.801 58.543L310.671 49.5657H313.216L315.023 55.9748H315.114L316.938 49.5657H319.5L316.108 59.2362C315.945 59.7058 315.724 60.1149 315.443 60.4634C315.167 60.8157 314.817 61.0865 314.392 61.2759C313.968 61.4691 313.457 61.5657 312.858 61.5657Z" fill="black"/>
</svg>
