<svg width="21" height="21" viewBox="0 0 21 21" fill="none" xmlns="http://www.w3.org/2000/svg">
<path d="M2.56063 0.449143C2.1701 0.058619 1.53693 0.058619 1.14641 0.449143C0.755885 0.839667 0.755885 1.47283 1.14641 1.86336L2.93931 3.65625L1.14641 5.44914C0.755885 5.83967 0.755885 6.47283 1.14641 6.86336C1.53693 7.25388 2.1701 7.25388 2.56063 6.86336L4.35352 5.07046L6.14641 6.86336C6.53694 7.25388 7.1701 7.25388 7.56063 6.86336C7.95115 6.47283 7.95115 5.83967 7.56063 5.44914L5.76773 3.65625L7.56063 1.86336C7.95115 1.47283 7.95115 0.839667 7.56063 0.449143C7.1701 0.058619 6.53694 0.058619 6.14641 0.449143L4.35352 2.24204L2.56063 0.449143Z" fill="#F0F5EF"/>
<path fill-rule="evenodd" clip-rule="evenodd" d="M16.8535 20.1562C19.0626 20.1562 20.8535 18.3654 20.8535 16.1562C20.8535 13.9471 19.0626 12.1562 16.8535 12.1562C14.6444 12.1562 12.8535 13.9471 12.8535 16.1562C12.8535 18.3654 14.6444 20.1562 16.8535 20.1562ZM16.8535 18.1562C17.9581 18.1562 18.8535 17.2608 18.8535 16.1562C18.8535 15.0517 17.9581 14.1562 16.8535 14.1562C15.7489 14.1562 14.8535 15.0517 14.8535 16.1562C14.8535 17.2608 15.7489 18.1562 16.8535 18.1562Z" fill="#F0F5EF"/>
<path d="M19.1435 5.85625L16.8535 3.56625V8.15625C16.8535 9.8131 15.5104 11.1562 13.8535 11.1562H4.85352C4.30124 11.1562 3.85352 11.604 3.85352 12.1562V19.1562C3.85352 19.7085 3.4058 20.1562 2.85352 20.1562C2.30124 20.1562 1.85352 19.7085 1.85352 19.1562V12.1562C1.85352 10.4993 3.19667 9.15625 4.85352 9.15625H13.8535C14.4058 9.15625 14.8535 8.70853 14.8535 8.15625V3.56625L12.5635 5.86625C12.3835 6.04625 12.1335 6.15625 11.8535 6.15625C11.3035 6.15625 10.8535 5.70625 10.8535 5.15625C10.8535 4.87625 10.9635 4.62625 11.1435 4.44625L15.1435 0.44625C15.3235 0.26625 15.5735 0.15625 15.8535 0.15625C16.1335 0.15625 16.3835 0.26625 16.5635 0.44625L20.5635 4.44625C20.7435 4.62625 20.8535 4.87625 20.8535 5.15625C20.8535 5.70625 20.4035 6.15625 19.8535 6.15625C19.5735 6.15625 19.3235 6.04625 19.1435 5.85625Z" fill="#F0F5EF"/>
</svg>
