<svg width="18" height="17" viewBox="0 0 18 17" fill="none" xmlns="http://www.w3.org/2000/svg">
<path d="M8.58203 10.6732L10.9237 8.50651L8.58203 6.33984V10.6732Z" fill="#A4A4A4"/>
<path d="M8.99935 0.175781C7.35118 0.175781 5.74001 0.664523 4.3696 1.5802C2.99919 2.49588 1.93109 3.79737 1.30036 5.32009C0.669626 6.8428 0.504599 8.51836 0.826142 10.1349C1.14769 11.7514 1.94136 13.2362 3.1068 14.4017C4.27223 15.5671 5.75709 16.3608 7.3736 16.6823C8.99011 17.0039 10.6657 16.8388 12.1884 16.2081C13.7111 15.5774 15.0126 14.5093 15.9283 13.1389C16.8439 11.7685 17.3327 10.1573 17.3327 8.50912C17.3327 7.41477 17.1171 6.33113 16.6983 5.32009C16.2796 4.30904 15.6657 3.39038 14.8919 2.61656C14.1181 1.84274 13.1994 1.22891 12.1884 0.810119C11.1773 0.391329 10.0937 0.175781 8.99935 0.175781ZM12.3327 9.49245L9.29935 12.3008C9.03436 12.5407 8.69011 12.6742 8.33269 12.6758C8.13433 12.6753 7.93833 12.6327 7.75769 12.5508C7.5119 12.4514 7.30133 12.2809 7.1529 12.0612C7.00446 11.8415 6.92489 11.5826 6.92435 11.3174V5.70078C6.92489 5.43565 7.00446 5.17669 7.1529 4.95701C7.30133 4.73732 7.5119 4.56687 7.75769 4.46745C8.01088 4.35345 8.29199 4.31636 8.56608 4.36081C8.84017 4.40526 9.09516 4.52928 9.29935 4.71745L12.3327 7.52578C12.4691 7.6507 12.578 7.80263 12.6525 7.97192C12.7271 8.14121 12.7656 8.32415 12.7656 8.50912C12.7656 8.69408 12.7271 8.87702 12.6525 9.04631C12.578 9.2156 12.4691 9.36753 12.3327 9.49245Z" fill="#A4A4A4"/>
</svg>
