<svg width="96" height="53" viewBox="0 0 96 53" fill="none" xmlns="http://www.w3.org/2000/svg">
<path d="M4.45105 10.5058C5.04053 10.3986 5.45245 9.85459 6.02566 9.67822C8.33797 8.96674 11.3352 8.74043 13.7608 8.85069C14.8493 8.90016 17.2996 9.65341 17.8985 10.5517C18.5741 11.5652 18.5191 12.4181 18.5191 13.609C18.5191 14.4807 17.6785 15.0915 17.2778 15.7928C16.12 17.819 12.7639 18.5633 10.7035 19.3558C9.11447 19.9669 7.22568 19.6859 5.80728 20.6315C5.20798 21.0311 7.24779 20.643 7.96806 20.643C8.94884 20.643 9.92962 20.643 10.9104 20.643C13.2136 20.643 15.3048 20.3056 17.2778 21.574C19.5303 23.022 20.685 25.2993 21.8292 27.7115C22.6809 29.507 22.9914 31.3261 22.4039 33.3089C22.1709 34.0953 22.0361 35.3429 22.0361 36.1593C22.0361 38.1937 20.589 39.7577 20.381 41.7336C19.65 48.6786 9.91143 53.2087 3.94534 49.3078C2.90425 48.6271 1.55469 47.4453 1.55469 46.0437C1.55469 44.9259 2.00276 42.9571 2.70404 42.0554C4.76903 39.4004 7.71807 37.675 10.6575 36.2052C14.0283 34.5198 17.808 32.671 21.5419 32.0216C27.0556 31.0627 32.7925 30.9872 38.3799 30.9872C42.5215 30.9872 46.7228 30.9388 50.8388 31.4469C54.0471 31.843 56.5859 33.2737 59.5049 34.4582C62.3307 35.6049 65.1904 36.9397 67.9527 38.2396C69.2898 38.8688 70.3219 39.9826 71.5961 40.7107C72.2904 41.1074 74.0489 41.7084 74.3775 42.3658" stroke="#40483E" stroke-width="3" stroke-linecap="round"/>
<path d="M28.6553 24.7823C30.5193 24.6128 32.2967 23.9384 33.7239 22.8284C34.7245 22.0501 34.7005 20.0387 33.4136 19.3573C31.4138 18.2986 28.6763 19.0758 27.5174 21.1618C27.0282 22.0424 27.3901 24.5216 27.7818 25.4029C28.6856 27.4366 29.567 28.0077 31.862 28.5177C33.3172 28.841 35.449 29.7067 36.9306 28.9659C39.1543 27.854 40.5511 26.4146 40.2522 23.8743C40.1126 22.6871 40.8224 21.7281 40.8614 20.5986C40.9035 19.3767 40.7722 18.3627 41.2751 17.231C41.5829 16.5386 42.6199 16.4227 43.1256 17.0127C43.5209 17.4738 43.7577 18.423 43.7577 19.0355C43.7577 19.978 43.3092 22.0789 44.3784 22.5066C45.4593 22.9389 45.731 16.9207 48.1023 16.9207C49.7058 16.9207 50.1711 18.889 50.1711 20.2193C50.1711 22.2437 49.3436 24.015 49.3436 26.0236C49.3436 27.1148 49.1449 28.8023 50.0677 29.5406C50.6928 30.0407 51.0729 30.1612 51.9296 30.1612C52.4008 30.1612 52.9132 28.7736 53.2744 28.3912C54.2296 27.3798 54.7511 25.9664 55.3432 24.7823" stroke="#40483E" stroke-width="3" stroke-linecap="round"/>
<path d="M60.5156 22.2991C61.5481 22.2991 62.9747 21.7702 63.9407 22.1382C64.3677 22.3008 64.4141 22.9001 64.5498 23.253C64.9608 24.3216 65.077 25.6327 65.3659 26.7471C65.7244 28.1301 65.5641 34.2983 67.6531 34.2983C68.6177 34.2983 69.7176 34.3925 70.3541 33.5742C70.7429 33.0742 71.1162 32.5947 71.4804 32.0686C72.1518 31.0988 72.0796 30.4039 72.262 29.2182C72.5388 27.4187 72.5517 25.5511 72.7332 23.7358C73.0294 20.7743 73.2308 17.9557 73.9171 15.0582C74.4406 12.8475 75.0496 10.4094 75.825 8.277C76.4536 6.54839 77.7761 1.52714 80.0661 2.03603C82.2305 2.51701 83.1645 5.13916 83.4337 6.98973C83.8185 9.63567 83.2728 12.27 83.2728 14.9432C83.2728 16.8039 83.4796 18.7144 83.4796 20.5291C83.4796 21.5622 83.8934 22.5181 83.8934 23.5404C83.8934 26.0488 85.3167 28.36 85.56 30.7928C85.6767 31.9603 86.123 33.098 86.1691 34.2523C86.1859 34.6707 86.5829 35.053 86.5829 35.5396" stroke="#40483E" stroke-width="3" stroke-linecap="round"/>
<path d="M62.3789 11.75C62.996 11.8186 63.6772 12.4203 64.2868 12.6235C65.2107 12.9315 66.0059 13.6138 66.9303 13.9338C67.9739 14.295 69.0548 14.6247 70.1255 14.8992C71.455 15.2401 72.7362 16.1104 74.1023 16.198C78.0012 16.4479 81.8869 16.0551 85.7452 15.6693C87.0231 15.5415 88.2884 15.2811 89.4691 14.7498C90.5437 14.2662 91.5383 13.629 92.5838 13.1062C93.089 12.8537 94.2195 12.4095 94.4458 11.9569" stroke="#40483E" stroke-width="3" stroke-linecap="round"/>
</svg>
