<svg width="350" height="362" viewBox="0 0 350 362" fill="none" xmlns="http://www.w3.org/2000/svg">
<rect x="0.965332" y="0.429688" width="348.153" height="360.887" rx="48" fill="#081704"/>
<path d="M70.7751 61.12C85.4883 49.2093 99.4807 46.5468 118.103 49.583C129.565 51.4519 140.65 54.7198 148.387 64.0042C158.651 76.3205 166.714 97.446 155.926 111.791C144.297 127.254 119.13 134.329 100.994 138.863C96.6622 139.946 109.908 139.41 114.366 139.65C133.639 140.688 156.261 140.531 173.69 150.007C189.332 158.511 194.112 177.181 195.06 193.664C196.365 216.384 191.543 239.926 179.196 259.215C160.548 288.347 116.501 328.663 79.1656 307.329C64.9425 299.201 60.7003 281.015 69.6608 267.343C81.287 249.604 108.546 243.982 127.346 239.091C186.481 223.704 249.015 221.637 309.118 231.028" stroke="white" stroke-width="16" stroke-linecap="round"/>
</svg>
