<svg width="20" height="24" viewBox="0 0 20 24" fill="none" xmlns="http://www.w3.org/2000/svg">
<path d="M1.99261 1.81981H15.4684C15.9709 1.81981 16.3783 2.22719 16.3783 2.72972V4.23005L19.7372 5.79632C19.9649 5.90251 20.0635 6.1732 19.9573 6.40092L16.5925 13.6167C16.5464 13.7155 16.4694 13.79 16.3783 13.8339V20.4729H17.2882V13.757L18.1981 11.8057V20.4729C18.1981 20.9754 17.7907 21.3828 17.2882 21.3828H16.3783V22.7477C16.3783 23.2502 15.9709 23.6576 15.4684 23.6576H0.909906C0.407379 23.6576 0 23.2502 0 22.7477V2.72972C0 2.41003 0.164861 2.12886 0.414203 1.96657L2.47495 0.216376C2.63942 0.0766906 2.84818 0 3.06396 0H17.2882C17.7907 0 18.1981 0.407379 18.1981 0.909906V4.28682C17.8772 4.13717 17.5739 3.99574 17.2882 3.86252V0.909906H3.06396L1.99261 1.81981ZM16.3783 5.28421V11.4271L16.4985 11.6653L18.9211 6.46994L16.3783 5.28421ZM4.09458 15.9234H12.2837C12.535 15.9234 12.7387 15.7197 12.7387 15.4684C12.7387 15.2171 12.535 15.0135 12.2837 15.0135H4.09458C3.84331 15.0135 3.63963 15.2171 3.63963 15.4684C3.63963 15.7197 3.84331 15.9234 4.09458 15.9234ZM5.91439 17.7432H10.4639C10.7152 17.7432 10.9189 17.5395 10.9189 17.2882C10.9189 17.037 10.7152 16.8333 10.4639 16.8333H5.91439C5.66313 16.8333 5.45944 17.037 5.45944 17.2882C5.45944 17.5395 5.66313 17.7432 5.91439 17.7432ZM6.53479 5.91439C5.43836 5.91439 4.54953 6.80322 4.54953 7.89964C4.54953 8.99606 6.17912 11.0816 8.18916 12.201C10.1992 11.0816 11.8288 8.99606 11.8288 7.89964C11.8288 6.80322 10.9399 5.91439 9.84353 5.91439C9.153 5.91439 8.54482 6.26694 8.18916 6.80187C7.83349 6.26694 7.22531 5.91439 6.53479 5.91439Z" fill="#40483E"/>
</svg>
