<svg width="20" height="18" viewBox="0 0 20 18" fill="none" xmlns="http://www.w3.org/2000/svg">
<path d="M12.5 11.9531C12.5 12.2984 12.2203 12.5781 11.875 12.5781H8.125C7.77969 12.5781 7.5 12.2984 7.5 11.9531V10.0781H0V15.7031C0 16.7031 0.875 17.5781 1.875 17.5781H18.125C19.125 17.5781 20 16.7031 20 15.7031V10.0781H12.5V11.9531ZM18.125 3.82813H15V1.95313C15 0.953125 14.125 0.078125 13.125 0.078125H6.875C5.875 0.078125 5 0.953125 5 1.95313V3.82813H1.875C0.875 3.82813 0 4.70313 0 5.70313V8.82813H20V5.70313C20 4.70313 19.125 3.82813 18.125 3.82813ZM12.5 3.82813H7.5V2.57813H12.5V3.82813Z" fill="#F0F5EF"/>
</svg>
