<svg width="95" height="52" viewBox="0 0 95 52" fill="none" xmlns="http://www.w3.org/2000/svg">
<path d="M4.85202 10.3745C5.43248 10.269 5.83809 9.73335 6.40252 9.55968C8.67944 8.85909 11.6308 8.63625 14.0192 8.74481C15.091 8.79353 17.5038 9.53525 18.0935 10.4198C18.7589 11.4178 18.7047 12.2577 18.7047 13.4303C18.7047 14.2886 17.877 14.8901 17.4824 15.5806C16.3423 17.5758 13.0376 18.3087 11.0088 19.089C9.44404 19.6909 7.58417 19.4142 6.18749 20.3453C5.59737 20.7387 7.60595 20.3566 8.31519 20.3566C9.28095 20.3566 10.2467 20.3566 11.2125 20.3566C13.4804 20.3566 15.5396 20.0244 17.4824 21.2733C19.7004 22.6992 20.8374 24.9416 21.9641 27.3169C22.8028 29.0849 23.1085 30.8761 22.53 32.8286C22.3006 33.6029 22.1679 34.8314 22.1679 35.6353C22.1679 37.6386 20.7429 39.1787 20.5381 41.1243C19.8183 47.963 10.2288 52.4238 4.35405 48.5826C3.3289 47.9123 2 46.7485 2 45.3684C2 44.2678 2.44121 42.329 3.13175 41.4412C5.16513 38.8269 8.06903 37.1278 10.9635 35.6806C14.2827 34.021 18.0045 32.2004 21.6812 31.561C27.1105 30.6168 32.7596 30.5424 38.2614 30.5424C42.3396 30.5424 46.4766 30.4947 50.5296 30.9951C53.6888 31.3851 56.1887 32.7939 59.0631 33.9603C61.8456 35.0895 64.6614 36.4038 67.3815 37.6838C68.6981 38.3034 69.7144 39.4001 70.9691 40.117C71.6527 40.5077 73.3843 41.0995 73.708 41.7468" stroke="#CCE5C5" stroke-width="3" stroke-linecap="round"/>
<path d="M28.6811 24.4309C30.5166 24.2641 32.2668 23.6 33.6721 22.507C34.6575 21.7406 34.6338 19.76 33.3666 19.0891C31.3974 18.0465 28.7018 18.8118 27.5607 20.8659C27.0789 21.733 27.4353 24.1742 27.821 25.0421C28.711 27.0446 29.5789 27.607 31.8387 28.1091C33.2717 28.4276 35.3708 29.28 36.8297 28.5505C39.0194 27.4557 40.3948 26.0383 40.1005 23.5369C39.963 22.3679 40.662 21.4236 40.7003 20.3114C40.7418 19.1081 40.6125 18.1097 41.1078 16.9953C41.4108 16.3135 42.4319 16.1993 42.9299 16.7803C43.3191 17.2344 43.5524 18.169 43.5524 18.7722C43.5524 19.7002 43.1107 21.7689 44.1635 22.1901C45.2279 22.6158 45.4955 16.6897 47.8304 16.6897C49.4094 16.6897 49.8676 18.6279 49.8676 19.9379C49.8676 21.9312 49.0527 23.6754 49.0527 25.6532C49.0527 26.7277 48.857 28.3895 49.7657 29.1164C50.3812 29.6088 50.7555 29.7276 51.5991 29.7276C52.0631 29.7276 52.5677 28.3612 52.9233 27.9847C53.8639 26.9887 54.3775 25.5969 54.9604 24.4309" stroke="#CCE5C5" stroke-width="3" stroke-linecap="round"/>
<path d="M60.0547 21.9883C61.0714 21.9883 62.4761 21.4675 63.4273 21.8299C63.8478 21.99 63.8935 22.5801 64.0271 22.9277C64.4318 23.9799 64.5462 25.2709 64.8307 26.3682C65.1838 27.7301 65.0259 33.8038 67.0829 33.8038C68.0327 33.8038 69.1158 33.8966 69.7425 33.0908C70.1254 32.5985 70.4929 32.1263 70.8516 31.6082C71.5127 30.6533 71.4416 29.969 71.6212 28.8015C71.8938 27.0296 71.9065 25.1905 72.0852 23.403C72.3769 20.4868 72.5752 17.7114 73.2509 14.8583C73.7665 12.6814 74.3661 10.2806 75.1297 8.18091C75.7486 6.47875 77.0509 1.53438 79.3058 2.03548C81.4371 2.50909 82.3568 5.0911 82.6219 6.91334C83.0008 9.51877 82.4634 12.1128 82.4634 14.7451C82.4634 16.5773 82.6671 18.4585 82.6671 20.2454C82.6671 21.2628 83.0746 22.2039 83.0746 23.2106C83.0746 25.6806 84.4761 27.9564 84.7156 30.352C84.8306 31.5016 85.27 32.6219 85.3154 33.7586C85.3319 34.1705 85.7229 34.547 85.7229 35.0261" stroke="#CCE5C5" stroke-width="3" stroke-linecap="round"/>
<path d="M61.8906 11.6016C62.4982 11.6691 63.169 12.2616 63.7693 12.4617C64.679 12.7649 65.4621 13.4368 66.3724 13.7519C67.3999 14.1076 68.4643 14.4322 69.5186 14.7026C70.8278 15.0383 72.0894 15.8952 73.4345 15.9815C77.2738 16.2276 81.1 15.8408 84.8992 15.4608C86.1575 15.335 87.4035 15.0786 88.5661 14.5554C89.6242 14.0793 90.6036 13.4518 91.6331 12.937C92.1305 12.6883 93.2437 12.2509 93.4666 11.8053" stroke="#CCE5C5" stroke-width="3" stroke-linecap="round"/>
</svg>
