<svg width="97" height="53" viewBox="0 0 97 53" fill="none" xmlns="http://www.w3.org/2000/svg">
<path d="M4.89636 10.5058C5.48585 10.3986 5.89776 9.85459 6.47097 9.67822C8.78329 8.96674 11.7805 8.74043 14.2061 8.85069C15.2946 8.90016 17.7449 9.65341 18.3438 10.5517C19.0194 11.5652 18.9644 12.4181 18.9644 13.609C18.9644 14.4807 18.1238 15.0915 17.7231 15.7928C16.5653 17.819 13.2092 18.5633 11.1488 19.3558C9.55978 19.9669 7.67099 19.6859 6.2526 20.6315C5.6533 21.0311 7.69311 20.643 8.41338 20.643C9.39415 20.643 10.3749 20.643 11.3557 20.643C13.6589 20.643 15.7501 20.3056 17.7231 21.574C19.9756 23.022 21.1303 25.2993 22.2745 27.7115C23.1262 29.507 23.4367 31.3261 22.8492 33.3089C22.6162 34.0953 22.4814 35.3429 22.4814 36.1593C22.4814 38.1937 21.0344 39.7577 20.8264 41.7336C20.0953 48.6786 10.3567 53.2087 4.39065 49.3078C3.34957 48.6271 2 47.4453 2 46.0437C2 44.9259 2.44807 42.9571 3.14935 42.0554C5.21434 39.4004 8.16339 37.675 11.1029 36.2052C14.4737 34.5198 18.2533 32.671 21.9872 32.0216C27.5009 31.0627 33.2378 30.9872 38.8252 30.9872C42.9668 30.9872 47.1681 30.9388 51.2841 31.4469C54.4924 31.843 57.0312 33.2737 59.9503 34.4582C62.7761 35.6049 65.6357 36.9397 68.398 38.2396C69.7351 38.8688 70.7672 39.9826 72.0414 40.7107C72.7357 41.1074 74.4942 41.7084 74.8228 42.3658" stroke="#081704" stroke-width="3" stroke-linecap="round"/>
<path d="M29.1002 24.7823C30.9642 24.6128 32.7417 23.9384 34.1689 22.8284C35.1695 22.0501 35.1455 20.0387 33.8585 19.3573C31.8587 18.2986 29.1213 19.0758 27.9624 21.1618C27.4731 22.0424 27.835 24.5216 28.2267 25.4029C29.1306 27.4366 30.0119 28.0077 32.3069 28.5177C33.7621 28.841 35.8939 29.7067 37.3755 28.9659C39.5993 27.854 40.996 26.4146 40.6972 23.8743C40.5575 22.6871 41.2674 21.7281 41.3063 20.5986C41.3485 19.3767 41.2171 18.3627 41.7201 17.231C42.0278 16.5386 43.0648 16.4227 43.5705 17.0127C43.9658 17.4738 44.2027 18.423 44.2027 19.0355C44.2027 19.978 43.7541 22.0789 44.8233 22.5066C45.9043 22.9389 46.176 16.9207 48.5472 16.9207C50.1508 16.9207 50.6161 18.889 50.6161 20.2193C50.6161 22.2437 49.7885 24.015 49.7885 26.0236C49.7885 27.1148 49.5898 28.8023 50.5126 29.5406C51.1377 30.0407 51.5179 30.1612 52.3746 30.1612C52.8458 30.1612 53.3582 28.7736 53.7193 28.3912C54.6745 27.3798 55.1961 25.9664 55.7881 24.7823" stroke="#081704" stroke-width="3" stroke-linecap="round"/>
<path d="M60.9614 22.2991C61.9939 22.2991 63.4205 21.7702 64.3865 22.1382C64.8135 22.3008 64.8599 22.9001 64.9956 23.253C65.4066 24.3216 65.5228 25.6327 65.8117 26.7471C66.1702 28.1301 66.0099 34.2983 68.0989 34.2983C69.0635 34.2983 70.1634 34.3925 70.7999 33.5742C71.1887 33.0742 71.562 32.5947 71.9262 32.0686C72.5976 31.0988 72.5254 30.4039 72.7078 29.2182C72.9846 27.4187 72.9975 25.5511 73.179 23.7358C73.4752 20.7743 73.6766 17.9557 74.3629 15.0582C74.8864 12.8475 75.4954 10.4094 76.2708 8.277C76.8994 6.54839 78.2219 1.52714 80.5119 2.03603C82.6763 2.51701 83.6103 5.13916 83.8795 6.98973C84.2643 9.63567 83.7186 12.27 83.7186 14.9432C83.7186 16.8039 83.9254 18.7144 83.9254 20.5291C83.9254 21.5622 84.3392 22.5181 84.3392 23.5404C84.3392 26.0488 85.7625 28.36 86.0058 30.7928C86.1225 31.9603 86.5688 33.098 86.6149 34.2523C86.6317 34.6707 87.0287 35.053 87.0287 35.5396" stroke="#081704" stroke-width="3" stroke-linecap="round"/>
<path d="M62.8245 11.75C63.4415 11.8186 64.1227 12.4203 64.7324 12.6235C65.6562 12.9315 66.4515 13.6138 67.3759 13.9338C68.4194 14.295 69.5004 14.6247 70.5711 14.8992C71.9006 15.2401 73.1818 16.1104 74.5478 16.198C78.4468 16.4479 82.3325 16.0551 86.1908 15.6693C87.4686 15.5415 88.734 15.2811 89.9147 14.7498C90.9893 14.2662 91.9839 13.629 93.0294 13.1062C93.5345 12.8537 94.665 12.4095 94.8913 11.9569" stroke="#081704" stroke-width="3" stroke-linecap="round"/>
</svg>
