<svg width="113" height="113" viewBox="0 0 113 113" fill="none" xmlns="http://www.w3.org/2000/svg">
<path d="M56.2893 112.579C41.3605 112.579 27.0431 106.648 16.4868 96.0919C5.93047 85.5356 0 71.2182 0 56.2893C0 41.3605 5.93047 27.0431 16.4868 16.4868C27.0431 5.93047 41.3605 0 56.2893 0C71.2182 0 85.5356 5.93047 96.0919 16.4868C106.648 27.0431 112.579 41.3605 112.579 56.2893C112.579 71.2182 106.648 85.5356 96.0919 96.0919C85.5356 106.648 71.2182 112.579 56.2893 112.579ZM44.356 44.356L24.4296 88.1491L68.2227 68.2227L88.1491 24.4296L44.356 44.356ZM56.2893 61.9183C54.7964 61.9183 53.3647 61.3252 52.3091 60.2696C51.2534 59.214 50.6604 57.7822 50.6604 56.2893C50.6604 54.7964 51.2534 53.3647 52.3091 52.3091C53.3647 51.2534 54.7964 50.6604 56.2893 50.6604C57.7822 50.6604 59.214 51.2534 60.2696 52.3091C61.3252 53.3647 61.9183 54.7964 61.9183 56.2893C61.9183 57.7822 61.3252 59.214 60.2696 60.2696C59.214 61.3252 57.7822 61.9183 56.2893 61.9183Z" fill="#081704"/>
</svg>
