<svg width="88" height="88" viewBox="0 0 88 88" fill="none" xmlns="http://www.w3.org/2000/svg">
<path d="M36.8732 73.7529C43.2071 73.7588 49.4343 72.1221 54.9468 69.0027L70.2391 84.295C72.1021 86.158 74.6288 87.2046 77.2634 87.2046C79.898 87.2046 82.4247 86.158 84.2876 84.295C86.1506 82.4321 87.1972 79.9054 87.1972 77.2708C87.1972 74.6362 86.1506 72.1095 84.2876 70.2465L68.9953 54.9542C73.3685 47.1903 74.7813 38.1051 72.9723 29.3798C71.1634 20.6545 66.2552 12.8798 59.1559 7.49429C52.0566 2.10881 43.2469 -0.52285 34.3569 0.0862751C25.4669 0.695401 17.0985 4.50408 10.8001 10.8075C5.64326 15.9642 2.13136 22.5343 0.708559 29.687C-0.714244 36.8396 0.0159508 44.2535 2.8068 50.9912C5.59766 57.7288 10.3238 63.4875 16.3876 67.5391C22.4514 71.5907 29.5805 73.7531 36.8732 73.7529ZM17.2897 17.2971C21.8202 12.7687 27.7807 9.95118 34.1556 9.32458C40.5305 8.69799 46.9254 10.3011 52.2509 13.8608C57.5764 17.4205 61.5029 22.7165 63.3615 28.8465C65.2201 34.9766 64.8958 41.5614 62.4438 47.4792C59.9919 53.397 55.5639 58.2815 49.9144 61.3006C44.2649 64.3198 37.7434 65.2867 31.4609 64.0367C25.1784 62.7867 19.5237 59.3971 15.4601 54.4454C11.3965 49.4937 9.17549 43.2863 9.17544 36.8806C9.16432 33.2418 9.87586 29.6369 11.2688 26.2752C12.6617 22.9135 14.7082 19.8618 17.2897 17.2971Z" fill="#081704"/>
</svg>
