<svg width="88" height="88" viewBox="0 0 88 88" fill="none" xmlns="http://www.w3.org/2000/svg">
<path d="M61.8664 0H25.3308C9.46089 0 0 9.46089 0 25.3308V61.8664C0 77.7363 9.46089 87.1972 25.3308 87.1972H61.8664C77.7363 87.1972 87.1972 77.7363 87.1972 61.8664V25.3308C87.1972 9.46089 77.7363 0 61.8664 0ZM34.7481 56.2422L24.9384 66.0519C24.2844 66.7058 23.456 67.011 22.6277 67.011C21.7993 67.011 20.9273 66.7058 20.3169 66.0519L17.047 62.782C15.7391 61.5176 15.7391 59.4249 17.047 58.1605C18.3114 56.8962 20.3605 56.8962 21.6685 58.1605L22.6277 59.1197L30.1266 51.6207C31.391 50.3564 33.4401 50.3564 34.7481 51.6207C36.0124 52.8851 36.0124 54.9778 34.7481 56.2422ZM34.7481 25.7232L24.9384 35.5329C24.2844 36.1868 23.456 36.492 22.6277 36.492C21.7993 36.492 20.9273 36.1868 20.3169 35.5329L17.047 32.263C15.7391 30.9986 15.7391 28.9059 17.047 27.6415C18.3114 26.3772 20.3605 26.3772 21.6685 27.6415L22.6277 28.6007L30.1266 21.1017C31.391 19.8374 33.4401 19.8374 34.7481 21.1017C36.0124 22.3661 36.0124 24.4588 34.7481 25.7232ZM67.8394 63.7411H44.9502C43.1626 63.7411 41.6803 62.2588 41.6803 60.4713C41.6803 58.6837 43.1626 57.2014 44.9502 57.2014H67.8394C69.6706 57.2014 71.1093 58.6837 71.1093 60.4713C71.1093 62.2588 69.6706 63.7411 67.8394 63.7411ZM67.8394 33.2221H44.9502C43.1626 33.2221 41.6803 31.7398 41.6803 29.9522C41.6803 28.1647 43.1626 26.6823 44.9502 26.6823H67.8394C69.6706 26.6823 71.1093 28.1647 71.1093 29.9522C71.1093 31.7398 69.6706 33.2221 67.8394 33.2221Z" fill="#081704"/>
</svg>
